<svg width="20" height="17" viewBox="0 0 20 17" fill="none" xmlns="http://www.w3.org/2000/svg">
<g clip-path="url(#clip0)">
<path d="M7.63333 4.63334V4.16667H1.57619V5.21905H0V9.58096H1.57619V10.6333H2.89524H6.57143H7.63333V10.1667V4.63334Z" fill="#3D3C3B"/>
<path d="M6.82853 11.819H3.15234L4.08092 16.0667H7.75711L6.82853 11.819Z" fill="#CB2023"/>
<path d="M10.1954 3.80952C9.69064 4 9.24302 4.15714 8.81445 4.28571V10.4762C9.22398 10.6048 9.69064 10.7667 10.1954 10.9524C12.633 11.8802 14.9197 13.164 16.9811 14.7619V0C14.9186 1.59621 12.6321 2.87983 10.1954 3.80952Z" fill="#CB2023"/>
<path d="M18.4764 4.63809H18.1621V10.1619H18.4764C19.2654 10.1619 19.905 9.52231 19.905 8.73333V6.08095C19.9088 5.6996 19.76 5.33256 19.4916 5.06155C19.2233 4.79054 18.8578 4.63807 18.4764 4.63809Z" fill="#CB2023"/>
</g>
<defs>
<clipPath id="clip0">
<rect width="20" height="16.1905" fill="white"/>
</clipPath>
</defs>
</svg>
