<svg width="352" height="17" viewBox="0 0 352 17" fill="none" xmlns="http://www.w3.org/2000/svg">
<path fill-rule="evenodd" clip-rule="evenodd" d="M266.796 1.83179H270.276V0.487793H266.796V1.83179ZM270.144 10.9998H271.8V2.59979H270.54L266.94 7.73579V2.59979H265.284V10.9998H266.544L270.144 5.87579V10.9998ZM26.1271 11.1678C24.8711 11.1678 23.8271 10.7478 22.9951 9.90779C22.1711 9.07579 21.7591 8.03979 21.7591 6.79979C21.7591 5.55179 22.1711 4.51579 22.9951 3.69179C23.8271 2.85179 24.8711 2.43179 26.1271 2.43179C26.8871 2.43179 27.5871 2.61179 28.2271 2.97179C28.8751 3.32379 29.3791 3.80379 29.7391 4.41179L28.3111 5.23979C28.1031 4.86379 27.8071 4.57179 27.4231 4.36379C27.0391 4.14779 26.6071 4.03979 26.1271 4.03979C25.3111 4.03979 24.6511 4.29579 24.1471 4.80779C23.6511 5.32779 23.4031 5.99179 23.4031 6.79979C23.4031 7.59979 23.6511 8.25979 24.1471 8.77979C24.6511 9.29179 25.3111 9.54779 26.1271 9.54779C26.6071 9.54779 27.0391 9.44379 27.4231 9.23579C27.8151 9.01979 28.1111 8.72779 28.3111 8.35979L29.7391 9.18779C29.3791 9.79579 28.8751 10.2798 28.2271 10.6398C27.5871 10.9918 26.8871 11.1678 26.1271 11.1678ZM4.11579 6.67979L7.34379 10.9998H5.43578L2.43579 7.06379V10.9998H0.779785V2.59979H2.43579V6.30779L5.31578 2.59979H7.22379L4.11579 6.67979ZM10.9162 6.65579L12.5722 2.59979H14.2282L11.7082 8.68379C11.0362 10.3158 9.93222 11.0878 8.39622 10.9998V9.45179C8.83622 9.49179 9.19222 9.43179 9.46422 9.27179C9.74422 9.11179 9.98022 8.84379 10.1722 8.46779L7.42422 2.59979H9.08022L10.9162 6.65579ZM18.2555 2.59979H15.1235V10.9998H16.7795V8.23979H18.2555C19.0555 8.23979 19.7355 7.96779 20.2955 7.42379C20.8475 6.87979 21.1235 6.21179 21.1235 5.41979C21.1235 4.62779 20.8475 3.95979 20.2955 3.41579C19.7355 2.87179 19.0555 2.59979 18.2555 2.59979ZM18.2555 6.69179H16.7795V4.14779H18.2555C18.6075 4.14779 18.8995 4.26779 19.1315 4.50779C19.3635 4.74779 19.4795 5.05179 19.4795 5.41979C19.4795 5.77979 19.3635 6.08379 19.1315 6.33179C18.8995 6.57179 18.6075 6.69179 18.2555 6.69179ZM30.7563 10.9998H33.8883C34.6883 10.9998 35.3683 10.7278 35.9283 10.1838C36.4803 9.63979 36.7563 8.97179 36.7563 8.17979C36.7563 7.38779 36.4803 6.71979 35.9283 6.17579C35.3683 5.63179 34.6883 5.35979 33.8883 5.35979H32.4123V2.59979H30.7563V10.9998ZM37.5243 10.9998H39.1684V2.59979H37.5243V10.9998ZM32.4123 9.45179V6.90779H33.8883C34.2403 6.90779 34.5324 7.02779 34.7644 7.26779C34.9963 7.50779 35.1124 7.81179 35.1124 8.17979C35.1124 8.54779 34.9963 8.85179 34.7644 9.09179C34.5324 9.33179 34.2403 9.45179 33.8883 9.45179H32.4123ZM50.245 10.9998H48.589V5.87579L44.989 10.9998H43.729V2.59979H45.385V7.73579L48.985 2.59979H50.245V10.9998ZM56.5792 2.59979V5.93579H53.4592V2.59979H51.8032V10.9998H53.4592V7.51979H56.5792V10.9998H58.2232V2.59979H56.5792ZM59.1597 2.59979H65.3397V4.18379H63.0717V10.9998H61.4157V4.18379H59.1597V2.59979ZM67.9202 9.41579V7.53179H71.1002V5.97179H67.9202V4.18379H71.4002V2.59979H66.2642V10.9998H71.4602V9.41579H67.9202ZM72.6274 2.59979H75.7594C76.5594 2.59979 77.2394 2.87179 77.7994 3.41579C78.3514 3.95979 78.6274 4.62779 78.6274 5.41979C78.6274 6.21179 78.3514 6.87979 77.7994 7.42379C77.2394 7.96779 76.5594 8.23979 75.7594 8.23979H74.2834V10.9998H72.6274V2.59979ZM74.2834 6.69179H75.7594C76.1114 6.69179 76.4034 6.57179 76.6354 6.33179C76.8674 6.08379 76.9834 5.77979 76.9834 5.41979C76.9834 5.05179 76.8674 4.74779 76.6354 4.50779C76.4034 4.26779 76.1114 4.14779 75.7594 4.14779H74.2834V6.69179ZM84.4816 2.59979V5.93579H81.3616V2.59979H79.7056V10.9998H81.3616V7.51979H84.4816V10.9998H86.1256V2.59979H84.4816ZM89.342 7.53179V9.41579H92.882V10.9998H87.686V2.59979H92.822V4.18379H89.342V5.97179H92.522V7.53179H89.342ZM99.6053 2.59979H93.4253V4.18379H95.6813V10.9998H97.3373V4.18379H99.6053V2.59979ZM104.42 8.11979H99.9204V6.63179H104.42V8.11979ZM114.199 2.59979H112.495L110.095 6.57179L107.683 2.59979H105.979V10.9998H107.635V5.56379L109.999 9.45179H110.191L112.555 5.55179V10.9998H114.199V2.59979ZM122.964 10.9998H121.164L120.66 9.48779H117.312L116.808 10.9998H115.02L117.96 2.59979H120.012L122.964 10.9998ZM118.992 4.50779L117.84 7.93979H120.144L118.992 4.50779ZM126.912 2.59979H123.78V10.9998H125.436V8.23979H126.912C127.712 8.23979 128.392 7.96779 128.952 7.42379C129.504 6.87979 129.78 6.21179 129.78 5.41979C129.78 4.62779 129.504 3.95979 128.952 3.41579C128.392 2.87179 127.712 2.59979 126.912 2.59979ZM126.912 6.69179H125.436V4.14779H126.912C127.264 4.14779 127.556 4.26779 127.788 4.50779C128.02 4.74779 128.136 5.05179 128.136 5.41979C128.136 5.77979 128.02 6.08379 127.788 6.33179C127.556 6.57179 127.264 6.69179 126.912 6.69179ZM134.194 6.67979L137.422 10.9998H135.514L132.514 7.06379V10.9998H130.858V2.59979H132.514V6.30779L135.394 2.59979H137.302L134.194 6.67979ZM139.897 9.41579V7.53179H143.077V5.97179H139.897V4.18379H143.377V2.59979H138.241V10.9998H143.437V9.41579H139.897ZM143.98 2.59979H150.16V4.18379H147.892V10.9998H146.236V4.18379H143.98V2.59979ZM155.944 10.9998H157.6V2.59979H156.34L152.74 7.73579V2.59979H151.084V10.9998H152.344L155.944 5.87579V10.9998ZM163.935 5.93579V2.59979H165.579V10.9998H163.935V7.51979H160.815V10.9998H159.159V2.59979H160.815V5.93579H163.935ZM171.915 2.59979H167.139V10.9998H168.795V4.18379H171.915V2.59979ZM179.074 10.9998H177.274L176.77 9.48779H173.422L172.918 10.9998H171.13L174.07 2.59979H176.122L179.074 10.9998ZM175.102 4.50779L173.95 7.93979H176.254L175.102 4.50779ZM189.069 8.56379C189.069 7.70779 188.701 7.06779 187.965 6.64379C188.493 6.21979 188.757 5.65979 188.757 4.96379C188.757 4.28379 188.509 3.71979 188.013 3.27179C187.517 2.82379 186.913 2.59979 186.201 2.59979H182.889V10.9998H186.453C187.189 10.9998 187.809 10.7718 188.313 10.3158C188.817 9.85979 189.069 9.27579 189.069 8.56379ZM184.545 4.14779H186.201C186.465 4.14779 186.681 4.23579 186.849 4.41179C187.017 4.58779 187.101 4.80779 187.101 5.07179C187.101 5.33579 187.013 5.55579 186.837 5.73179C186.669 5.90779 186.457 5.99579 186.201 5.99579H184.545V4.14779ZM186.453 9.45179H184.545V7.47179H186.453C186.733 7.47179 186.965 7.56779 187.149 7.75979C187.333 7.94379 187.425 8.17579 187.425 8.45579C187.425 8.74379 187.333 8.98379 187.149 9.17579C186.965 9.35979 186.733 9.45179 186.453 9.45179ZM196.491 6.67979L199.719 10.9998H197.811L194.811 7.06379V10.9998H193.155V2.59979H194.811V6.30779L197.691 2.59979H199.599L196.491 6.67979ZM205.398 10.9998H207.054V2.59979H205.794L202.194 7.73579V2.59979H200.538V10.9998H201.798L205.398 5.87579V10.9998ZM207.988 2.59979H214.168V4.18379H211.9V10.9998H210.244V4.18379H207.988V2.59979ZM219.883 10.9998H221.683L218.731 2.59979H216.679L213.739 10.9998H215.527L216.031 9.48779H219.379L219.883 10.9998ZM216.559 7.93979L217.711 4.50779L218.863 7.93979H216.559ZM224.155 7.53179V9.41579H227.695V10.9998H222.499V2.59979H227.635V4.18379H224.155V5.97179H227.335V7.53179H224.155ZM231.862 8.11979H236.362V6.63179H231.862V8.11979ZM240.92 2.59979H247.196V10.9998H245.54V4.18379H242.576V10.9998H240.92V2.59979ZM251.892 2.59979H248.76V10.9998H250.416V8.23979H251.892C252.692 8.23979 253.372 7.96779 253.932 7.42379C254.484 6.87979 254.76 6.21179 254.76 5.41979C254.76 4.62779 254.484 3.95979 253.932 3.41579C253.372 2.87179 252.692 2.59979 251.892 2.59979ZM251.892 6.69179H250.416V4.14779H251.892C252.244 4.14779 252.536 4.26779 252.768 4.50779C253 4.74779 253.116 5.05179 253.116 5.41979C253.116 5.77979 253 6.08379 252.768 6.33179C252.536 6.57179 252.244 6.69179 251.892 6.69179ZM262.848 9.90779C262 10.7478 260.968 11.1678 259.752 11.1678C258.536 11.1678 257.504 10.7478 256.656 9.90779C255.816 9.05179 255.396 8.01579 255.396 6.79979C255.396 5.57579 255.816 4.54379 256.656 3.70379C257.504 2.85579 258.536 2.43179 259.752 2.43179C260.968 2.43179 262 2.85579 262.848 3.70379C263.696 4.54379 264.12 5.57579 264.12 6.79979C264.12 8.02379 263.696 9.05979 262.848 9.90779ZM257.82 8.77979C258.332 9.29179 258.976 9.54779 259.752 9.54779C260.528 9.54779 261.172 9.29179 261.684 8.77979C262.204 8.25979 262.464 7.59979 262.464 6.79979C262.464 5.99979 262.204 5.33979 261.684 4.81979C261.164 4.29979 260.52 4.03979 259.752 4.03979C258.984 4.03979 258.34 4.29979 257.82 4.81979C257.3 5.33979 257.04 5.99979 257.04 6.79979C257.04 7.59979 257.3 8.25979 257.82 8.77979ZM279.814 2.59979V9.41579H280.714V12.6078H279.058V10.9998H274.414V12.6078H272.758V9.41579H273.574C274.038 8.77579 274.27 7.82779 274.27 6.57179V2.59979H279.814ZM275.35 9.41579H278.158V4.14779H275.926V6.59579C275.926 7.81979 275.734 8.75979 275.35 9.41579ZM286.679 10.9998H288.335V2.59979H287.075L283.475 7.73579V2.59979H281.819V10.9998H283.079L286.679 5.87579V10.9998ZM299.961 9.90779C299.113 10.7478 298.081 11.1678 296.865 11.1678C295.649 11.1678 294.617 10.7478 293.769 9.90779C292.929 9.05179 292.509 8.01579 292.509 6.79979C292.509 5.57579 292.929 4.54379 293.769 3.70379C294.617 2.85579 295.649 2.43179 296.865 2.43179C298.081 2.43179 299.113 2.85579 299.961 3.70379C300.809 4.54379 301.233 5.57579 301.233 6.79979C301.233 8.02379 300.809 9.05979 299.961 9.90779ZM294.933 8.77979C295.445 9.29179 296.089 9.54779 296.865 9.54779C297.641 9.54779 298.285 9.29179 298.797 8.77979C299.317 8.25979 299.577 7.59979 299.577 6.79979C299.577 5.99979 299.317 5.33979 298.797 4.81979C298.277 4.29979 297.633 4.03979 296.865 4.03979C296.097 4.03979 295.453 4.29979 294.933 4.81979C294.413 5.33979 294.153 5.99979 294.153 6.79979C294.153 7.59979 294.413 8.25979 294.933 8.77979ZM305.613 5.77979H304.053V4.18379H307.677V2.59979H302.397V10.9998H305.613C306.437 10.9998 307.105 10.7598 307.617 10.2798C308.137 9.78379 308.397 9.15179 308.397 8.38379C308.397 7.61579 308.137 6.99179 307.617 6.51179C307.105 6.02379 306.437 5.77979 305.613 5.77979ZM305.613 9.45179H304.053V7.32779H305.613C305.949 7.32779 306.221 7.42379 306.429 7.61579C306.645 7.79979 306.753 8.05579 306.753 8.38379C306.753 8.71179 306.645 8.97179 306.429 9.16379C306.221 9.35579 305.949 9.45179 305.613 9.45179ZM312.03 6.65579L313.686 2.59979H315.341L312.822 8.68379C312.15 10.3158 311.046 11.0878 309.509 10.9998V9.45179C309.949 9.49179 310.306 9.43179 310.578 9.27179C310.858 9.11179 311.094 8.84379 311.285 8.46779L308.538 2.59979H310.194L312.03 6.65579ZM320.617 2.59979V6.31979C320.113 6.55179 319.577 6.66779 319.009 6.66779C318.617 6.66779 318.301 6.55579 318.061 6.33179C317.829 6.09979 317.713 5.78379 317.713 5.38379V2.59979H316.057V5.59979C316.057 6.41579 316.329 7.06379 316.873 7.54379C317.433 8.01579 318.133 8.25179 318.973 8.25179C319.557 8.25179 320.105 8.14379 320.617 7.92779V10.9998H322.273V2.59979H320.617ZM325.487 7.53179V9.41579H329.027V10.9998H323.831V2.59979H328.967V4.18379H325.487V5.97179H328.667V7.53179H325.487ZM334.97 2.59979V5.93579H331.85V2.59979H330.194V10.9998H331.85V7.51979H334.97V10.9998H336.614V2.59979H334.97ZM344.69 10.9998H343.034V5.87579L339.434 10.9998H338.174V2.59979H339.83V7.73579L343.43 2.59979H344.69V10.9998ZM347.905 9.41579V7.53179H351.085V5.97179H347.905V4.18379H351.385V2.59979H346.249V10.9998H351.445V9.41579H347.905ZM241 17H352V16H241V17Z" fill="white"/>
</svg>
