<svg width="793" height="43" viewBox="0 0 793 43" fill="none" xmlns="http://www.w3.org/2000/svg">
<path d="M170.955 16.21C169.385 16.21 168.08 15.685 167.04 14.635C166.01 13.595 165.495 12.3 165.495 10.75C165.495 9.19004 166.01 7.89504 167.04 6.86504C168.08 5.81504 169.385 5.29004 170.955 5.29004C171.905 5.29004 172.78 5.51504 173.58 5.96504C174.39 6.40504 175.02 7.00504 175.47 7.76504L173.685 8.80004C173.425 8.33004 173.055 7.96504 172.575 7.70504C172.095 7.43504 171.555 7.30004 170.955 7.30004C169.935 7.30004 169.11 7.62004 168.48 8.26004C167.86 8.91004 167.55 9.74004 167.55 10.75C167.55 11.75 167.86 12.575 168.48 13.225C169.11 13.865 169.935 14.185 170.955 14.185C171.555 14.185 172.095 14.055 172.575 13.795C173.065 13.525 173.435 13.16 173.685 12.7L175.47 13.735C175.02 14.495 174.39 15.1 173.58 15.55C172.78 15.99 171.905 16.21 170.955 16.21Z" fill="white"/>
<path d="M175.918 5.50004H183.643V7.48004H180.808V16H178.738V7.48004H175.918V5.50004Z" fill="white"/>
<path d="M193.037 16H190.787L190.157 14.11H185.972L185.342 16H183.107L186.782 5.50004H189.347L193.037 16ZM188.072 7.88504L186.632 12.175H189.512L188.072 7.88504Z" fill="white"/>
<path d="M200.026 9.67004V5.50004H202.081V16H200.026V11.65H196.126V16H194.056V5.50004H196.126V9.67004H200.026Z" fill="white"/>
<path d="M206.102 8.95004H207.947C208.947 8.95004 209.797 9.29004 210.497 9.97004C211.187 10.65 211.532 11.485 211.532 12.475C211.532 13.465 211.187 14.3 210.497 14.98C209.797 15.66 208.947 16 207.947 16H204.032V5.50004H206.102V8.95004ZM206.102 14.065H207.947C208.387 14.065 208.752 13.915 209.042 13.615C209.332 13.315 209.477 12.935 209.477 12.475C209.477 12.025 209.332 11.65 209.042 11.35C208.752 11.04 208.387 10.885 207.947 10.885H206.102V14.065Z" fill="white"/>
<path d="M220.574 5.29004C222.154 5.29004 223.459 5.81504 224.489 6.86504C225.519 7.89504 226.034 9.19004 226.034 10.75C226.034 12.3 225.519 13.595 224.489 14.635C223.459 15.685 222.154 16.21 220.574 16.21C219.624 16.21 218.749 15.99 217.949 15.55C217.149 15.1 216.524 14.495 216.074 13.735L217.859 12.7C218.109 13.16 218.474 13.525 218.954 13.795C219.444 14.055 219.984 14.185 220.574 14.185C221.414 14.185 222.124 13.965 222.704 13.525C223.294 13.075 223.679 12.47 223.859 11.71H219.179V9.77504H223.859C223.679 9.01504 223.294 8.41504 222.704 7.97504C222.124 7.52504 221.414 7.30004 220.574 7.30004C219.984 7.30004 219.449 7.43504 218.969 7.70504C218.489 7.96504 218.119 8.33004 217.859 8.80004L216.074 7.76504C216.524 7.00504 217.149 6.40504 217.949 5.96504C218.759 5.51504 219.634 5.29004 220.574 5.29004Z" fill="white"/>
<path d="M231.654 10.6L235.689 16H233.304L229.554 11.08V16H227.484V5.50004H229.554V10.135L233.154 5.50004H235.539L231.654 10.6Z" fill="white"/>
<path d="M240.799 16.21C239.229 16.21 237.924 15.685 236.884 14.635C235.854 13.595 235.339 12.3 235.339 10.75C235.339 9.19004 235.854 7.89504 236.884 6.86504C237.924 5.81504 239.229 5.29004 240.799 5.29004C241.749 5.29004 242.624 5.51504 243.424 5.96504C244.234 6.40504 244.864 7.00504 245.314 7.76504L243.529 8.80004C243.269 8.33004 242.899 7.96504 242.419 7.70504C241.939 7.43504 241.399 7.30004 240.799 7.30004C239.779 7.30004 238.954 7.62004 238.324 8.26004C237.704 8.91004 237.394 9.74004 237.394 10.75C237.394 11.75 237.704 12.575 238.324 13.225C238.954 13.865 239.779 14.185 240.799 14.185C241.399 14.185 241.939 14.055 242.419 13.795C242.909 13.525 243.279 13.16 243.529 12.7L245.314 13.735C244.864 14.495 244.234 15.1 243.424 15.55C242.624 15.99 241.749 16.21 240.799 16.21Z" fill="white"/>
<path d="M246.585 5.50004H254.43V16H252.36V7.48004H248.655V16H246.585V5.50004Z" fill="white"/>
<path d="M258.455 11.665V14.02H262.88V16H256.385V5.50004H262.805V7.48004H258.455V9.71504H262.43V11.665H258.455Z" fill="white"/>
<path d="M264.339 5.50004H268.254C269.254 5.50004 270.104 5.84004 270.804 6.52004C271.494 7.20004 271.839 8.03504 271.839 9.02504C271.839 10.015 271.494 10.85 270.804 11.53C270.104 12.21 269.254 12.55 268.254 12.55H266.409V16H264.339V5.50004ZM266.409 10.615H268.254C268.694 10.615 269.059 10.465 269.349 10.165C269.639 9.85504 269.784 9.47504 269.784 9.02504C269.784 8.56504 269.639 8.18504 269.349 7.88504C269.059 7.58504 268.694 7.43504 268.254 7.43504H266.409V10.615Z" fill="white"/>
<path d="M272.217 5.50004H279.942V7.48004H277.107V16H275.037V7.48004H272.217V5.50004Z" fill="white"/>
<path d="M289.332 14.635C288.272 15.685 286.982 16.21 285.462 16.21C283.942 16.21 282.652 15.685 281.592 14.635C280.542 13.565 280.017 12.27 280.017 10.75C280.017 9.22004 280.542 7.93004 281.592 6.88004C282.652 5.82004 283.942 5.29004 285.462 5.29004C286.982 5.29004 288.272 5.82004 289.332 6.88004C290.392 7.93004 290.922 9.22004 290.922 10.75C290.922 12.28 290.392 13.575 289.332 14.635ZM283.047 13.225C283.687 13.865 284.492 14.185 285.462 14.185C286.432 14.185 287.237 13.865 287.877 13.225C288.527 12.575 288.852 11.75 288.852 10.75C288.852 9.75004 288.527 8.92504 287.877 8.27504C287.227 7.62504 286.422 7.30004 285.462 7.30004C284.502 7.30004 283.697 7.62504 283.047 8.27504C282.397 8.92504 282.072 9.75004 282.072 10.75C282.072 11.75 282.397 12.575 283.047 13.225Z" fill="white"/>
<path d="M300.521 5.50004H302.651V16H300.596V9.19004L297.641 14.065H297.401L294.446 9.20504V16H292.376V5.50004H294.506L297.521 10.465L300.521 5.50004Z" fill="white"/>
<path d="M308.358 5.50004H316.203V16H314.133V7.48004H310.428V16H308.358V5.50004Z" fill="white"/>
<path d="M326.993 14.635C325.933 15.685 324.643 16.21 323.123 16.21C321.603 16.21 320.313 15.685 319.253 14.635C318.203 13.565 317.678 12.27 317.678 10.75C317.678 9.22004 318.203 7.93004 319.253 6.88004C320.313 5.82004 321.603 5.29004 323.123 5.29004C324.643 5.29004 325.933 5.82004 326.993 6.88004C328.053 7.93004 328.583 9.22004 328.583 10.75C328.583 12.28 328.053 13.575 326.993 14.635ZM320.708 13.225C321.348 13.865 322.153 14.185 323.123 14.185C324.093 14.185 324.898 13.865 325.538 13.225C326.188 12.575 326.513 11.75 326.513 10.75C326.513 9.75004 326.188 8.92504 325.538 8.27504C324.888 7.62504 324.083 7.30004 323.123 7.30004C322.163 7.30004 321.358 7.62504 320.708 8.27504C320.058 8.92504 319.733 9.75004 319.733 10.75C319.733 11.75 320.058 12.575 320.708 13.225Z" fill="white"/>
<path d="M341.933 5.50004H344.063V16H342.008V9.19004L339.053 14.065H338.813L335.858 9.20504V16H333.788V5.50004H335.918L338.933 10.465L341.933 5.50004Z" fill="white"/>
<path d="M355.019 16H352.769L352.139 14.11H347.954L347.324 16H345.089L348.764 5.50004H351.329L355.019 16ZM350.054 7.88504L348.614 12.175H351.494L350.054 7.88504Z" fill="white"/>
<path d="M356.039 5.50004H359.954C360.954 5.50004 361.804 5.84004 362.504 6.52004C363.194 7.20004 363.539 8.03504 363.539 9.02504C363.539 10.015 363.194 10.85 362.504 11.53C361.804 12.21 360.954 12.55 359.954 12.55H358.109V16H356.039V5.50004ZM358.109 10.615H359.954C360.394 10.615 360.759 10.465 361.049 10.165C361.339 9.85504 361.484 9.47504 361.484 9.02504C361.484 8.56504 361.339 8.18504 361.049 7.88504C360.759 7.58504 360.394 7.43504 359.954 7.43504H358.109V10.615Z" fill="white"/>
<path d="M369.056 10.6L373.091 16H370.706L366.956 11.08V16H364.886V5.50004H366.956V10.135L370.556 5.50004H372.941L369.056 10.6Z" fill="white"/>
<path d="M376.185 11.665V14.02H380.61V16H374.115V5.50004H380.535V7.48004H376.185V9.71504H380.16V11.665H376.185Z" fill="white"/>
<path d="M381.289 5.50004H389.014V7.48004H386.179V16H384.109V7.48004H381.289V5.50004Z" fill="white"/>
<path d="M398.314 16H396.244V9.59504L391.744 16H390.169V5.50004H392.239V11.92L396.739 5.50004H398.314V16Z" fill="white"/>
<path d="M406.232 9.67004V5.50004H408.287V16H406.232V11.65H402.332V16H400.262V5.50004H402.332V9.67004H406.232Z" fill="white"/>
<path d="M410.238 5.50004H416.208V7.48004H412.308V16H410.238V5.50004Z" fill="white"/>
<path d="M421.092 10.57L423.162 5.50004H425.232L422.082 13.105C421.242 15.145 419.862 16.11 417.942 16V14.065C418.492 14.115 418.937 14.04 419.277 13.84C419.627 13.64 419.922 13.305 420.162 12.835L416.727 5.50004H418.797L421.092 10.57Z" fill="white"/>
<path d="M436.446 10.555C437.366 11.085 437.826 11.885 437.826 12.955C437.826 13.845 437.511 14.575 436.881 15.145C436.251 15.715 435.476 16 434.556 16H430.101V5.50004H434.241C435.131 5.50004 435.886 5.78004 436.506 6.34004C437.126 6.90004 437.436 7.60504 437.436 8.45504C437.436 9.32504 437.106 10.025 436.446 10.555ZM434.241 7.43504H432.171V9.74504H434.241C434.561 9.74504 434.826 9.63504 435.036 9.41504C435.256 9.19504 435.366 8.92004 435.366 8.59004C435.366 8.26004 435.261 7.98504 435.051 7.76504C434.841 7.54504 434.571 7.43504 434.241 7.43504ZM432.171 14.065H434.556C434.906 14.065 435.196 13.95 435.426 13.72C435.656 13.48 435.771 13.18 435.771 12.82C435.771 12.47 435.656 12.18 435.426 11.95C435.196 11.71 434.906 11.59 434.556 11.59H432.171V14.065Z" fill="white"/>
<path d="M447.103 10.6L451.138 16H448.753L445.003 11.08V16H442.933V5.50004H445.003V10.135L448.603 5.50004H450.988L447.103 10.6Z" fill="white"/>
<path d="M460.307 16H458.237V9.59504L453.737 16H452.162V5.50004H454.232V11.92L458.732 5.50004H460.307V16Z" fill="white"/>
<path d="M461.474 5.50004H469.199V7.48004H466.364V16H464.294V7.48004H461.474V5.50004Z" fill="white"/>
<path d="M478.593 16H476.343L475.713 14.11H471.528L470.898 16H468.663L472.338 5.50004H474.903L478.593 16ZM473.628 7.88504L472.188 12.175H475.068L473.628 7.88504Z" fill="white"/>
<path d="M481.683 11.665V14.02H486.108V16H479.613V5.50004H486.033V7.48004H481.683V9.71504H485.658V11.665H481.683Z" fill="white"/>
<path d="M489.877 14.92C489.877 15.27 489.752 15.57 489.502 15.82C489.252 16.07 488.952 16.195 488.602 16.195C488.252 16.195 487.952 16.07 487.702 15.82C487.452 15.57 487.327 15.27 487.327 14.92C487.327 14.57 487.452 14.27 487.702 14.02C487.952 13.77 488.252 13.645 488.602 13.645C488.952 13.645 489.252 13.77 489.502 14.02C489.752 14.27 489.877 14.57 489.877 14.92Z" fill="white"/>
<path opacity="0.5" fill-rule="evenodd" clip-rule="evenodd" d="M129 39.6133C139.274 39.6133 147.603 31.5037 147.603 21.5C147.603 11.4963 139.274 3.38669 129 3.38669C118.726 3.38669 110.397 11.4963 110.397 21.5C110.397 31.5037 118.726 39.6133 129 39.6133ZM129 40C139.493 40 148 31.7173 148 21.5C148 11.2827 139.493 3 129 3C118.507 3 110 11.2827 110 21.5C110 31.7173 118.507 40 129 40Z" fill="white"/>
<path fill-rule="evenodd" clip-rule="evenodd" d="M118 18.7858C118 15.0387 121.693 12 126.25 12C130.276 12 133.624 14.3737 134.35 17.5114C133.948 17.4625 133.541 17.4286 133.125 17.4286C128.575 17.4286 124.875 20.4727 124.875 24.2144C124.875 24.65 124.93 25.0748 125.026 25.4887C124.321 25.4032 123.661 25.22 123.026 24.9974L120.062 26.2501L121.15 24.1031C119.235 22.8626 118 20.9463 118 18.7858ZM122.469 16.0715C122.469 16.6333 122.931 17.0893 123.5 17.0893C124.069 17.0893 124.531 16.6333 124.531 16.0715C124.531 15.5096 124.069 15.0536 123.5 15.0536C122.931 15.0536 122.469 15.5096 122.469 16.0715ZM127.969 16.0715C127.969 16.6333 128.431 17.0893 129 17.0893C129.569 17.0893 130.031 16.6333 130.031 16.0715C130.031 15.5096 129.569 15.0536 129 15.0536C128.431 15.0536 127.969 15.5096 127.969 16.0715ZM133.125 18.7856C136.921 18.7856 140 21.2163 140 24.2142C140 25.95 138.95 27.4782 137.344 28.4716L138.625 31L134.919 29.4325C134.343 29.556 133.749 29.6428 133.125 29.6428C129.329 29.6428 126.25 27.2122 126.25 24.2142C126.25 21.2163 129.329 18.7856 133.125 18.7856ZM130.031 22.8571C130.031 23.4189 130.493 23.875 131.063 23.875C131.632 23.875 132.094 23.4189 132.094 22.8571C132.094 22.2952 131.632 21.8392 131.063 21.8392C130.493 21.8392 130.031 22.2952 130.031 22.8571ZM134.156 22.8571C134.156 23.4189 134.618 23.875 135.188 23.875C135.757 23.875 136.219 23.4189 136.219 22.8571C136.219 22.2952 135.757 21.8392 135.188 21.8392C134.618 21.8392 134.156 22.2952 134.156 22.8571Z" fill="white"/>
<path opacity="0.5" fill-rule="evenodd" clip-rule="evenodd" d="M74 40.6029C84.2741 40.6029 92.6029 32.2741 92.6029 22C92.6029 11.7259 84.2741 3.39714 74 3.39714C63.7259 3.39714 55.3971 11.7259 55.3971 22C55.3971 32.2741 63.7259 40.6029 74 40.6029ZM74 41C84.4934 41 93 32.4934 93 22C93 11.5066 84.4934 3 74 3C63.5066 3 55 11.5066 55 22C55 32.4934 63.5066 41 74 41Z" fill="white"/>
<path fill-rule="evenodd" clip-rule="evenodd" d="M70.4487 14C68.9589 18.0744 67.4481 19.0505 67.4481 19.0505L67.4481 19.0505C67.4481 19.0505 68.7464 19.6659 69.2784 19.9629C70.0231 19.1779 70.6191 18.4139 70.6191 18.4139C70.6191 18.4139 71.4704 18.032 71.9598 17.841C71.1235 19.6872 69.8956 20.9603 69.8956 20.9603L70.9595 21.8941C71.5341 21.3211 72.5555 20.366 72.5555 20.366H73.492V21.9788H69.8104V23.2521L73.5132 23.2732C73.5132 23.2732 73.5343 25.0983 73.5343 26.4349C71.7957 26.4548 71.8365 25.5964 71.8513 25.2867C71.8524 25.2628 71.8534 25.2422 71.8534 25.2255C71.8534 24.9922 71.9809 24.0796 71.9809 24.0796L69.3848 24.0584C69.3848 24.0584 69.2358 24.5678 69.2358 25.183C69.2358 27.0081 70.1295 27.6446 70.7468 27.9203C71.364 28.196 72.3854 28.154 72.3854 28.154C72.7473 28.1751 74.0907 28.2015 76.1945 27.5811C77.7056 27.1353 78.3225 26.4349 78.3225 26.4349L78.7055 27.8143L80.77 27.0081L79.3867 23.5916C79.3867 23.5916 78.2801 23.9735 77.7267 24.1007C77.9005 24.6554 77.9182 24.7995 77.9536 25.0883C77.9615 25.153 77.9704 25.2249 77.982 25.3104C77.1096 25.9894 76.5138 25.9894 76.5138 25.9894V23.2945H80.1102V22.0212H76.5138V20.3237H80.1526V19.0505C80.1526 19.0505 74.4922 19.0293 73.6409 19.0505C74.2581 18.3715 74.5985 17.6711 74.5985 17.6711C74.5985 17.6711 73.8536 17.4801 73.4706 17.3527C74.4708 16.9497 76.4712 16.4616 76.7903 16.3981C77.1096 16.3342 78.1524 16.1646 79.4716 16.4192C80.6517 16.6469 80.8615 17.5026 80.9536 17.8783C80.9644 17.9227 80.9737 17.9603 80.9827 17.9895C81.0679 18.2654 81.0464 26.4138 81.0253 26.8382C81.0041 27.2627 80.6634 27.772 80.6634 27.772C80.2803 28.2176 79.5568 28.5782 78.7055 28.5782C77.8545 28.5782 76.7691 28.1749 76.7691 28.1749L76.4072 29.6605C76.4072 29.6605 77.3437 30 79.11 30C80.8763 30 81.8765 29.618 82.7064 28.833C83.5363 28.0479 83.664 27.1564 83.664 27.1564C84.2598 23.3159 83.9407 19.0716 83.6429 17.7985C83.345 16.5255 82.153 15.7402 80.9827 15.3582C79.8121 14.9763 78.3011 15.0398 78.3011 15.0398C75.5348 15.0398 72.3212 16.0159 72.3212 16.0159L73.0235 14.7215C73.0235 14.7215 70.8741 14.1485 70.4487 14ZM68.4916 15.91C68.4916 16.8357 67.6532 17.5863 66.6189 17.5863C65.5849 17.5863 64.7463 16.8357 64.7463 15.91C64.7463 14.9842 65.5849 14.2336 66.6189 14.2336C67.6532 14.2336 68.4916 14.9842 68.4916 15.91ZM63.8939 20.1115L65.043 18.3291C65.043 18.3291 66.6602 19.5808 67.1498 20.0055L67.1912 20.0413C67.6867 20.4701 68.5113 21.1836 68.4905 22.3184C68.4691 23.4854 68.1286 24.5041 67.8519 25.2044C67.5755 25.9045 65.7665 29.5968 65.7665 29.5968L63 27.8779C63 27.8779 65.6606 25.4239 66.6816 23.9311C67.0009 23.4642 67.3837 22.2337 66.2985 21.5969C65.2131 20.9604 63.8939 20.1115 63.8939 20.1115Z" fill="white"/>
<path opacity="0.5" fill-rule="evenodd" clip-rule="evenodd" d="M19.1987 40.6602C29.5803 40.6602 37.9962 32.2443 37.9962 21.8628C37.9962 11.4813 29.5803 3.06536 19.1987 3.06536C8.81719 3.06536 0.401294 11.4813 0.401294 21.8628C0.401294 32.2443 8.81719 40.6602 19.1987 40.6602ZM19.1987 41.0615C29.8019 41.0615 38.3975 32.466 38.3975 21.8628C38.3975 11.2596 29.8019 2.66406 19.1987 2.66406C8.59556 2.66406 0 11.2596 0 21.8628C0 32.466 8.59556 41.0615 19.1987 41.0615Z" fill="white"/>
<path fill-rule="evenodd" clip-rule="evenodd" d="M22.9383 19.3378C24.1464 20.201 25.6267 20.709 27.2252 20.709V17.6343C26.9226 17.6344 26.6209 17.6028 26.3249 17.5401V19.9604C24.7265 19.9604 23.2465 19.4524 22.038 18.5892V24.8637C22.038 28.0025 19.4922 30.5468 16.3519 30.5468C15.1803 30.5468 14.0912 30.1928 13.1865 29.5856C14.2191 30.6408 15.659 31.2954 17.252 31.2954C20.3925 31.2954 22.9384 28.7511 22.9384 25.6122V19.3378H22.9383ZM24.0489 16.2359C23.4314 15.5617 23.026 14.6903 22.9383 13.727V13.3315H22.0851C22.2998 14.5559 23.0323 15.6019 24.0489 16.2359V16.2359ZM15.1727 27.177C14.8277 26.725 14.6413 26.1719 14.6421 25.6032C14.6421 24.1676 15.8066 23.0037 17.2432 23.0037C17.5109 23.0035 17.777 23.0446 18.0322 23.1255V19.9821C17.734 19.9413 17.4331 19.924 17.1322 19.9303V22.377C16.8769 22.2961 16.6107 22.255 16.3429 22.2552C14.9063 22.2552 13.7419 23.4191 13.7419 24.8548C13.7419 25.8699 14.3239 26.7489 15.1727 27.177V27.177Z" fill="#EE1D52"/>
<path fill-rule="evenodd" clip-rule="evenodd" d="M22.0385 18.5892C23.247 19.4524 24.727 19.9604 26.3254 19.9604V17.5401C25.4332 17.3502 24.6433 16.8841 24.0494 16.2359C23.0328 15.6019 22.3003 14.5559 22.0856 13.3315H19.8447V25.612C19.8396 27.0437 18.6771 28.2028 17.2436 28.2028C16.3988 28.2028 15.6484 27.8005 15.1731 27.177C14.3244 26.7489 13.7423 25.8699 13.7423 24.8548C13.7423 23.4191 14.9067 22.2552 16.3433 22.2552C16.6185 22.2552 16.8838 22.298 17.1326 22.377V19.9303C14.0476 19.994 11.5664 22.5135 11.5664 25.6122C11.5664 27.1589 12.1843 28.5612 13.187 29.5857C14.0917 30.1929 15.1808 30.5469 16.3525 30.5469C19.4927 30.5469 22.0385 28.0025 22.0385 24.8638V18.5892Z" fill="white"/>
<path fill-rule="evenodd" clip-rule="evenodd" d="M26.3252 17.5406V16.8861C25.5206 16.8873 24.7318 16.6621 24.0492 16.2362C24.6535 16.8975 25.4492 17.3535 26.3252 17.5406V17.5406ZM22.0854 13.332C22.0649 13.215 22.0492 13.0972 22.0383 12.9789V12.5835H18.9441V24.8641C18.9391 26.2956 17.7767 27.4548 16.3431 27.4548C15.9221 27.4548 15.5248 27.355 15.1729 27.1775C15.6481 27.8009 16.3986 28.2033 17.2434 28.2033C18.6768 28.2033 19.8394 27.0441 19.8445 25.6125V13.332H22.0854ZM17.1325 19.9308V19.2341C16.874 19.1987 16.6133 19.181 16.3524 19.1812C13.2118 19.1812 10.666 21.7256 10.666 24.8641C10.666 26.8318 11.6665 28.5659 13.1869 29.586C12.1842 28.5615 11.5663 27.1593 11.5663 25.6125C11.5663 22.514 14.0474 19.9945 17.1325 19.9308V19.9308Z" fill="#69C9D0"/>
<path d="M165.975 29.4999H173.82V39.9999H171.75V31.4799H168.045V39.9999H165.975V29.4999Z" fill="white"/>
<path d="M175.775 29.4999H179.69C180.69 29.4999 181.54 29.8399 182.24 30.5199C182.93 31.1999 183.275 32.0349 183.275 33.0249C183.275 34.0149 182.93 34.8499 182.24 35.5299C181.54 36.2099 180.69 36.5499 179.69 36.5499H177.845V39.9999H175.775V29.4999ZM177.845 34.6149H179.69C180.13 34.6149 180.495 34.4649 180.785 34.1649C181.075 33.8549 181.22 33.4749 181.22 33.0249C181.22 32.5649 181.075 32.1849 180.785 31.8849C180.495 31.5849 180.13 31.4349 179.69 31.4349H177.845V34.6149Z" fill="white"/>
<path d="M193.384 38.6349C192.324 39.6849 191.034 40.2099 189.514 40.2099C187.994 40.2099 186.704 39.6849 185.644 38.6349C184.594 37.5649 184.069 36.2699 184.069 34.7499C184.069 33.2199 184.594 31.9299 185.644 30.8799C186.704 29.8199 187.994 29.2899 189.514 29.2899C191.034 29.2899 192.324 29.8199 193.384 30.8799C194.444 31.9299 194.974 33.2199 194.974 34.7499C194.974 36.2799 194.444 37.5749 193.384 38.6349ZM187.099 37.2249C187.739 37.8649 188.544 38.1849 189.514 38.1849C190.484 38.1849 191.289 37.8649 191.929 37.2249C192.579 36.5749 192.904 35.7499 192.904 34.7499C192.904 33.7499 192.579 32.9249 191.929 32.2749C191.279 31.6249 190.474 31.2999 189.514 31.2999C188.554 31.2999 187.749 31.6249 187.099 32.2749C186.449 32.9249 186.124 33.7499 186.124 34.7499C186.124 35.7499 186.449 36.5749 187.099 37.2249Z" fill="white"/>
<path d="M202.669 28.5399H198.319V26.8599H202.669V28.5399ZM204.574 39.9999H202.504V33.5949L198.004 39.9999H196.429V29.4999H198.499V35.9199L202.999 29.4999H204.574V39.9999Z" fill="white"/>
<path d="M214.592 29.4999V38.0199H215.717V42.0099H213.647V39.9999H207.842V42.0099H205.772V38.0199H206.792C207.372 37.2199 207.662 36.0349 207.662 34.4649V29.4999H214.592ZM209.012 38.0199H212.522V31.4349H209.732V34.4949C209.732 36.0249 209.492 37.1999 209.012 38.0199Z" fill="white"/>
<path d="M225.243 39.9999H223.173V33.5949L218.673 39.9999H217.098V29.4999H219.168V35.9199L223.668 29.4999H225.243V39.9999Z" fill="white"/>
<path d="M239.776 38.6349C238.716 39.6849 237.426 40.2099 235.906 40.2099C234.386 40.2099 233.096 39.6849 232.036 38.6349C230.986 37.5649 230.461 36.2699 230.461 34.7499C230.461 33.2199 230.986 31.9299 232.036 30.8799C233.096 29.8199 234.386 29.2899 235.906 29.2899C237.426 29.2899 238.716 29.8199 239.776 30.8799C240.836 31.9299 241.366 33.2199 241.366 34.7499C241.366 36.2799 240.836 37.5749 239.776 38.6349ZM233.491 37.2249C234.131 37.8649 234.936 38.1849 235.906 38.1849C236.876 38.1849 237.681 37.8649 238.321 37.2249C238.971 36.5749 239.296 35.7499 239.296 34.7499C239.296 33.7499 238.971 32.9249 238.321 32.2749C237.671 31.6249 236.866 31.2999 235.906 31.2999C234.946 31.2999 234.141 31.6249 233.491 32.2749C232.841 32.9249 232.516 33.7499 232.516 34.7499C232.516 35.7499 232.841 36.5749 233.491 37.2249Z" fill="white"/>
<path d="M244.891 33.4749H246.841C247.871 33.4749 248.706 33.7799 249.346 34.3899C249.996 34.9899 250.321 35.7699 250.321 36.7299C250.321 37.6899 249.996 38.4799 249.346 39.0999C248.706 39.6999 247.871 39.9999 246.841 39.9999H242.821V29.4999H249.421V31.4799H244.891V33.4749ZM244.891 38.0649H246.841C247.261 38.0649 247.601 37.9449 247.861 37.7049C248.131 37.4649 248.266 37.1399 248.266 36.7299C248.266 36.3199 248.131 35.9999 247.861 35.7699C247.601 35.5299 247.261 35.4099 246.841 35.4099H244.891V38.0649Z" fill="white"/>
<path d="M254.861 34.5699L256.931 29.4999H259.001L255.851 37.1049C255.011 39.1449 253.631 40.1099 251.711 39.9999V38.0649C252.261 38.1149 252.706 38.0399 253.046 37.8399C253.396 37.6399 253.691 37.3049 253.931 36.8349L250.496 29.4999H252.566L254.861 34.5699Z" fill="white"/>
<path d="M265.596 34.1499V29.4999H267.666V39.9999H265.596V36.1599C264.956 36.4299 264.271 36.5649 263.541 36.5649C262.491 36.5649 261.616 36.2699 260.916 35.6799C260.236 35.0799 259.896 34.2699 259.896 33.2499V29.4999H261.966V32.9799C261.966 33.4799 262.111 33.8749 262.401 34.1649C262.701 34.4449 263.096 34.5849 263.586 34.5849C264.296 34.5849 264.966 34.4399 265.596 34.1499Z" fill="white"/>
<path d="M271.683 35.6649V38.0199H276.108V39.9999H269.613V29.4999H276.033V31.4799H271.683V33.7149H275.658V35.6649H271.683Z" fill="white"/>
<path d="M283.537 33.6699V29.4999H285.592V39.9999H283.537V35.6499H279.637V39.9999H277.567V29.4999H279.637V33.6699H283.537Z" fill="white"/>
<path d="M295.687 39.9999H293.617V33.5949L289.117 39.9999H287.542V29.4999H289.612V35.9199L294.112 29.4999H295.687V39.9999Z" fill="white"/>
<path d="M299.705 35.6649V38.0199H304.13V39.9999H297.635V29.4999H304.055V31.4799H299.705V33.7149H303.68V35.6649H299.705Z" fill="white"/>
<path d="M317.484 39.9999H315.414V33.5949L310.914 39.9999H309.339V29.4999H311.409V35.9199L315.909 29.4999H317.484V39.9999Z" fill="white"/>
<path d="M329.152 33.6699V29.4999H331.207V39.9999H329.152V35.6499H325.252V39.9999H323.182V29.4999H325.252V33.6699H329.152Z" fill="white"/>
<path d="M342.158 39.9999H339.908L339.278 38.1099H335.093L334.463 39.9999H332.228L335.903 29.4999H338.468L342.158 39.9999ZM337.193 31.8849L335.753 36.1749H338.633L337.193 31.8849Z" fill="white"/>
<path d="M347.891 34.1499V29.4999H349.961V39.9999H347.891V36.1599C347.251 36.4299 346.566 36.5649 345.836 36.5649C344.786 36.5649 343.911 36.2699 343.211 35.6799C342.531 35.0799 342.191 34.2699 342.191 33.2499V29.4999H344.261V32.9799C344.261 33.4799 344.406 33.8749 344.696 34.1649C344.996 34.4449 345.391 34.5849 345.881 34.5849C346.591 34.5849 347.261 34.4399 347.891 34.1499Z" fill="white"/>
<path d="M357.878 33.6699V29.4999H359.933V39.9999H357.878V35.6499H353.978V39.9999H351.908V29.4999H353.978V33.6699H357.878Z" fill="white"/>
<path d="M370.028 39.9999H367.958V33.5949L363.458 39.9999H361.883V29.4999H363.953V35.9199L368.453 29.4999H370.028V39.9999Z" fill="white"/>
<path d="M375.726 29.4999H383.571V39.9999H381.501V31.4799H377.796V39.9999H375.726V29.4999Z" fill="white"/>
<path d="M385.526 29.4999H389.441C390.441 29.4999 391.291 29.8399 391.991 30.5199C392.681 31.1999 393.026 32.0349 393.026 33.0249C393.026 34.0149 392.681 34.8499 391.991 35.5299C391.291 36.2099 390.441 36.5499 389.441 36.5499H387.596V39.9999H385.526V29.4999ZM387.596 34.6149H389.441C389.881 34.6149 390.246 34.4649 390.536 34.1649C390.826 33.8549 390.971 33.4749 390.971 33.0249C390.971 32.5649 390.826 32.1849 390.536 31.8849C390.246 31.5849 389.881 31.4349 389.441 31.4349H387.596V34.6149Z" fill="white"/>
<path d="M402.519 39.9999H400.449V33.5949L395.949 39.9999H394.374V29.4999H396.444V35.9199L400.944 29.4999H402.519V39.9999Z" fill="white"/>
<path d="M410.811 34.5549C411.731 35.0849 412.191 35.8849 412.191 36.9549C412.191 37.8449 411.876 38.5749 411.246 39.1449C410.616 39.7149 409.841 39.9999 408.921 39.9999H404.466V29.4999H408.606C409.496 29.4999 410.251 29.7799 410.871 30.3399C411.491 30.8999 411.801 31.6049 411.801 32.4549C411.801 33.3249 411.471 34.0249 410.811 34.5549ZM408.606 31.4349H406.536V33.7449H408.606C408.926 33.7449 409.191 33.6349 409.401 33.4149C409.621 33.1949 409.731 32.9199 409.731 32.5899C409.731 32.2599 409.626 31.9849 409.416 31.7649C409.206 31.5449 408.936 31.4349 408.606 31.4349ZM406.536 38.0649H408.921C409.271 38.0649 409.561 37.9499 409.791 37.7199C410.021 37.4799 410.136 37.1799 410.136 36.8199C410.136 36.4699 410.021 36.1799 409.791 35.9499C409.561 35.7099 409.271 35.5899 408.921 35.5899H406.536V38.0649Z" fill="white"/>
<path d="M412.504 39.9999V38.0799C413.144 38.1699 413.614 38.0399 413.914 37.6899C414.214 37.3299 414.364 36.6699 414.364 35.7099V29.4999H421.504V39.9999H419.449V31.4799H416.419V35.6499C416.419 37.4599 416.004 38.6849 415.174 39.3249C414.464 39.8849 413.574 40.1099 412.504 39.9999Z" fill="white"/>
<path d="M425.521 35.6649V38.0199H429.946V39.9999H423.451V29.4999H429.871V31.4799H425.521V33.7149H429.496V35.6649H425.521Z" fill="white"/>
<path d="M435.575 34.5999L439.61 39.9999H437.225L433.475 35.0799V39.9999H431.405V29.4999H433.475V34.1349L437.075 29.4999H439.46L435.575 34.5999Z" fill="white"/>
<path d="M449.897 39.9999H447.647L447.017 38.1099H442.832L442.202 39.9999H439.967L443.642 29.4999H446.207L449.897 39.9999ZM444.932 31.8849L443.492 36.1749H446.372L444.932 31.8849Z" fill="white"/>
<path d="M449.375 29.4999H457.1V31.4799H454.265V39.9999H452.195V31.4799H449.375V29.4999Z" fill="white"/>
<path d="M460.325 32.9499H462.17C463.17 32.9499 464.02 33.2899 464.72 33.9699C465.41 34.6499 465.755 35.4849 465.755 36.4749C465.755 37.4649 465.41 38.2999 464.72 38.9799C464.02 39.6599 463.17 39.9999 462.17 39.9999H458.255V29.4999H460.325V32.9499ZM460.325 38.0649H462.17C462.61 38.0649 462.975 37.9149 463.265 37.6149C463.555 37.3149 463.7 36.9349 463.7 36.4749C463.7 36.0249 463.555 35.6499 463.265 35.3499C462.975 35.0399 462.61 34.8849 462.17 34.8849H460.325V38.0649Z" fill="white"/>
<path d="M475.023 34.5999L479.058 39.9999H476.673L472.923 35.0799V39.9999H470.853V29.4999H472.923V34.1349L476.523 29.4999H478.908L475.023 34.5999Z" fill="white"/>
<path d="M479.389 39.9999V38.0799C480.029 38.1699 480.499 38.0399 480.799 37.6899C481.099 37.3299 481.249 36.6699 481.249 35.7099V29.4999H488.389V39.9999H486.334V31.4799H483.304V35.6499C483.304 37.4599 482.889 38.6849 482.059 39.3249C481.349 39.8849 480.459 40.1099 479.389 39.9999Z" fill="white"/>
<path d="M498.48 39.9999H496.41V33.5949L491.91 39.9999H490.335V29.4999H492.405V35.9199L496.905 29.4999H498.48V39.9999Z" fill="white"/>
<path d="M502.498 35.6649V38.0199H506.923V39.9999H500.428V29.4999H506.848V31.4799H502.498V33.7149H506.473V35.6649H502.498Z" fill="white"/>
<path d="M514.352 33.6699V29.4999H516.407V39.9999H514.352V35.6499H510.452V39.9999H508.382V29.4999H510.452V33.6699H514.352Z" fill="white"/>
<path d="M517.578 29.4999H525.303V31.4799H522.468V39.9999H520.398V31.4799H517.578V29.4999Z" fill="white"/>
<path d="M534.693 38.6349C533.633 39.6849 532.343 40.2099 530.823 40.2099C529.303 40.2099 528.013 39.6849 526.953 38.6349C525.903 37.5649 525.378 36.2699 525.378 34.7499C525.378 33.2199 525.903 31.9299 526.953 30.8799C528.013 29.8199 529.303 29.2899 530.823 29.2899C532.343 29.2899 533.633 29.8199 534.693 30.8799C535.753 31.9299 536.283 33.2199 536.283 34.7499C536.283 36.2799 535.753 37.5749 534.693 38.6349ZM528.408 37.2249C529.048 37.8649 529.853 38.1849 530.823 38.1849C531.793 38.1849 532.598 37.8649 533.238 37.2249C533.888 36.5749 534.213 35.7499 534.213 34.7499C534.213 33.7499 533.888 32.9249 533.238 32.2749C532.588 31.6249 531.783 31.2999 530.823 31.2999C529.863 31.2999 529.058 31.6249 528.408 32.2749C527.758 32.9249 527.433 33.7499 527.433 34.7499C527.433 35.7499 527.758 36.5749 528.408 37.2249Z" fill="white"/>
<path d="M544.083 34.5549C545.003 35.0849 545.463 35.8849 545.463 36.9549C545.463 37.8449 545.148 38.5749 544.518 39.1449C543.888 39.7149 543.113 39.9999 542.193 39.9999H537.738V29.4999H541.878C542.768 29.4999 543.523 29.7799 544.143 30.3399C544.763 30.8999 545.073 31.6049 545.073 32.4549C545.073 33.3249 544.743 34.0249 544.083 34.5549ZM541.878 31.4349H539.808V33.7449H541.878C542.198 33.7449 542.463 33.6349 542.673 33.4149C542.893 33.1949 543.003 32.9199 543.003 32.5899C543.003 32.2599 542.898 31.9849 542.688 31.7649C542.478 31.5449 542.208 31.4349 541.878 31.4349ZM539.808 38.0649H542.193C542.543 38.0649 542.833 37.9499 543.063 37.7199C543.293 37.4799 543.408 37.1799 543.408 36.8199C543.408 36.4699 543.293 36.1799 543.063 35.9499C542.833 35.7099 542.543 35.5899 542.193 35.5899H539.808V38.0649Z" fill="white"/>
<path d="M558.715 39.9999H556.645V33.5949L552.145 39.9999H550.57V29.4999H552.64V35.9199L557.14 29.4999H558.715V39.9999Z" fill="white"/>
<path d="M566.11 34.5699C567.11 35.0899 567.61 35.9199 567.61 37.0599C567.61 37.9899 567.255 38.7499 566.545 39.3399C565.845 39.9199 564.93 40.2099 563.8 40.2099C561.85 40.2099 560.545 39.3849 559.885 37.7349L561.67 36.7299C561.98 37.7499 562.69 38.2599 563.8 38.2599C564.36 38.2599 564.79 38.1449 565.09 37.9149C565.4 37.6749 565.555 37.3449 565.555 36.9249C565.555 36.5049 565.405 36.1799 565.105 35.9499C564.805 35.7099 564.385 35.5899 563.845 35.5899H562.54V33.7449H563.53C564.05 33.7449 564.455 33.6349 564.745 33.4149C565.035 33.1849 565.18 32.8749 565.18 32.4849C565.18 32.0849 565.05 31.7749 564.79 31.5549C564.54 31.3349 564.175 31.2249 563.695 31.2249C562.795 31.2249 562.165 31.6649 561.805 32.5449L560.05 31.5249C560.76 30.0349 561.975 29.2899 563.695 29.2899C564.725 29.2899 565.575 29.5699 566.245 30.1299C566.905 30.6799 567.235 31.4199 567.235 32.3499C567.235 33.2899 566.86 34.0299 566.11 34.5699Z" fill="white"/>
<path d="M576.874 34.5999L580.909 39.9999H578.524L574.774 35.0799V39.9999H572.704V29.4999H574.774V34.1349L578.374 29.4999H580.759L576.874 34.5999Z" fill="white"/>
<path d="M590.077 39.9999H588.007V33.5949L583.507 39.9999H581.932V29.4999H584.002V35.9199L588.502 29.4999H590.077V39.9999Z" fill="white"/>
<path d="M591.245 29.4999H598.97V31.4799H596.135V39.9999H594.065V31.4799H591.245V29.4999Z" fill="white"/>
<path d="M608.364 39.9999H606.114L605.484 38.1099H601.299L600.669 39.9999H598.434L602.109 29.4999H604.674L608.364 39.9999ZM603.399 31.8849L601.959 36.1749H604.839L603.399 31.8849Z" fill="white"/>
<path d="M612.71 29.4999H616.91V39.9999H614.84V36.3549H613.655L611.24 39.9999H608.915L611.48 36.1299C610.81 35.8899 610.265 35.4799 609.845 34.8999C609.425 34.3199 609.215 33.6799 609.215 32.9799C609.215 32.0199 609.555 31.1999 610.235 30.5199C610.915 29.8399 611.74 29.4999 612.71 29.4999ZM612.71 34.5399H614.84V31.4349H612.71C612.32 31.4349 611.985 31.5849 611.705 31.8849C611.425 32.1849 611.285 32.5499 611.285 32.9799C611.285 33.4099 611.425 33.7799 611.705 34.0899C611.985 34.3899 612.32 34.5399 612.71 34.5399Z" fill="white"/>
<rect x="649.5" y="0.5" width="143" height="39" rx="19.5" stroke="white"/>
<path d="M681.264 16.1999H688.586V25.9999H686.654V18.0479H683.196V25.9999H681.264V16.1999Z" fill="white"/>
<path d="M698.656 24.7259C697.667 25.7059 696.463 26.1959 695.044 26.1959C693.625 26.1959 692.421 25.7059 691.432 24.7259C690.452 23.7272 689.962 22.5186 689.962 21.0999C689.962 19.6719 690.452 18.4679 691.432 17.4879C692.421 16.4986 693.625 16.0039 695.044 16.0039C696.463 16.0039 697.667 16.4986 698.656 17.4879C699.645 18.4679 700.14 19.6719 700.14 21.0999C700.14 22.5279 699.645 23.7366 698.656 24.7259ZM692.79 23.4099C693.387 24.0072 694.139 24.3059 695.044 24.3059C695.949 24.3059 696.701 24.0072 697.298 23.4099C697.905 22.8032 698.208 22.0332 698.208 21.0999C698.208 20.1666 697.905 19.3966 697.298 18.7899C696.691 18.1832 695.94 17.8799 695.044 17.8799C694.148 17.8799 693.397 18.1832 692.79 18.7899C692.183 19.3966 691.88 20.1666 691.88 21.0999C691.88 22.0332 692.183 22.8032 692.79 23.4099Z" fill="white"/>
<path d="M708.593 16.1999V24.1519H709.643V27.8759H707.711V25.9999H702.293V27.8759H700.361V24.1519H701.313C701.854 23.4052 702.125 22.2992 702.125 20.8339V16.1999H708.593ZM703.385 24.1519H706.661V18.0059H704.057V20.8619C704.057 22.2899 703.833 23.3866 703.385 24.1519Z" fill="white"/>
<path d="M710.932 16.1999H714.586C715.519 16.1999 716.312 16.5172 716.966 17.1519C717.61 17.7866 717.932 18.5659 717.932 19.4899C717.932 20.4139 717.61 21.1932 716.966 21.8279C716.312 22.4626 715.519 22.7799 714.586 22.7799H712.864V25.9999H710.932V16.1999ZM712.864 20.9739H714.586C714.996 20.9739 715.337 20.8339 715.608 20.5539C715.878 20.2646 716.014 19.9099 716.014 19.4899C716.014 19.0606 715.878 18.7059 715.608 18.4259C715.337 18.1459 714.996 18.0059 714.586 18.0059H712.864V20.9739Z" fill="white"/>
<path d="M727.367 24.7259C726.378 25.7059 725.174 26.1959 723.755 26.1959C722.336 26.1959 721.132 25.7059 720.143 24.7259C719.163 23.7272 718.673 22.5186 718.673 21.0999C718.673 19.6719 719.163 18.4679 720.143 17.4879C721.132 16.4986 722.336 16.0039 723.755 16.0039C725.174 16.0039 726.378 16.4986 727.367 17.4879C728.356 18.4679 728.851 19.6719 728.851 21.0999C728.851 22.5279 728.356 23.7366 727.367 24.7259ZM721.501 23.4099C722.098 24.0072 722.85 24.3059 723.755 24.3059C724.66 24.3059 725.412 24.0072 726.009 23.4099C726.616 22.8032 726.919 22.0332 726.919 21.0999C726.919 20.1666 726.616 19.3966 726.009 18.7899C725.402 18.1832 724.651 17.8799 723.755 17.8799C722.859 17.8799 722.108 18.1832 721.501 18.7899C720.894 19.3966 720.591 20.1666 720.591 21.0999C720.591 22.0332 720.894 22.8032 721.501 23.4099Z" fill="white"/>
<path d="M732.141 19.9099H733.961C734.922 19.9099 735.702 20.1946 736.299 20.7639C736.906 21.3239 737.209 22.0519 737.209 22.9479C737.209 23.8439 736.906 24.5812 736.299 25.1599C735.702 25.7199 734.922 25.9999 733.961 25.9999H730.209V16.1999H736.369V18.0479H732.141V19.9099ZM732.141 24.1939H733.961C734.353 24.1939 734.67 24.0819 734.913 23.8579C735.165 23.6339 735.291 23.3306 735.291 22.9479C735.291 22.5652 735.165 22.2666 734.913 22.0519C734.67 21.8279 734.353 21.7159 733.961 21.7159H732.141V24.1939Z" fill="white"/>
<path d="M743.97 20.0919V16.1999H745.888V25.9999H743.97V21.9399H740.33V25.9999H738.398V16.1999H740.33V20.0919H743.97Z" fill="white"/>
<path d="M749.641 21.9539V24.1519H753.771V25.9999H747.709V16.1999H753.701V18.0479H749.641V20.1339H753.351V21.9539H749.641Z" fill="white"/>
<path d="M757.065 21.9539V24.1519H761.195V25.9999H755.133V16.1999H761.125V18.0479H757.065V20.1339H760.775V21.9539H757.065Z" fill="white"/>
</svg>
