<svg width="50" height="52" viewBox="0 0 50 52" fill="none" xmlns="http://www.w3.org/2000/svg">
<g clip-path="url(#clip0)">
<path d="M10.3952 27.8628C15.4939 26.7669 14.7978 20.6638 14.6485 19.3302C14.3972 17.2733 11.9807 13.6813 8.70176 13.9683C4.57347 14.3363 3.97083 20.3024 3.97083 20.3024C3.41162 23.065 5.30504 28.9614 10.3952 27.8628ZM19.8636 17.632C22.6781 17.632 24.9531 14.3869 24.9531 10.3783C24.9531 6.36907 22.6781 3.12927 19.8636 3.12927C17.0478 3.12927 14.7669 6.36907 14.7669 10.3783C14.7669 14.3869 17.0472 17.632 19.8636 17.632ZM31.9978 18.1092C35.7649 18.6029 38.1794 14.5818 38.6623 11.5348C39.1557 8.49185 36.7215 4.95256 34.0603 4.34502C31.3873 3.73023 28.0504 8.01135 27.7498 10.8042C27.3833 14.2204 28.2347 17.6267 31.9978 18.1092ZM46.9182 23.2283C46.9182 21.7709 45.7123 17.3779 41.2208 17.3779C36.7215 17.3779 36.1261 21.5235 36.1261 24.4526C36.1261 27.2487 36.359 31.1474 41.9471 31.0263C47.53 30.9025 46.9182 24.6954 46.9182 23.2283ZM41.2208 36.0216C41.2208 36.0216 35.3972 31.514 31.9978 26.6405C27.3827 19.454 20.8333 22.3811 18.6439 26.0303C16.461 29.6888 13.0675 31.9991 12.582 32.6126C12.0919 33.2136 5.54781 36.7516 6.99978 43.2114C8.45505 49.6666 13.5583 49.5442 13.5583 49.5442C13.5583 49.5442 17.3195 49.9122 21.6814 48.936C26.0524 47.9625 29.8129 49.1756 29.8129 49.1756C29.8129 49.1756 40.009 52.5964 42.7952 46.0141C45.5853 39.4371 41.2208 36.0216 41.2208 36.0216Z" fill="#006CB7"/>
<path d="M20.7682 29.7374V34.0738H17.2366C17.2366 34.0738 13.707 34.3667 12.4715 38.3694C12.0406 41.0418 12.8518 42.6157 12.9932 42.952C13.136 43.2877 14.2768 45.2426 17.1412 45.816H23.7682V29.7848L20.7682 29.7374ZM20.7149 43.185H18.0452C18.0452 43.185 16.1853 43.0883 15.6189 40.9457C15.3268 39.9966 15.6623 38.9 15.8097 38.4688C15.9445 38.037 16.5689 37.0391 17.8564 36.6554H20.7143L20.7149 43.185Z" fill="white"/>
<path d="M25.3926 34.4629V42.904C25.3926 42.904 25.5307 45.005 28.4913 45.7699H36.1176V34.4622H32.8261V42.9514H29.6847C29.6847 42.9514 28.6807 42.8052 28.4919 41.9976V34.4128L25.3926 34.4629Z" fill="white"/>
</g>
<defs>
<clipPath id="clip0">
<rect width="50" height="52" fill="white"/>
</clipPath>
</defs>
</svg>
