<svg xmlns="http://www.w3.org/2000/svg" viewBox="0 3 114 44" width="154" height="62">
    <title>logo</title>
    <path d="M44.8 13.8h-3.3l-.8 3.8H44c1 0 1.5-.1 1.9-.2.7-.3 1.2-1 1.3-1.8 0-1.1-.9-1.8-2.4-1.8zm-1.4 8.1h-3.5l-.9 4.2h4c1.8 0 2.8-.7 2.9-2.2 0-1.2-.9-2-2.5-2zm19.7-6.1l-3 6.6h3.8l-.4-6.9"></path>
    <path d="M0 0v37h114.4V0H0zm6.3 26.1L9.7 9.3h6.1l-3.4 16.8H6.3zm17.3 0l-3.2-7.8-.2-1.2s-.2 1.4-.4 2.6l-1.3 6.4h-4.4l3.4-16.9h5.6l2.9 7 .2 1.4 1.7-8.3h4.2l-3.4 16.8h-5.1zm25.8 3.4c-1.2 1-2.9 1.4-5.1 1.4H31.7L36 9.2h10c2.4 0 3.5.2 4.7.8 1.8.9 2.8 2.7 2.7 4.6-.1 2.7-1.8 4.5-4.8 5.2 1.2.5 1.7.8 2.2 1.4.8.9 1.3 2.2 1.2 3.4-.2 1.9-1.2 3.9-2.6 4.9zM64.8 31l-.4-4.4h-6.2l-2 4.4h-5.4L61.2 9.3h7.3l3 21.6h-6.7zm24.4-6c-.3 2.5-2.1 4.4-4.1 5.4-1.8.9-4.2 1.4-6.8 1-3.8-.5-5.8-2.4-6.8-4.6l4.8-2.3c.4 1.2 1.5 2.1 3 2.3 1.7.3 2.7-.5 2.9-1.5.1-.7-.2-1.4-1.9-2.3-.2-.2-1.2-.7-2-1.1-2.8-1.5-5-3.8-4.8-6.7.2-2.5 1.9-4.4 3.9-5.5 1.8-.9 3.9-1.2 6.5-.9 3.8.4 6 2.1 7.1 4.1-2.2 1.2-4.5 2.6-4.5 2.6-.4-1.3-1.4-2.1-2.9-2.3-1.7-.2-2.9.6-3 1.6-.1.5.1 1.1 1.3 1.8.2.1.9.6 2.9 1.6 2.3 1.3 4.8 3.7 4.4 6.8zm18.1-11.1h-8.2l-.7 3.8h6.7l-.8 4.1h-6.7l-.8 4h8.6l-.9 5h-15l4-21.6h14.7l-.9 4.7z"></path>
</svg>