<svg width="87" height="87" viewBox="0 0 87 87" fill="none" xmlns="http://www.w3.org/2000/svg">
<circle cx="43.5" cy="43.5" r="43.5" fill="#54353A" fill-opacity="0.1"/>
<g clip-path="url(#clip0)">
<path d="M62.8939 43.4656C62.8939 54.4306 54.005 63.3194 43.0401 63.3194C32.0751 63.3194 23.1862 54.4306 23.1862 43.4656C23.1862 32.5007 32.0751 23.6118 43.0401 23.6118C54.005 23.6118 62.8939 32.5007 62.8939 43.4656Z" fill="#CB2023"/>
<path d="M43.0401 23.6118V63.3194C54.005 63.3194 62.8939 54.4306 62.8939 43.4656C62.8939 32.5004 54.005 23.6118 43.0401 23.6118Z" fill="#CC1237"/>
<path d="M26.2695 32.8357C24.3174 35.909 23.1862 39.5549 23.1862 43.4655C23.1862 54.4304 32.0748 63.3193 43.0401 63.3193C50.1034 63.3193 56.3044 59.6301 59.8238 54.0741L26.2695 32.8357Z" fill="#727070"/>
<path d="M43.0452 43.4539L26.2695 32.8357C24.3174 35.909 23.1862 39.5549 23.1862 43.4655C23.1862 47.5273 24.4068 51.3036 26.5002 54.4493L43.0452 43.4539Z" fill="#F9D725"/>
<path d="M26.2695 32.8357C24.3174 35.909 23.1862 39.5549 23.1862 43.4655C23.1862 44.9007 23.3397 46.2997 23.6291 47.6484L43.049 43.4562L26.2695 32.8357Z" fill="#FFE3DC"/>
<path d="M26.2695 32.8357C24.3174 35.909 23.1862 39.5549 23.1862 43.4655H43.0634L26.2695 32.8357Z" fill="#FFC50D"/>
<path d="M44.9149 23.7004C53.2356 26.0652 59.3297 33.7207 59.3297 42.7996C59.3297 52.5479 52.3038 60.6546 43.0401 62.334V63.3193C54.005 63.3193 62.8939 54.4304 62.8939 43.4655C62.8939 33.1331 55.0006 24.6454 44.9149 23.7004Z" fill="#CC1237"/>
<path d="M56.9408 52.2493C53.5811 58.4458 47.0199 62.6538 39.4759 62.6538C38.843 62.6538 38.2182 62.6227 37.6007 62.565C39.3291 63.0562 41.1537 63.3193 43.0397 63.3193C50.1034 63.3193 56.3044 59.6302 59.8238 54.0741L56.9408 52.2493Z" fill="#5C5C5C"/>
<path d="M44.9591 64.3883H38.5344C38.138 64.3883 37.817 64.0672 37.817 63.6708V61.5681H45.6766V63.6708C45.6766 64.0672 45.3552 64.3883 44.9591 64.3883Z" fill="#FFC50D"/>
<path d="M37.8167 58.748H45.6766V61.5682H37.8167V58.748Z" fill="#FFC50D"/>
<path d="M37.8167 55.9275H45.6766V58.748H37.8167V55.9275Z" fill="#FFC50D"/>
<path d="M45.6766 55.9276H37.8167V53.8249C37.8167 53.4285 38.138 53.1074 38.5344 53.1074H44.9588C45.3552 53.1074 45.6766 53.4285 45.6766 53.8249V55.9276Z" fill="#FFC50D"/>
<path d="M43.5499 61.5681V62.7701C43.5499 63.1786 43.2185 63.5099 42.81 63.5099H37.8167V63.5795C37.8167 64.0262 38.1787 64.3886 38.6257 64.3886H44.8678C45.3145 64.3886 45.6766 64.0265 45.6766 63.5795V61.5681H43.5499Z" fill="#F9D725"/>
<path d="M43.5499 58.748V59.95C43.5499 60.3586 43.2185 60.6899 42.81 60.6899H37.8167V61.5682H45.6766V58.748H43.5499Z" fill="#F9D725"/>
<path d="M43.5499 55.9275V57.1298C43.5499 57.5383 43.2185 57.8693 42.81 57.8693H37.8167V58.748H45.6766V55.9278H43.5499V55.9275Z" fill="#F9D725"/>
<path d="M60.6784 64.3883H54.2537C53.8573 64.3883 53.5362 64.0672 53.5362 63.6708V61.5681H61.3958V63.6708C61.3958 64.0672 61.0748 64.3883 60.6784 64.3883Z" fill="#FFC50D"/>
<path d="M53.5362 58.748H61.3958V61.5682H53.5362V58.748Z" fill="#FFC50D"/>
<path d="M59.2691 61.5681V62.7701C59.2691 63.1786 58.9381 63.5099 58.5292 63.5099H53.5362V63.5795C53.5362 64.0262 53.8983 64.3886 54.345 64.3886H60.5871C61.0337 64.3886 61.3958 64.0265 61.3958 63.5795V61.5681H59.2691Z" fill="#F9D725"/>
<path d="M59.2691 58.748V59.95C59.2691 60.3586 58.9381 60.6899 58.5292 60.6899H53.5362V61.5682H61.3958V58.748H59.2691Z" fill="#F9D725"/>
<path d="M44.8678 53.1074H43.5499V54.3097C43.5499 54.7179 43.2185 55.0493 42.81 55.0493H37.8167V55.9279H45.6766V53.9165C45.6766 53.4695 45.3145 53.1074 44.8678 53.1074Z" fill="#F9D725"/>
<path d="M61.3958 58.748H53.5362V56.6449C53.5362 56.2489 53.8573 55.9275 54.2537 55.9275H60.6784C61.0748 55.9275 61.3958 56.2489 61.3958 56.6449V58.748Z" fill="#FFC50D"/>
<path d="M60.5871 55.9275H59.2691V57.1298C59.2691 57.5383 58.9381 57.8693 58.5292 57.8693H53.5362V58.748H61.3958V56.7366C61.3958 56.2896 61.0337 55.9275 60.5871 55.9275Z" fill="#F9D725"/>
<path d="M52.8188 64.3883H46.394C45.9977 64.3883 45.6766 64.0672 45.6766 63.6708V61.5681H53.5362V63.6708C53.5362 64.0672 53.2148 64.3883 52.8188 64.3883Z" fill="#FFC50D"/>
<path d="M45.6766 58.748H53.5362V61.5682H45.6766V58.748Z" fill="#FFC50D"/>
<path d="M45.6766 55.9275H53.5362V58.748H45.6766V55.9275Z" fill="#FFC50D"/>
<path d="M51.4095 61.5681V62.7701C51.4095 63.1786 51.0782 63.5099 50.6696 63.5099H45.6766V63.5795C45.6766 64.0262 46.0387 64.3886 46.4854 64.3886H52.7274C53.1741 64.3886 53.5362 64.0265 53.5362 63.5795V61.5681H51.4095Z" fill="#F9D725"/>
<path d="M51.4095 58.748V59.95C51.4095 60.3586 51.0782 60.6899 50.6696 60.6899H45.6766V61.5682H53.5362V58.748H51.4095Z" fill="#F9D725"/>
<path d="M51.4095 55.9275V57.1298C51.4095 57.5383 51.0782 57.8693 50.6696 57.8693H45.6766V58.748H53.5362V55.9278H51.4095V55.9275Z" fill="#F9D725"/>
<path d="M45.6766 53.1074H53.5362V55.9276H45.6766V53.1074Z" fill="#FFC50D"/>
<path d="M51.4095 53.1074V54.3097C51.4095 54.7179 51.0782 55.0493 50.6696 55.0493H45.6766V55.9279H53.5362V53.1074H51.4095Z" fill="#F9D725"/>
<path d="M45.6766 50.2874H53.5362V53.1075H45.6766V50.2874Z" fill="#FFC50D"/>
<path d="M53.5362 50.2873H45.6766V48.1846C45.6766 47.7882 45.9977 47.4668 46.394 47.4668H52.8188C53.2148 47.4668 53.5362 47.7882 53.5362 48.1846V50.2873Z" fill="#FFC50D"/>
<path d="M51.4095 50.2874V51.4893C51.4095 51.8979 51.0782 52.2292 50.6696 52.2292H45.6766V53.1075H53.5362V50.2874H51.4095Z" fill="#F9D725"/>
<path d="M52.7274 47.4668H51.4095V48.6691C51.4095 49.0776 51.0782 49.4086 50.6696 49.4086H45.6766V50.2873H53.5362V48.2759C53.5362 47.8292 53.1741 47.4668 52.7274 47.4668Z" fill="#F9D725"/>
<path d="M60.6825 55.3161H59.7254C59.461 55.6885 60.2083 54.6525 60.3634 54.3606C62.4013 51.1156 63.5052 47.3245 63.5052 43.4655C63.5052 37.9989 61.3766 32.8598 57.5112 28.994C53.6458 25.1286 48.5067 23 43.04 23C38.5626 23 34.3101 24.4195 30.7431 27.1051C30.4729 27.3082 30.4188 27.6915 30.6219 27.9616C30.8254 28.2314 31.2086 28.2856 31.4788 28.0824C34.6693 25.6804 38.4434 24.3567 42.4283 24.2337V42.3398L27.1199 32.6499C27.7973 31.6572 28.5718 30.7202 29.4408 29.8522C29.6798 29.6134 29.6798 29.226 29.4411 28.987C29.2024 28.7483 28.8153 28.7476 28.5763 28.9867C25.1463 32.4128 23.0837 36.8415 22.6582 41.6121C22.5566 42.7333 22.547 43.8645 22.6306 44.9873C22.9209 48.9866 24.3552 52.7507 26.8245 55.9529C29.443 59.3485 33.1188 61.8713 37.2053 63.0864V63.675C37.2053 64.4056 37.7997 65 38.5303 65H44.9633C45.2257 65 45.4702 64.9221 45.6766 64.7898C45.8826 64.9221 46.1271 65 46.3899 65H52.8226C53.0854 65 53.3298 64.9221 53.5362 64.7898C53.7422 64.9221 53.9867 65 54.2495 65H60.6825C61.4131 65 62.0072 64.4056 62.0072 63.675V56.6408C62.0075 55.9102 61.4131 55.3161 60.6825 55.3161ZM41.0607 55.3161H38.4284V53.8207C38.4284 53.7646 38.4742 53.7191 38.5303 53.7191H44.9633C45.0194 53.7191 45.0649 53.7646 45.0649 53.8207V55.3161H43.6707C43.3329 55.3161 43.059 55.5898 43.059 55.9275C43.059 56.2656 43.3329 56.5392 43.6707 56.5392H45.0649V58.1363H38.4284V56.5392H41.0607C41.3988 56.5392 41.6724 56.2656 41.6724 55.9275C41.6724 55.5898 41.3988 55.3161 41.0607 55.3161ZM46.288 53.8207V53.7191H52.9245V55.3158H46.288V53.8207ZM52.9245 52.4957H46.288V50.899H52.9245V52.4957ZM46.288 56.5392H52.9245V58.1363H46.288V56.5392ZM52.9245 49.6755H46.288V48.1804C46.288 48.124 46.3338 48.0785 46.3899 48.0785H52.8226C52.8787 48.0785 52.9245 48.124 52.9245 48.1804V49.6755ZM38.4284 59.3594H45.0649V60.9564H38.4284V59.3594ZM46.288 59.3594H52.9245V60.9564H46.288V59.3594ZM54.1479 59.3594H60.7841V60.9564H54.1479V59.3594ZM60.7841 56.6408V58.1363H54.1479V56.6408C54.1479 56.5847 54.1934 56.5392 54.2495 56.5392H60.6825C60.7386 56.5392 60.7841 56.5847 60.7841 56.6408ZM54.2495 55.3161C54.2152 55.3161 54.1816 55.3187 54.1479 55.3213V51.2053L58.9708 54.2581C58.7266 54.6189 58.469 54.9717 58.1998 55.3161H54.2495ZM23.8361 44.6774C23.8233 44.4771 23.8149 44.2775 23.8085 44.0772H37.2748L24.1123 46.9182C23.9774 46.1828 23.8841 45.4349 23.8361 44.6774ZM24.3709 48.1137L40.0065 44.7389L26.6892 53.5893C25.6472 51.908 24.8589 50.0629 24.3709 48.1137ZM26.4665 33.6842L40.9534 42.8538H23.8085C23.8194 42.4952 23.8406 42.137 23.8717 41.7794C24.1213 38.9185 25.0044 36.157 26.4665 33.6842ZM27.3663 54.6083L43.0532 44.183L45.4779 45.7175C45.5795 45.7819 45.6926 45.8124 45.8044 45.8124C46.0073 45.8124 46.2053 45.7118 46.3219 45.5278C46.5027 45.2423 46.4177 44.8645 46.1322 44.6841L43.6518 43.114V24.234C53.9797 24.5583 62.2821 33.06 62.2821 43.4655C62.2821 46.9031 61.351 50.2831 59.6238 53.2237L54.1479 49.7576V48.1804C54.1479 47.4495 53.5535 46.8554 52.8229 46.8554H46.3899C45.6593 46.8554 45.0649 47.4498 45.0649 48.1804V52.5008C45.0312 52.4982 44.9976 52.4957 44.9633 52.4957H38.5303C37.7997 52.4957 37.2053 53.0901 37.2053 53.8207V61.8062C33.1489 60.5174 29.7343 57.9405 27.3663 54.6083ZM44.9633 63.7766H38.5303C38.4742 63.7766 38.4284 63.7311 38.4284 63.675V62.1799H45.0649V63.675C45.0649 63.7311 45.0191 63.7766 44.9633 63.7766ZM52.8226 63.7766H46.3899C46.3338 63.7766 46.288 63.7311 46.288 63.675V62.1799H52.9245V63.675C52.9245 63.7311 52.879 63.7766 52.8226 63.7766ZM60.7841 63.675C60.7841 63.7311 60.7386 63.7769 60.6825 63.7769H54.2495C54.1934 63.7769 54.1479 63.7311 54.1479 63.675V62.1799H60.7841V63.675Z" fill="black"/>
</g>
<defs>
<clipPath id="clip0">
<rect width="42" height="42" fill="white" transform="translate(22 23)"/>
</clipPath>
</defs>
</svg>
