<svg width="50" height="57" viewBox="0 0 50 57" fill="none" xmlns="http://www.w3.org/2000/svg">
<g clip-path="url(#clip0)">
<path d="M1.95398 48.967L2.13165 49.4776C2.10944 49.4222 2.04281 49.2445 1.95398 48.967ZM9.16065 37.3187C9.4827 34.5535 10.5709 33.0102 12.6141 31.4222C15.5456 29.2792 19.1989 30.4895 19.1989 30.4895V23.2827C20.0872 23.2605 20.9756 23.316 21.8529 23.4493V32.7214C21.8529 32.7214 18.1997 31.5111 15.268 33.6541C13.2249 35.2421 12.1366 36.7857 11.8146 39.5506C11.8035 41.0498 12.07 43.0151 13.3137 44.703C13.0027 44.5363 12.6918 44.3476 12.3698 44.1366C9.64924 42.2266 9.14957 39.3505 9.16065 37.3187ZM36.9658 9.95755C34.956 7.65895 34.1898 5.32705 33.9123 3.69473H36.4441C36.4441 3.69473 35.9442 7.98099 39.6198 12.1895L39.6752 12.245C38.676 11.601 37.7653 10.8237 36.9658 9.95755ZM49.1695 16.4869V25.5702C49.1695 25.5702 45.938 25.4369 43.5395 24.804C40.1972 23.9157 38.0541 22.5498 38.0541 22.5498C38.0541 22.5498 36.566 21.5726 36.4551 21.506V40.2723C36.4551 41.3163 36.1776 43.9255 35.3447 46.1019C34.2563 48.9446 32.5684 50.8215 32.2575 51.1989C32.2575 51.1989 30.2033 53.7307 26.5945 55.4296C23.341 56.9621 20.476 56.9287 19.621 56.9621C19.621 56.9621 14.6795 57.1618 10.2267 54.1528C9.26061 53.4866 8.36114 52.7315 7.53942 51.8986L7.56163 51.9206C12.0145 54.941 16.956 54.7302 16.956 54.7302C17.8109 54.6968 20.676 54.7302 23.9295 53.1977C27.5383 51.4988 29.5925 48.967 29.5925 48.967C29.9034 48.5893 31.5913 46.7128 32.6797 43.8701C33.5126 41.6936 33.7901 39.084 33.7901 38.0404V19.2852C33.9123 19.3518 35.3891 20.329 35.3891 20.329C35.3891 20.329 37.5322 21.6948 40.8745 22.5832C43.273 23.2161 46.5044 23.3493 46.5044 23.3493V16.2315C47.6149 16.4869 48.5586 16.5535 49.1695 16.4869Z" fill="#EE1D52"/>
<path d="M46.5044 16.2204V23.3382C46.5044 23.3382 43.2729 23.205 40.8744 22.572C37.5321 21.6837 35.3891 20.3179 35.3891 20.3179C35.3891 20.3179 33.9009 19.3407 33.79 19.2741V38.0404C33.79 39.084 33.5125 41.6936 32.6796 43.8701C31.5912 46.7128 29.9034 48.5893 29.5924 48.967C29.5924 48.967 27.5382 51.4988 23.9294 53.1977C20.676 54.7303 17.8109 54.6968 16.9559 54.7303C16.9559 54.7303 12.0144 54.93 7.56163 51.9206L7.53942 51.8986C7.07304 51.421 6.62887 50.9214 6.21799 50.3994C4.79664 48.5893 3.93051 46.4573 3.70842 45.8468V45.8354C3.35308 44.7808 2.6202 42.2266 2.72015 39.7727C2.89782 35.4308 4.36359 32.7548 4.75222 32.0885C5.77382 30.2674 7.11746 28.635 8.69426 27.2691C10.0934 26.0921 11.6813 25.1482 13.3803 24.4931C15.2236 23.7158 17.2001 23.3049 19.1988 23.2716V30.4785C19.1988 30.4785 15.5456 29.2678 12.6141 31.4112C10.5709 32.9989 9.48265 34.5425 9.16061 37.3073C9.14952 39.3395 9.6492 42.2156 12.3809 44.1366C12.7029 44.3476 13.0138 44.5363 13.3247 44.703C13.8022 45.3469 14.3796 45.9133 15.0459 46.3798C17.722 48.1451 19.9539 48.2674 22.819 47.1235C24.7289 46.3574 26.1613 44.6362 26.8276 42.7152C27.2497 41.516 27.2383 40.3167 27.2383 39.073V3.69473H33.9009C34.1788 5.32705 34.9339 7.65895 36.9547 9.95756C37.7652 10.8237 38.6759 11.601 39.6641 12.245C39.953 12.567 41.4518 14.1216 43.3842 15.0877C44.3723 15.5874 45.4273 15.965 46.5044 16.2204Z" fill="black"/>
<path d="M1.05457 43.6481L1.22111 44.1256C1.1989 44.0702 1.13228 43.9036 1.05457 43.6481Z" fill="#69C9D0"/>
<path d="M13.3803 24.5042C11.6702 25.1593 10.0934 26.1032 8.69429 27.2803C7.10636 28.6461 5.77384 30.2894 4.75225 32.1105C4.36362 32.7768 2.89785 35.4418 2.72015 39.7947C2.62022 42.26 3.36423 44.8028 3.70845 45.8578V45.8688C3.93053 46.4686 4.79667 48.6117 6.21802 50.4218C6.62886 50.9434 7.07303 51.4434 7.53944 51.9206C6.02926 50.877 4.69674 49.6223 3.55298 48.1895C2.14276 46.4018 1.27659 44.2808 1.0545 43.659V43.637C0.699199 42.582 -0.0448064 40.0282 0.0662366 37.5628C0.243905 33.221 1.70967 30.5449 2.09834 29.8787C3.1199 28.0576 4.45241 26.4141 6.04035 25.0483C7.43949 23.8713 9.02742 22.9274 10.7264 22.2722C11.7924 21.8281 12.9028 21.506 14.0354 21.2951C15.7457 20.9952 17.489 20.973 19.2102 21.2173V23.2827C17.2001 23.316 15.2236 23.7269 13.3803 24.5042H13.3803Z" fill="#69C9D0"/>
<path d="M33.9123 3.69477H27.2497V39.073C27.2497 40.3167 27.2497 41.516 26.8386 42.7153C26.1613 44.6252 24.729 46.3575 22.83 47.1236C19.9653 48.2784 17.7221 48.1452 15.057 46.3798C14.3908 45.9243 13.8133 45.3583 13.3359 44.714C15.6122 45.9243 17.6442 45.9023 20.165 44.8917C22.0749 44.1256 23.5073 42.3933 24.1736 40.4834C24.5957 39.2841 24.5847 38.0849 24.5847 36.8412V1.46283H33.7901C33.779 1.46283 33.6788 2.34005 33.9123 3.69477ZM46.5044 14.255V16.2204C45.4274 15.965 44.3724 15.5875 43.3842 15.0878C41.4632 14.1328 39.9641 12.5671 39.6641 12.2451C40.0085 12.4672 40.3528 12.667 40.7191 12.8558C43.0733 14.0218 45.3719 14.3771 46.5044 14.255Z" fill="#69C9D0"/>
</g>
<defs>
<clipPath id="clip0">
<rect width="49.5246" height="57" fill="white"/>
</clipPath>
</defs>
</svg>
