<svg width="48" height="48" viewBox="0 0 48 48" fill="none" xmlns="http://www.w3.org/2000/svg">
<g clip-path="url(#clip0)">
<path d="M42.3943 25.9362H8.22181C6.77701 25.9362 5.60577 24.7649 5.60577 23.3199C5.60577 21.8749 6.77701 20.7036 8.22181 20.7036H42.3943C41.554 22.3308 41.554 24.309 42.3943 25.9362Z" fill="#F7F7F7"/>
<path d="M42.3944 20.7036H8.22183H39.5818C38.7414 22.3309 38.7414 24.3091 39.5818 25.9362H42.3944C41.554 24.3091 41.554 22.3309 42.3944 20.7036V20.7036Z" fill="#EFEFEF"/>
<path d="M8.60281 28.1154C7.31505 28.1154 6.10556 27.6102 5.19711 26.6929C4.28894 25.7758 3.79562 24.5612 3.80809 23.2729C3.8335 20.6547 6.00815 18.5247 8.65569 18.5247H42.7754C43.5567 18.5247 44.1922 19.1603 44.1922 19.9415C44.1922 20.7228 43.5567 21.3584 42.7754 21.3584H8.60281C7.5213 21.3584 6.64144 22.2383 6.64144 23.32C6.64144 24.4017 7.5213 25.2817 8.60281 25.2817H42.7753C43.5566 25.2817 44.1921 25.9173 44.1921 26.6986C44.1921 27.4798 43.5566 28.1154 42.7753 28.1154H8.60281Z" fill="#FF815C"/>
<path d="M45.588 45.1179H5.79026C4.34546 45.1179 3.17422 43.9466 3.17422 42.5016C3.17422 41.0566 4.34546 39.8853 5.79026 39.8853H45.5879C44.7475 41.5124 44.7475 43.4907 45.588 45.1179V45.1179Z" fill="#F7F7F7"/>
<path d="M45.5879 39.8853H42.7754C41.935 41.5125 41.935 43.4906 42.7754 45.1178H45.5879C44.7475 43.4906 44.7475 41.5124 45.5879 39.8853Z" fill="#EFEFEF"/>
<path d="M5.79025 47.2971C4.50249 47.2971 3.293 46.7918 2.38455 45.8746C1.47638 44.9574 0.983062 43.7429 0.995531 42.4545C1.02094 39.8363 3.19559 37.7063 5.84313 37.7063H45.588C46.3692 37.7063 47.0047 38.3419 47.0047 39.1232C47.0047 39.9044 46.3692 40.54 45.588 40.54H5.79025C4.70874 40.54 3.82888 41.42 3.82888 42.5017C3.82888 43.5834 4.70874 44.4633 5.79025 44.4633H45.5879C46.3691 44.4633 47.0046 45.099 47.0046 45.8803C47.0046 46.6615 46.3691 47.2971 45.5879 47.2971H5.79025V47.2971Z" fill="#FFE66B"/>
<path d="M2.41211 30.2944H42.2097C43.6545 30.2944 44.8257 31.4658 44.8257 32.9108C44.8257 34.3557 43.6545 35.5271 42.2097 35.5271H2.41211C3.2525 33.8998 3.2525 31.9217 2.41211 30.2944V30.2944Z" fill="#F7F7F7"/>
<path d="M2.41253 37.7062C1.6313 37.7062 0.995758 37.0706 0.995758 36.2894C0.995758 35.5081 1.6313 34.8725 2.41253 34.8725H42.2101C43.2916 34.8725 44.1716 33.9926 44.1716 32.9109C44.1716 31.8292 43.2916 30.9492 42.2101 30.9492H2.41253C1.6313 30.9492 0.995758 30.3136 0.995758 29.5323C0.995758 28.7511 1.6313 28.1155 2.41253 28.1155H42.2102C43.498 28.1155 44.7075 28.6207 45.6158 29.538C46.5241 30.4552 47.0172 31.6698 47.0049 32.958C46.9794 35.5762 44.8048 37.7062 42.1573 37.7062H2.41253Z" fill="#C9F0FF"/>
<path d="M45.6154 29.538C44.7071 28.6207 43.4976 28.1155 42.2098 28.1155H39.3973C40.685 28.1155 41.8945 28.6207 42.8029 29.538C43.7111 30.4552 44.2043 31.6698 44.1919 32.958C44.1665 35.5762 41.9918 37.7062 39.3443 37.7062H42.1568C44.8044 37.7062 46.979 35.5762 47.0044 32.958C47.0168 31.6697 46.5236 30.4551 45.6154 29.538Z" fill="#B5EAFF"/>
<path d="M37.1252 18.5247H10.8749L13.6874 9.05493H34.3127L37.1252 18.5247Z" fill="#288A9A"/>
<path d="M21.5759 1.01567L2.91853 5.91624C1.91839 6.17893 1.91839 7.59879 2.91853 7.86149L21.5759 12.7621C23.165 13.1794 24.835 13.1794 26.424 12.7621L45.0814 7.86149C46.0815 7.59879 46.0815 6.17893 45.0814 5.91624L26.424 1.01567C24.835 0.598292 23.165 0.598292 21.5759 1.01567V1.01567Z" fill="#3498AC"/>
<path d="M45.0814 5.91624L26.4241 1.01567C24.835 0.598292 23.165 0.598292 21.5759 1.01567L18.741 1.76034C20.0478 1.55109 21.3874 1.61531 22.674 1.95319L41.3314 6.85375C42.3315 7.11644 42.3315 8.53631 41.3314 8.799L45.0814 7.86148C46.0817 7.59879 46.0817 6.17893 45.0814 5.91624V5.91624Z" fill="#288A9A"/>
<path d="M32.3877 22.5935H28.3411C28.3411 22.5935 28.3411 16.4868 30.3644 16.4868C32.3877 16.4868 32.3877 22.5935 32.3877 22.5935Z" fill="#FFE66B"/>
<path d="M12.063 40.5398L8.71857 42.2945V30.949H12.063V40.5398Z" fill="#3498AC"/>
<path d="M25.3215 7.22594C24.4471 7.76144 23.4139 7.76209 22.5413 7.22594V5.22728C22.5413 4.45956 23.1637 3.83716 23.9314 3.83716C24.6991 3.83716 25.3215 4.45956 25.3215 5.22728V7.22594Z" fill="#FFE66B"/>
<path d="M45.8227 43.7732C45.6061 42.9403 45.6062 42.0615 45.8227 41.2297C48.315 40.8884 48.3244 37.3746 45.8368 37.018C46.9699 36.0204 47.692 34.5729 47.7076 32.9645C47.7281 30.8229 46.4554 28.8134 44.5102 27.9147C45.5204 26.4781 44.359 24.474 42.6257 24.5782C42.4139 23.7547 42.4136 22.8858 42.6257 22.0612C45.4275 22.2079 45.6117 17.8211 42.7755 17.8211H37.65L35.644 11.0671L45.2602 8.54123C46.9181 8.10576 46.9204 5.67198 45.2602 5.23585L26.6028 0.335466C24.9001 -0.111822 23.1001 -0.111822 21.3974 0.335466L14.4598 2.1578C13.6087 2.38131 13.9272 3.75129 14.8171 3.51795L21.7547 1.69561C23.2237 1.30982 24.7766 1.30982 26.2456 1.69561L44.9029 6.59618C45.2032 6.67502 45.2031 7.10243 44.9029 7.18128L30.5442 10.9528L26.0248 6.85493V5.22713C25.9099 2.45021 21.9529 2.45087 21.8382 5.22713V7.22581C21.8382 7.47013 21.9651 7.697 22.1733 7.82488C23.1254 8.40942 24.242 8.49211 25.2524 8.05279L28.9208 11.3791L26.2455 12.0818C24.7765 12.4675 23.2236 12.4675 21.7546 12.0818L3.09726 7.18128C2.79697 7.10234 2.79688 6.67502 3.09726 6.59618L11.2589 4.45246C12.1099 4.22896 11.7914 2.85869 10.9016 3.09232L2.73997 5.23603C1.08207 5.67151 1.07973 8.10529 2.73997 8.54142L12.3561 11.0672L10.3501 17.8212H8.65568C5.62423 17.8212 3.1341 20.2636 3.10495 23.2658C3.08976 24.8375 3.76599 26.3616 4.93366 27.4121H2.41212C-0.26035 27.5036 -0.453103 31.2609 2.17756 31.6387C2.3945 32.4717 2.3945 33.3493 2.17756 34.1823C-0.314819 34.5234 -0.324288 38.0374 2.16331 38.394C1.03023 39.3916 0.308064 40.839 0.292408 42.4474C0.278157 43.9249 0.843759 45.3176 1.88496 46.3691C2.92644 47.4208 4.3134 48 5.79026 48H45.5879C48.2518 47.9124 48.4609 44.1548 45.8227 43.7732ZM24.6184 6.79371C24.1692 6.96912 23.6925 6.9694 23.2444 6.79418V5.22713C23.2768 4.31774 24.5864 4.3183 24.6184 5.22713V6.79371ZM42.2097 31.6521C43.8768 31.7202 43.8808 34.0993 42.2097 34.1692H12.7662V31.6521H42.2097ZM11.3598 40.1147L9.42172 41.1315V31.6521H11.3598V40.1147ZM8.01545 34.1692H3.62273C3.78764 33.3389 3.78764 32.4824 3.62273 31.6521H8.01545V34.1692ZM8.35474 42.8961C8.58302 43.024 8.81318 43.0309 9.04522 42.9171L12.2362 41.243H44.3775C44.2131 42.0726 44.2132 42.9297 44.3777 43.76H5.79026C5.09651 43.76 4.53203 43.1955 4.53203 42.5015C4.53203 41.8076 5.09651 41.243 5.79026 41.243H8.01536V42.2945C8.01545 42.5406 8.14417 42.7688 8.35474 42.8961V42.8961ZM41.1839 24.5783H8.6028C7.90904 24.5783 7.34457 24.0138 7.34457 23.3198C7.34457 22.6259 7.90904 22.0613 8.6028 22.0613H27.6493C27.6316 22.5621 27.6342 23.2965 28.341 23.2965H32.3877C33.0966 23.2965 33.0971 22.5624 33.0794 22.0613H41.1841C41.0196 22.8917 41.0195 23.7487 41.1839 24.5783ZM30.3644 17.1898C30.984 17.1898 31.5738 19.3885 31.6708 21.8903H29.0581C29.155 19.3885 29.7448 17.1898 30.3644 17.1898V17.1898ZM43.4891 19.9413C43.4891 20.3349 43.1689 20.655 42.7754 20.655H32.9871C32.9409 20.177 32.8794 19.7002 32.7941 19.2275H42.7754C43.1689 19.2276 43.4891 19.5478 43.4891 19.9413ZM36.1829 17.8213H32.4428C32.1082 16.8365 31.6484 16.2068 31.0676 15.9364V12.2693L34.2832 11.4246L36.1829 17.8213ZM13.7169 11.4246L21.3973 13.442C23.0936 13.8875 24.9065 13.8875 26.6027 13.442L29.6612 12.6386V15.9364C29.0803 16.2068 28.6206 16.8365 28.286 17.8213H11.8172L13.7169 11.4246ZM5.6967 26.198C4.92157 25.4152 4.50053 24.3787 4.51112 23.2795C4.53287 21.0452 6.39205 19.2276 8.65568 19.2276H27.9347C27.8494 19.7003 27.7879 20.1771 27.7417 20.6551H8.6028C7.13353 20.6551 5.9383 21.8505 5.9383 23.3199C5.9383 24.7893 7.13363 25.9847 8.6028 25.9847H42.7753C43.6681 25.9847 43.709 27.4122 42.7753 27.4122H8.6028C7.50423 27.4121 6.47212 26.981 5.6967 26.198V26.198ZM1.69849 29.5321C1.69849 29.1386 2.01865 28.8184 2.41212 28.8184H42.2098C44.4532 28.8184 46.3229 30.7066 46.3014 32.951C46.2797 35.1853 44.4205 37.0029 42.1569 37.0029H38.469C37.5891 37.0029 37.549 38.4092 38.469 38.4092H45.588C45.9814 38.4092 46.3016 38.7293 46.3016 39.1229C46.3016 39.5165 45.9814 39.8366 45.588 39.8366H12.7661V38.4091H34.7632C35.643 38.4091 35.6831 37.0028 34.7632 37.0028H12.7661V35.5753H42.2097C43.679 35.5753 44.8743 34.3798 44.8743 32.9105C44.8743 31.4411 43.679 30.2457 42.2097 30.2457H2.41212C2.01856 30.2459 1.69849 29.9256 1.69849 29.5321V29.5321ZM2.41212 37.0029C1.46739 36.9692 1.46814 35.6087 2.41212 35.5754H8.01545V37.0029H2.41212ZM45.588 46.5938H5.79026C4.69159 46.5938 3.65949 46.1626 2.88416 45.3796C2.10903 44.5968 1.68799 43.5603 1.69858 42.4611C1.72033 40.2268 3.57952 38.4092 5.84314 38.4092H8.01545V39.8367H5.79026C2.25453 39.9835 2.25725 45.0208 5.79026 45.1663H45.5879C46.5327 45.1999 46.532 46.5605 45.588 46.5938Z" fill="black"/>
</g>
<defs>
<clipPath id="clip0">
<rect width="48" height="48" fill="white"/>
</clipPath>
</defs>
</svg>
