<svg width="43" height="43" viewBox="0 0 43 43" fill="none" xmlns="http://www.w3.org/2000/svg">
<path d="M30.8167 5.73336C30.4209 5.73336 30.1 5.41246 30.1 5.01672V1.43336H26.5167C26.1209 1.43336 25.8 1.11246 25.8 0.716723C25.8 0.320988 26.121 0 26.5167 0H30.1C30.8917 0 31.5334 0.641725 31.5334 1.43336V5.01672C31.5334 5.41246 31.2125 5.73336 30.8167 5.73336Z" fill="#3E436D"/>
<path d="M40.1334 10.75L36.6733 42.2834H23.5267L20.0667 10.75H40.1334Z" fill="#3E436D"/>
<path d="M22.9334 5.01685H37.9834C38.775 5.01685 39.4167 5.65857 39.4167 6.45021V9.31684H21.5V6.45021C21.5 5.65857 22.1417 5.01685 22.9334 5.01685Z" fill="#E6E7E8"/>
<path d="M20.7835 7.8833H40.1335C40.9251 7.8833 41.5668 8.52502 41.5668 9.31666V10.7499C41.5668 11.1458 41.246 11.4666 40.8502 11.4666H20.0667C19.6709 11.4666 19.3501 11.1457 19.3501 10.7499V9.31658C19.3501 8.52502 19.9918 7.8833 20.7835 7.8833Z" fill="#D1D4D1"/>
<path d="M27.9429 19.4505L24.4456 42.2835H4.21406L0.723926 19.4577C0.692599 19.2511 0.752984 19.041 0.889375 18.8826C1.02577 18.7242 1.22447 18.6333 1.43343 18.6335H4.34306C4.68589 18.6341 4.98025 18.8774 5.04543 19.214C5.43369 21.1386 6.41933 22.8917 7.86193 24.2235C9.07575 25.3168 10.5738 26.0447 12.1834 26.3234C12.8923 26.4559 13.6123 26.5208 14.3334 26.5169C15.055 26.522 15.7753 26.4548 16.4834 26.3163C18.0929 26.0416 19.5914 25.3159 20.8049 24.2236C22.243 22.8893 23.2256 21.137 23.6143 19.2141C23.6795 18.8775 23.9738 18.6342 24.3166 18.6336H27.2263C27.4351 18.6315 27.6344 18.7207 27.7721 18.8777C27.9098 19.0346 27.9722 19.2438 27.9429 19.4505Z" fill="#CC1237"/>
<path d="M4.91352 26.5095C5.30421 26.452 5.57472 26.0892 5.51837 25.6982L5.31337 24.2649C5.2833 24.0059 5.11508 23.7838 4.87396 23.6847C4.63292 23.5856 4.35704 23.6252 4.15354 23.7881C3.95005 23.951 3.85111 24.2115 3.89504 24.4684L4.10004 25.9018C4.15623 26.2933 4.51896 26.5653 4.91058 26.5095H4.91352V26.5095Z" fill="#CC1237"/>
<path d="M5.52761 30.8096C5.71582 30.7826 5.88555 30.682 5.99951 30.5298C6.11348 30.3776 6.16236 30.1865 6.13532 29.9983L5.93031 28.5649C5.90024 28.306 5.73202 28.0839 5.4909 27.9848C5.24987 27.8856 4.97398 27.9252 4.77049 28.0881C4.56699 28.2511 4.46806 28.5116 4.51198 28.7685L4.71699 30.2019C4.77317 30.5934 5.13599 30.8654 5.52761 30.8096Z" fill="#CC1237"/>
<path d="M6.54525 32.8651C6.48906 32.4732 6.12583 32.2012 5.73396 32.2573C5.34209 32.3135 5.07006 32.6768 5.12625 33.0686L6.04789 39.5186C6.09845 39.871 6.39995 40.1329 6.75596 40.1336C6.79023 40.1336 6.8245 40.1313 6.85843 40.1264C7.04664 40.0995 7.21637 39.9988 7.33033 39.8467C7.4443 39.6945 7.49318 39.5033 7.46614 39.3151L6.54525 32.8651Z" fill="#CC1237"/>
<path d="M7.88325 15.05V24.2019L7.86175 24.2234C6.41915 22.8916 5.43351 21.1385 5.04525 19.2139C4.98008 18.8773 4.68572 18.634 4.34289 18.6334H3.58325V15.7668C3.58325 15.371 3.90416 15.0501 4.29989 15.0501H7.88325V15.05Z" fill="#F0C419"/>
<path d="M12.1833 11.3018V26.3231C10.5737 26.0444 9.07564 25.3165 7.86182 24.2232L7.88332 24.2017V12.0184C7.88332 11.6226 8.20422 11.3018 8.59996 11.3018H12.1833V11.3018Z" fill="#F3D55B"/>
<path d="M16.4833 10.0333V26.3159C15.7752 26.4545 15.0549 26.5218 14.3333 26.5166C13.6122 26.5204 12.8923 26.4556 12.1833 26.3231V10.0333C12.1833 9.63747 12.5042 9.31665 12.9 9.31665H15.7666C16.1624 9.31657 16.4833 9.63747 16.4833 10.0333Z" fill="#F0C419"/>
<path d="M20.8049 24.2235C19.5914 25.3158 18.0929 26.0415 16.4834 26.3162V11.4668H20.0668C20.4626 11.4668 20.7834 11.7877 20.7834 12.1834V24.2019L20.8049 24.2235Z" fill="#F3D55B"/>
<path d="M25.0833 15.0501V18.6335H24.3164C23.9736 18.6341 23.6792 18.8774 23.6141 19.214C23.2255 21.1369 22.2428 22.8891 20.8047 24.2235L20.7832 24.202V14.3335H24.3666C24.7624 14.3335 25.0833 14.6543 25.0833 15.0501Z" fill="#F0C419"/>
<path d="M14.3335 38.7001C16.7083 38.7001 18.6335 36.7749 18.6335 34.4001C18.6335 32.0253 16.7083 30.1001 14.3335 30.1001C11.9586 30.1001 10.0334 32.0253 10.0334 34.4001C10.0334 36.7749 11.9586 38.7001 14.3335 38.7001Z" fill="#E6E7E8"/>
<path d="M42.2834 42.9999H41.5667C41.1709 42.9999 40.8501 42.6791 40.8501 42.2833C40.8501 41.8875 41.1709 41.5667 41.5667 41.5667H42.2834C42.6792 41.5667 43 41.8876 43 42.2833C43 42.6791 42.6792 42.9999 42.2834 42.9999Z" fill="#ACB3BA"/>
<path d="M38.7 42.9999H0.716639C0.320904 42.9999 0 42.6791 0 42.2833C0 41.8875 0.320904 41.5667 0.716639 41.5667H38.7C39.0958 41.5667 39.4166 41.8876 39.4166 42.2833C39.4166 42.6791 39.0958 42.9999 38.7 42.9999Z" fill="#ACB3BA"/>
</svg>
