<svg width="20" height="15" viewBox="0 0 20 15" fill="none" xmlns="http://www.w3.org/2000/svg">
<g clip-path="url(#clip0)">
<path d="M19.272 12.7273V0.735349C19.272 0.329153 18.9409 0 18.5325 0H1.46613C1.05766 0 0.726562 0.329192 0.726562 0.735349V12.7273H19.272Z" fill="#CB2023"/>
<path d="M17.6022 1.09091H2.39743C2.27822 1.09091 2.18164 1.18705 2.18164 1.30571V12.5125C2.18164 12.6311 2.27822 12.7273 2.39743 12.7273H17.6022C17.7214 12.7273 17.818 12.6311 17.818 12.5125V1.30571C17.818 1.18705 17.7214 1.09091 17.6022 1.09091Z" fill="white"/>
<path d="M19.9462 12.7999C19.9049 12.7537 19.8454 12.7273 19.7828 12.7273H0.21722C0.154603 12.7273 0.095032 12.7537 0.0537822 12.7999C0.012571 12.846 -0.00637432 12.9073 0.00190695 12.9682C0.123938 13.8673 0.91468 14.5454 1.84121 14.5454H18.1588C19.0853 14.5454 19.8761 13.8674 19.9981 12.9682C20.0064 12.9073 19.9875 12.846 19.9462 12.7999Z" fill="#CB2023"/>
<path d="M9.15282 9.43815H3.61901C3.44107 9.43815 3.29688 9.28727 3.29688 9.10109C3.29688 8.91495 3.44107 8.76404 3.61901 8.76404H9.15282C9.33079 8.76404 9.47497 8.91495 9.47497 9.10109C9.47497 9.28724 9.33079 9.43815 9.15282 9.43815Z" fill="#3D3C3B"/>
<path d="M9.15282 10.7003H3.61901C3.44107 10.7003 3.29688 10.5494 3.29688 10.3632C3.29688 10.177 3.44107 10.0262 3.61901 10.0262H9.15282C9.33079 10.0262 9.47497 10.177 9.47497 10.3632C9.47497 10.5494 9.33079 10.7003 9.15282 10.7003Z" fill="#3D3C3B"/>
<path d="M9.15282 11.9623H3.61901C3.44107 11.9623 3.29688 11.8115 3.29688 11.6253C3.29688 11.4392 3.44107 11.2883 3.61901 11.2883H9.15282C9.33079 11.2883 9.47497 11.4392 9.47497 11.6253C9.47497 11.8114 9.33079 11.9623 9.15282 11.9623Z" fill="#3D3C3B"/>
<path d="M16.0415 9.43815H10.5077C10.3297 9.43815 10.1855 9.28727 10.1855 9.10109C10.1855 8.91495 10.3297 8.76404 10.5077 8.76404H16.0415C16.2194 8.76404 16.3636 8.91495 16.3636 9.10109C16.3636 9.28724 16.2194 9.43815 16.0415 9.43815Z" fill="#3D3C3B"/>
<path d="M16.0415 10.7003H10.5077C10.3297 10.7003 10.1855 10.5494 10.1855 10.3632C10.1855 10.177 10.3297 10.0262 10.5077 10.0262H16.0415C16.2194 10.0262 16.3636 10.177 16.3636 10.3632C16.3636 10.5494 16.2194 10.7003 16.0415 10.7003Z" fill="#3D3C3B"/>
<path d="M16.0415 11.9623H10.5077C10.3297 11.9623 10.1855 11.8115 10.1855 11.6253C10.1855 11.4392 10.3297 11.2883 10.5077 11.2883H16.0415C16.2194 11.2883 16.3636 11.4392 16.3636 11.6253C16.3636 11.8114 16.2194 11.9623 16.0415 11.9623Z" fill="#3D3C3B"/>
<path d="M6.35659 5.29248V6.14787H5.84961V4.40768H6.24477L6.98576 5.29248V4.40768H7.49281V6.14787H7.08979L6.35659 5.29248Z" fill="#3D3C3B"/>
<path d="M9.12615 5.73121V6.14787H7.81055V4.40768H9.10277V4.82438H8.31749V5.06947H8.98829V5.45674H8.31749V5.73121H9.12615Z" fill="#3D3C3B"/>
<path d="M9.95125 4.40763H10.4166L10.5778 4.94443L10.7416 4.40763H11.2071L10.9028 5.2385L11.0354 5.60126L11.4332 4.40759H11.9845L11.2616 6.14777H10.8404L10.5778 5.52526L10.3179 6.14777H9.89663L9.17383 4.40759H9.72241L10.1228 5.60126L10.2502 5.2385L9.95125 4.40763Z" fill="#3D3C3B"/>
<path d="M13.1725 4.97633C13.1205 4.94691 13.0668 4.92077 13.0113 4.89793C12.9645 4.8783 12.9121 4.85993 12.854 4.84273C12.7959 4.8256 12.7392 4.81699 12.6837 4.81699C12.6386 4.81699 12.6026 4.82357 12.5758 4.83662C12.5489 4.84971 12.5355 4.87179 12.5355 4.90284C12.5355 4.92575 12.5433 4.94448 12.5589 4.9592C12.5744 4.97386 12.597 4.98739 12.6265 4.99961C12.6559 5.0119 12.6919 5.02375 12.7343 5.03513C12.7768 5.04659 12.8249 5.06048 12.8787 5.0768C12.9636 5.10135 13.0403 5.1283 13.1088 5.15771C13.1773 5.18713 13.2357 5.22186 13.2843 5.26182C13.3328 5.3019 13.3701 5.35048 13.3962 5.40761C13.4222 5.46488 13.4352 5.53426 13.4352 5.61601C13.4352 5.72055 13.4148 5.8084 13.3741 5.87953C13.3333 5.95059 13.2795 6.00739 13.2128 6.04982C13.1461 6.0923 13.0707 6.12299 12.9866 6.14175C12.9025 6.16051 12.818 6.16997 12.7331 6.16997C12.6655 6.16997 12.5962 6.1651 12.5251 6.15524C12.454 6.14546 12.3834 6.1316 12.3132 6.11357C12.243 6.09564 12.1754 6.07437 12.1104 6.04986C12.0454 6.02535 11.9852 5.9976 11.9297 5.96651L12.1481 5.54739C12.2088 5.58339 12.272 5.6152 12.3379 5.64299C12.3933 5.6675 12.4561 5.68953 12.5263 5.70917C12.5966 5.72881 12.6681 5.73855 12.7409 5.73855C12.7963 5.73855 12.8349 5.7316 12.8566 5.71775C12.8782 5.70386 12.889 5.6855 12.889 5.66259C12.889 5.63804 12.8782 5.6172 12.8566 5.60004C12.8349 5.58291 12.805 5.56779 12.7669 5.55473C12.7287 5.54171 12.685 5.52862 12.6355 5.5155C12.5861 5.50244 12.5337 5.48695 12.4782 5.46891C12.3967 5.44281 12.3265 5.41462 12.2676 5.38433C12.2087 5.35419 12.1602 5.31986 12.1221 5.28142C12.0839 5.24302 12.0557 5.19935 12.0375 5.1503C12.0193 5.10128 12.0102 5.04484 12.0102 4.98113C12.0102 4.88477 12.0289 4.79975 12.0661 4.72619C12.1034 4.6527 12.1541 4.59139 12.2182 4.5424C12.2823 4.49339 12.3556 4.45626 12.4379 4.43088C12.5202 4.40557 12.6073 4.39291 12.6992 4.39291C12.7668 4.39291 12.8327 4.39902 12.8969 4.41128C12.961 4.42353 13.023 4.43913 13.0827 4.4579C13.1425 4.47666 13.1985 4.49706 13.2505 4.51917C13.3025 4.5412 13.3493 4.56204 13.3909 4.58164L13.1725 4.97633Z" fill="#3D3C3B"/>
</g>
<defs>
<clipPath id="clip0">
<rect width="20" height="14.5455" fill="white"/>
</clipPath>
</defs>
</svg>
