<svg width="87" height="87" viewBox="0 0 87 87" fill="none" xmlns="http://www.w3.org/2000/svg">
<circle cx="43.5" cy="43.5" r="43.5" fill="#54353A" fill-opacity="0.1"/>
<g clip-path="url(#clip0)">
<path d="M55.9207 51.5093H33.0793C30.6521 51.5093 28.6869 53.4735 28.6869 55.9016V65.3408H60.313V55.9016C60.313 53.4735 58.3487 51.5093 55.9207 51.5093Z" fill="#CC1237"/>
<path d="M55.9207 51.5093H53.2849C55.7131 51.5093 57.6773 53.4735 57.6773 55.9016V65.3408H60.3131V55.9016C60.313 53.4735 58.3486 51.5093 55.9207 51.5093Z" fill="#CC1237"/>
<path d="M45.379 55.9019L46.2575 65.3411H42.7435L43.622 55.9019H45.379Z" fill="#57565C"/>
<path d="M48.0144 53.2664L45.379 55.9018H43.622L40.9866 53.2664L44.5005 52.3879L48.0144 53.2664Z" fill="#57565C"/>
<path d="M44.5005 49.7526C42.205 49.7526 40.0818 49.019 38.3512 47.7742V51.5096L40.9866 53.2665L44.5005 52.388L48.0144 53.2665L50.6498 51.5096V47.7734C48.9183 49.019 46.7951 49.7526 44.5005 49.7526Z" fill="#E6E9ED"/>
<path d="M51.5282 26.0802C51.5282 26.0802 56.9563 26.155 55.0394 35.7399L53.1226 31.9062C53.1226 31.9062 47.1087 33.8239 43.5366 33.8239C39.9647 33.8239 36.8268 31.9062 36.8268 31.9062L33.9533 35.7373L33.9507 35.7408C32.0331 20.4034 43.8591 21.6852 51.5273 21.6852C51.5273 25.5197 51.5282 26.0802 51.5282 26.0802Z" fill="#965353"/>
<path d="M51.5282 26.0803C51.5282 26.0803 51.5272 25.5198 51.5272 21.6854C50.0816 21.6854 48.8916 21.6628 48.8916 21.6628C48.8916 25.4973 48.8925 23.2777 48.8925 26.0803C48.8925 28.8829 52.4049 27.4335 52.4049 32.1246C52.604 32.0641 53.1225 31.9064 53.1225 31.9064L55.0393 35.7401C56.9563 26.155 51.5282 26.0803 51.5282 26.0803Z" fill="#864B4C"/>
<path d="M44.5005 49.7525C42.205 49.7525 40.0817 49.0189 38.3511 47.7741C35.691 45.8599 33.9588 42.7378 33.9588 39.2108V35.7408L33.9534 35.7373L36.8269 31.9062C36.8269 31.9062 39.9648 33.8239 43.5368 33.8239C47.1087 33.8239 53.1227 31.9062 53.1227 31.9062L55.0395 35.74V35.7409H55.0423V39.2109C55.0423 42.7379 53.3099 45.86 50.6499 47.7734C48.9182 49.0189 46.795 49.7525 44.5005 49.7525Z" fill="#FFDECF"/>
<path d="M55.0395 35.7409V35.74L53.1227 31.9062C53.1227 31.9062 52.857 31.991 52.4052 32.1245L52.4066 35.7408V39.2108C52.4066 42.7378 50.6742 45.8599 48.0143 47.7733C46.6195 48.7767 44.9704 49.447 43.1826 49.6701C43.6144 49.724 44.0541 49.7526 44.5007 49.7526C46.7952 49.7526 48.9185 49.019 50.6501 47.7734C53.31 45.8601 55.0424 42.738 55.0424 39.2109V35.7409H55.0395Z" fill="#FFCDBE"/>
<path d="M55.9204 50.8506L51.3082 50.8506V48.0981C53.9768 46.0489 55.7005 42.8275 55.7005 39.2108V35.7922C56.482 31.8246 56.142 28.9012 54.6886 27.1032C53.8477 26.0629 52.8335 25.666 52.1864 25.5146C52.1862 24.9417 52.1861 23.8216 52.1861 21.6851C52.1861 21.3212 51.8912 21.0263 51.5272 21.0263C50.9958 21.0263 50.4513 21.0202 49.8745 21.0137C49.2758 21.0069 48.6565 21 48.0294 21C43.2604 21 38.4515 21.4485 35.5782 24.7033C33.4141 27.1547 32.6678 30.7919 33.2968 35.8225C33.2973 35.827 33.2988 35.8311 33.2994 35.8354V39.2106C33.2994 42.8275 35.0232 46.0489 37.6919 48.098V50.8506H33.0795C30.2943 50.8506 28.0283 53.1165 28.0283 55.9018L28.0285 55.9069V59.4157C28.0285 59.7794 28.3237 60.0745 28.6874 60.0745C29.0502 60.0745 29.3462 59.7794 29.3462 59.4157V55.9018L29.346 55.8985C29.3478 53.8413 31.0219 52.1683 33.0794 52.1683H38.1513L40.5661 53.7782L42.9368 56.1489L42.1426 64.682H35.4956V60.3381C35.4956 59.9742 35.2007 59.6793 34.8368 59.6793C34.4729 59.6793 34.178 59.9742 34.178 60.3381V64.6821H29.3464V62.0513C29.3464 61.6876 29.0503 61.3924 28.6875 61.3924C28.3238 61.3924 28.0287 61.6876 28.0287 62.0513V65.3359L28.0284 65.341C28.0284 65.6396 28.2272 65.8915 28.4994 65.9724C28.5591 65.9902 28.622 66.0001 28.6875 66.0001L28.691 65.9999H42.7385L42.744 66.0002L42.7494 65.9999H46.2546L46.2563 66L46.2582 65.9999H60.3095L60.3129 66.0001C60.6769 66.0001 60.9718 65.7052 60.9718 65.3413V55.9018C60.9717 53.1166 58.7058 50.8506 55.9204 50.8506ZM59.6539 55.9018V64.682H56.1908V59.8478C56.1908 59.519 55.9242 59.2524 55.5954 59.2524C55.2666 59.2524 55 59.519 55 59.8478V64.6821L46.8574 64.682L46.0632 56.1489L48.4336 53.7783L50.8487 52.1682L55.9203 52.1683C57.9791 52.1683 59.6539 53.8431 59.6539 55.9018ZM43.8945 55.243L42.2748 53.6232L44.5001 53.067L46.7253 53.6232L45.1058 55.243H43.8945ZM49.9905 51.1568L47.8912 52.5564L45.1589 51.8734V50.3914C46.9064 50.2896 48.5472 49.7853 49.9905 48.9701V51.1568ZM36.5662 25.5754C39.0936 22.7123 43.5693 22.3177 48.0294 22.3177C48.6492 22.3177 49.2647 22.3245 49.8598 22.3312C50.2059 22.3351 50.5405 22.3388 50.8684 22.3412C50.8685 25.5854 50.8689 26.0804 50.8689 26.0804C50.8693 26.4406 51.153 26.7335 51.5131 26.7385C51.5635 26.74 52.7579 26.7903 53.6836 27.956C54.6199 29.1351 54.9644 31.064 54.7037 33.596L53.7113 31.6112C53.5662 31.3209 53.2311 31.1797 52.9219 31.2782C52.8627 31.2971 46.9639 33.1644 43.5364 33.1644C40.2012 33.1644 37.1991 31.3616 37.1698 31.3437C36.88 31.1664 36.5029 31.2389 36.2991 31.5105L34.4443 33.9837C34.205 30.2188 34.9041 27.4582 36.5662 25.5754ZM34.6172 39.2107V35.9502L37.0091 32.7608C38.0826 33.3209 40.6562 34.4824 43.5366 34.4824C46.5765 34.4824 51.2058 33.1739 52.7825 32.7001L54.383 35.9009V39.2108C54.383 44.6157 50.0215 49.0203 44.6333 49.092C44.5903 49.0831 44.5457 49.0785 44.5001 49.0785C44.4545 49.0785 44.41 49.0832 44.3669 49.092C38.9786 49.0202 34.6172 44.6155 34.6172 39.2107ZM43.8412 50.3913V51.8733L41.109 52.5563L39.0097 51.1567V48.97C40.4529 49.7853 42.0938 50.2895 43.8412 50.3913ZM44.222 56.5607H44.7782L45.534 64.6821H43.4662L44.222 56.5607Z" fill="black"/>
</g>
<defs>
<clipPath id="clip0">
<rect width="45" height="45" fill="white" transform="translate(22 21)"/>
</clipPath>
</defs>
</svg>
