<svg width="20" height="15" viewBox="0 0 20 15" fill="none" xmlns="http://www.w3.org/2000/svg">
<g clip-path="url(#clip0)">
<path d="M19.2 7.60399H0.572C0.256093 7.60399 0 7.86008 0 8.17599V13.96C0 14.2759 0.256093 14.532 0.572 14.532H19.2C19.5159 14.532 19.772 14.2759 19.772 13.96V8.17599C19.772 7.86008 19.5159 7.60399 19.2 7.60399Z" fill="#3D3C3B"/>
<path d="M5.19927 4.244H7.46727C7.99771 4.244 8.50643 4.45472 8.88151 4.8298C9.25659 5.20484 9.46727 5.71356 9.46727 6.244V7.076H3.19928V6.26C3.19501 5.7268 3.40385 5.21396 3.77938 4.83544C4.15491 4.45688 4.66607 4.244 5.19927 4.244Z" fill="#CB2023"/>
<path d="M6.35117 3.8C7.40053 3.8 8.25117 2.94934 8.25117 1.9C8.25117 0.85066 7.40053 0 6.35117 0C5.30185 0 4.45117 0.85066 4.45117 1.9C4.45117 2.94934 5.30185 3.8 6.35117 3.8Z" fill="#CB2023"/>
<path d="M14.4207 3.79601H12.4727V7.12H14.4207V3.79601Z" fill="#CB2023"/>
<path d="M16.8875 3.79601H14.9395V7.12H16.8875V3.79601Z" fill="#CB2023"/>
</g>
<defs>
<clipPath id="clip0">
<rect width="20" height="14.8" fill="white"/>
</clipPath>
</defs>
</svg>
