<svg width="87" height="87" viewBox="0 0 87 87" fill="none" xmlns="http://www.w3.org/2000/svg">
<circle cx="43.5" cy="43.5" r="43.5" fill="#54353A" fill-opacity="0.1"/>
<path d="M63.5625 53.7812V55.9375C63.5624 56.5093 63.3351 57.0577 62.9308 57.462C62.5264 57.8664 61.9781 58.0936 61.4062 58.0938H22.5938C22.0219 58.0936 21.4736 57.8664 21.0692 57.462C20.6649 57.0577 20.4376 56.5093 20.4375 55.9375V53.7812H63.5625Z" fill="#57565C"/>
<path d="M63.5625 34.375V53.7812H20.4375V34.375C20.4376 33.8032 20.6649 33.2548 21.0692 32.8505C21.4736 32.4461 22.0219 32.2189 22.5938 32.2188H61.4062C61.9781 32.2189 62.5264 32.4461 62.9308 32.8505C63.3351 33.2548 63.5624 33.8032 63.5625 34.375Z" fill="#CC1237"/>
<path d="M47.0312 62.4062H36.9688L38.4062 58.0938H45.5938L47.0312 62.4062Z" fill="#E0E0E2"/>
<path d="M34.0938 62.4062H49.9062V64.5625H34.0938V62.4062Z" fill="#57565C"/>
<path d="M23.3125 34.375H26.1875V39.4062H23.3125V34.375Z" fill="#CC1237"/>
<path d="M43.4375 34.375H46.3125V39.4062H43.4375V34.375Z" fill="#FFC50D"/>
<path d="M28.3438 26.4688H31.2188V39.4062H28.3438V26.4688Z" fill="#CC1237"/>
<path d="M33.375 21.4375H36.25V39.4062H33.375V21.4375Z" fill="#FFC50D"/>
<path d="M38.4062 24.3125H41.2812V39.4062H38.4062V24.3125Z" fill="#FFC50D"/>
<path d="M24.75 48.0312C25.5439 48.0312 26.1875 47.3877 26.1875 46.5938C26.1875 45.7998 25.5439 45.1562 24.75 45.1562C23.9561 45.1562 23.3125 45.7998 23.3125 46.5938C23.3125 47.3877 23.9561 48.0312 24.75 48.0312Z" fill="#CC1237"/>
<path d="M36.25 51.625C37.0439 51.625 37.6875 50.9814 37.6875 50.1875C37.6875 49.3936 37.0439 48.75 36.25 48.75C35.4561 48.75 34.8125 49.3936 34.8125 50.1875C34.8125 50.9814 35.4561 51.625 36.25 51.625Z" fill="#CC1237"/>
<path d="M47.75 45.1562C48.5439 45.1562 49.1875 44.5127 49.1875 43.7188C49.1875 42.9248 48.5439 42.2812 47.75 42.2812C46.9561 42.2812 46.3125 42.9248 46.3125 43.7188C46.3125 44.5127 46.9561 45.1562 47.75 45.1562Z" fill="#CC1237"/>
<path d="M59.25 50.1875C60.0439 50.1875 60.6875 49.5439 60.6875 48.75C60.6875 47.9561 60.0439 47.3125 59.25 47.3125C58.4561 47.3125 57.8125 47.9561 57.8125 48.75C57.8125 49.5439 58.4561 50.1875 59.25 50.1875Z" fill="#CC1237"/>
<path d="M26.1875 46.5938L34.8125 50.1875L26.1875 46.5938Z" fill="#E0E0E2"/>
<path d="M37.6875 50.1875L46.3125 43.7188L37.6875 50.1875Z" fill="#E0E0E2"/>
<path d="M49.1875 43.7188L57.8125 48.75L49.1875 43.7188Z" fill="#E0E0E2"/>
<path d="M61.4062 27.1875C61.4061 28.3247 61.0688 29.4364 60.437 30.382C59.8051 31.3275 58.9071 32.0645 57.8564 32.4997C56.8057 32.935 55.6496 33.0489 54.5342 32.8271C53.4188 32.6054 52.3942 32.0579 51.5899 31.2538L55.6562 27.1875H61.4062Z" fill="#CC1237"/>
<path d="M55.6563 21.4375V27.1875L51.5899 31.2538C50.7859 30.4496 50.2384 29.4249 50.0166 28.3095C49.7948 27.1941 49.9088 26.038 50.344 24.9873C50.7792 23.9367 51.5162 23.0386 52.4618 22.4068C53.4073 21.7749 54.519 21.4376 55.6563 21.4375Z" fill="#FFC50D"/>
<path d="M61.4062 27.1875H55.6562V21.4375C57.1812 21.4375 58.6438 22.0433 59.7221 23.1216C60.8004 24.2 61.4062 25.6625 61.4062 27.1875Z" fill="#CC1237"/>
<path d="M61.4062 31.5H60.4728C61.3068 30.5697 61.8535 29.4178 62.047 28.1835C62.2404 26.9492 62.0723 25.6853 61.5629 24.5444C61.0535 23.4036 60.2247 22.4347 59.1765 21.7548C58.1283 21.0749 56.9056 20.7131 55.6562 20.7131C54.4069 20.7131 53.1842 21.0749 52.136 21.7548C51.0879 22.4347 50.259 23.4036 49.7496 24.5444C49.2402 25.6853 49.0721 26.9492 49.2655 28.1835C49.459 29.4178 50.0057 30.5697 50.8397 31.5H42V24.3125C42 24.1218 41.9243 23.939 41.7895 23.8042C41.6547 23.6694 41.4719 23.5937 41.2812 23.5937H38.4062C38.2156 23.5937 38.0328 23.6694 37.898 23.8042C37.7632 23.939 37.6875 24.1218 37.6875 24.3125V31.5H36.9688V21.4375C36.9688 21.2468 36.893 21.064 36.7582 20.9292C36.6234 20.7944 36.4406 20.7187 36.25 20.7187H33.375C33.1844 20.7187 33.0016 20.7944 32.8668 20.9292C32.732 21.064 32.6562 21.2468 32.6562 21.4375V31.5H31.9375V26.4687C31.9375 26.2781 31.8618 26.0953 31.727 25.9605C31.5922 25.8257 31.4094 25.75 31.2188 25.75H28.3438C28.1531 25.75 27.9703 25.8257 27.8355 25.9605C27.7007 26.0953 27.625 26.2781 27.625 26.4687V31.5H22.5938C21.8315 31.5008 21.1007 31.804 20.5618 32.343C20.0228 32.882 19.7196 33.6127 19.7188 34.375V55.9375C19.7196 56.6997 20.0228 57.4305 20.5618 57.9695C21.1007 58.5084 21.8315 58.8116 22.5938 58.8125H37.409L36.4504 61.6875H34.0938C33.9031 61.6875 33.7203 61.7632 33.5855 61.898C33.4507 62.0328 33.375 62.2156 33.375 62.4062V63.8437H26.1875C25.9969 63.8437 25.8141 63.9194 25.6793 64.0542C25.5445 64.189 25.4688 64.3718 25.4688 64.5625C25.4688 64.7531 25.5445 64.9359 25.6793 65.0707C25.8141 65.2055 25.9969 65.2812 26.1875 65.2812H57.8125C58.0031 65.2812 58.1859 65.2055 58.3207 65.0707C58.4555 64.9359 58.5312 64.7531 58.5312 64.5625C58.5312 64.3718 58.4555 64.189 58.3207 64.0542C58.1859 63.9194 58.0031 63.8437 57.8125 63.8437H50.625V62.4062C50.625 62.2156 50.5493 62.0328 50.4145 61.898C50.2797 61.7632 50.0969 61.6875 49.9062 61.6875H47.5496L46.591 58.8125H61.4062C62.1685 58.8116 62.8993 58.5084 63.4382 57.9695C63.9772 57.4305 64.2804 56.6997 64.2812 55.9375V34.375C64.2804 33.6127 63.9772 32.882 63.4382 32.343C62.8993 31.804 62.1685 31.5008 61.4062 31.5ZM56.375 22.2083C57.4492 22.3651 58.4441 22.8644 59.2117 23.632C59.9793 24.3996 60.4786 25.3945 60.6354 26.4687H56.375V22.2083ZM55.9536 27.9062H60.6354C60.5112 28.7699 60.1645 29.5864 59.6292 30.2754C59.0939 30.9645 58.3885 31.5024 57.5823 31.8362C56.7762 32.17 55.897 32.2883 55.0313 32.1794C54.1656 32.0705 53.3431 31.7382 52.6447 31.2152L55.9536 27.9062ZM50.625 27.1875C50.6267 25.9782 51.0633 24.8098 51.855 23.8957C52.6468 22.9816 53.7408 22.3827 54.9375 22.2083V26.8901L51.6286 30.199C50.9761 29.3307 50.6239 28.2736 50.625 27.1875ZM39.125 25.0312H40.5625V38.6875H39.125V25.0312ZM36.9688 32.9375H37.6875V38.6875H36.9688V32.9375ZM34.0938 22.1562H35.5312V38.6875H34.0938V22.1562ZM31.9375 32.9375H32.6562V38.6875H31.9375V32.9375ZM29.0625 27.1875H30.5V38.6875H29.0625V27.1875ZM49.1875 63.125V63.8437H34.8125V63.125H49.1875ZM37.966 61.6875L38.9246 58.8125H45.0754L46.034 61.6875H37.966ZM62.8438 55.9375C62.8433 56.3186 62.6916 56.6839 62.4222 56.9534C62.1527 57.2229 61.7873 57.3745 61.4062 57.375H22.5938C22.2127 57.3745 21.8473 57.2229 21.5778 56.9534C21.3084 56.6839 21.1567 56.3186 21.1562 55.9375V54.5H62.8438V55.9375ZM62.8438 53.0625H21.1562V34.375C21.1567 33.9939 21.3084 33.6285 21.5778 33.3591C21.8473 33.0896 22.2127 32.938 22.5938 32.9375H27.625V38.6875H26.9062V34.375C26.9062 34.1843 26.8305 34.0015 26.6957 33.8667C26.5609 33.7319 26.3781 33.6562 26.1875 33.6562H23.3125C23.1219 33.6562 22.9391 33.7319 22.8043 33.8667C22.6695 34.0015 22.5938 34.1843 22.5938 34.375V39.4062C22.5938 39.5968 22.6695 39.7797 22.8043 39.9144C22.9391 40.0492 23.1219 40.125 23.3125 40.125H46.3125C46.5031 40.125 46.6859 40.0492 46.8207 39.9144C46.9555 39.7797 47.0312 39.5968 47.0312 39.4062V34.375C47.0312 34.1843 46.9555 34.0015 46.8207 33.8667C46.6859 33.7319 46.5031 33.6562 46.3125 33.6562H43.4375C43.2469 33.6562 43.0641 33.7319 42.9293 33.8667C42.7945 34.0015 42.7188 34.1843 42.7188 34.375V38.6875H42V32.9375H52.6986C53.6129 33.4098 54.6271 33.6562 55.6562 33.6562C56.6854 33.6562 57.6996 33.4098 58.6139 32.9375H61.4062C61.7873 32.938 62.1527 33.0896 62.4222 33.3591C62.6916 33.6285 62.8433 33.9939 62.8438 34.375V53.0625ZM25.4688 35.0937V38.6875H24.0312V35.0937H25.4688ZM44.1562 38.6875V35.0937H45.5938V38.6875H44.1562Z" fill="black"/>
<path d="M27.625 55.2188H23.3125C23.1219 55.2188 22.9391 55.2945 22.8043 55.4293C22.6695 55.5641 22.5938 55.7469 22.5938 55.9375C22.5938 56.1281 22.6695 56.3109 22.8043 56.4457C22.9391 56.5805 23.1219 56.6562 23.3125 56.6562H27.625C27.8156 56.6562 27.9984 56.5805 28.1332 56.4457C28.268 56.3109 28.3438 56.1281 28.3438 55.9375C28.3438 55.7469 28.268 55.5641 28.1332 55.4293C27.9984 55.2945 27.8156 55.2188 27.625 55.2188Z" fill="black"/>
<path d="M30.5 55.2188H29.7812C29.5906 55.2188 29.4078 55.2945 29.273 55.4293C29.1382 55.5641 29.0625 55.7469 29.0625 55.9375C29.0625 56.1281 29.1382 56.3109 29.273 56.4457C29.4078 56.5805 29.5906 56.6562 29.7812 56.6562H30.5C30.6906 56.6562 30.8734 56.5805 31.0082 56.4457C31.143 56.3109 31.2188 56.1281 31.2188 55.9375C31.2188 55.7469 31.143 55.5641 31.0082 55.4293C30.8734 55.2945 30.6906 55.2188 30.5 55.2188Z" fill="black"/>
<path d="M49.9062 38.6875C50.0007 38.6876 50.0942 38.6691 50.1814 38.633C50.2686 38.5969 50.3478 38.5438 50.4145 38.477L53.0789 35.8125H59.25C59.4406 35.8125 59.6234 35.7368 59.7582 35.602C59.893 35.4672 59.9687 35.2844 59.9687 35.0938C59.9687 34.9031 59.893 34.7203 59.7582 34.5855C59.6234 34.4507 59.4406 34.375 59.25 34.375H52.7812C52.6869 34.375 52.5934 34.3936 52.5062 34.4297C52.419 34.4658 52.3397 34.5188 52.273 34.5855L49.398 37.4605C49.2975 37.561 49.229 37.6891 49.2013 37.8285C49.1735 37.968 49.1878 38.1125 49.2422 38.2438C49.2966 38.3751 49.3887 38.4874 49.5069 38.5664C49.6251 38.6454 49.7641 38.6875 49.9062 38.6875Z" fill="black"/>
<path d="M59.25 46.5937C58.8723 46.594 58.5013 46.6935 58.1741 46.8822C57.8469 47.071 57.5751 47.3423 57.3857 47.6692L49.8613 43.2794C49.7594 42.7896 49.4903 42.3505 49.1002 42.0373C48.71 41.7241 48.2231 41.5563 47.7229 41.5627C47.2226 41.569 46.7401 41.7492 46.3581 42.0722C45.976 42.3952 45.7182 42.8411 45.6288 43.3333L38.0568 49.0123C37.8508 48.6951 37.5649 48.4377 37.2279 48.266C36.8908 48.0943 36.5146 48.0144 36.1368 48.0342C35.7591 48.0541 35.3933 48.173 35.0761 48.3791C34.759 48.5852 34.5016 48.8711 34.33 49.2082L26.8461 46.0897C26.728 45.5974 26.4405 45.1622 26.0339 44.8605C25.6273 44.5588 25.1275 44.4097 24.622 44.4394C24.1166 44.469 23.6377 44.6755 23.2691 45.0227C22.9006 45.3699 22.666 45.8357 22.6063 46.3385C22.5466 46.8413 22.6657 47.3491 22.9427 47.7729C23.2196 48.1967 23.6369 48.5096 24.1214 48.6568C24.6058 48.804 25.1266 48.7761 25.5925 48.5779C26.0585 48.3798 26.4399 48.0241 26.67 47.573L34.1539 50.6915C34.2695 51.1724 34.5469 51.5989 34.9395 51.8996C35.3322 52.2002 35.8163 52.3567 36.3107 52.3428C36.805 52.3289 37.2796 52.1454 37.6548 51.8232C38.0299 51.501 38.2829 51.0595 38.3712 50.5729L45.9432 44.8939C46.1438 45.2029 46.4203 45.4553 46.7463 45.627C47.0723 45.7986 47.4369 45.8838 47.8052 45.8743C48.1735 45.8649 48.5332 45.7611 48.8499 45.5729C49.1666 45.3847 49.4298 45.1185 49.6143 44.7996L57.1387 49.1893C57.2217 49.5884 57.4162 49.9558 57.6996 50.2488C57.9829 50.5419 58.3435 50.7486 58.7396 50.845C59.1356 50.9415 59.5509 50.9237 59.9373 50.7937C60.3236 50.6637 60.6652 50.4269 60.9224 50.1106C61.1796 49.7944 61.342 49.4118 61.3906 49.007C61.4392 48.6023 61.372 48.1921 61.197 47.824C61.0219 47.4559 60.7461 47.1449 60.4015 46.9272C60.0569 46.7094 59.6576 46.5938 59.25 46.5937ZM25.4688 46.5973C25.4683 46.7883 25.392 46.9712 25.2568 47.106C25.1215 47.2408 24.9383 47.3163 24.7473 47.3161C24.5564 47.3159 24.3733 47.2398 24.2384 47.1047C24.1035 46.9696 24.0277 46.7865 24.0277 46.5955C24.0277 46.4046 24.1035 46.2215 24.2384 46.0864C24.3733 45.9513 24.5564 45.8752 24.7473 45.875C24.9383 45.8748 25.1215 45.9503 25.2568 46.0851C25.392 46.2199 25.4683 46.4028 25.4688 46.5937V46.5973ZM36.25 50.9062C36.0595 50.906 35.8768 50.8302 35.7421 50.6954C35.6073 50.5607 35.5315 50.378 35.5313 50.1875V50.1839C35.532 50.0419 35.5747 49.9033 35.6541 49.7856C35.7335 49.6678 35.846 49.5763 35.9774 49.5224C36.1088 49.4686 36.2532 49.4549 36.3924 49.483C36.5316 49.5111 36.6593 49.5799 36.7595 49.6805C36.8597 49.7812 36.9277 49.9093 36.9552 50.0486C36.9826 50.1879 36.9682 50.3322 36.9137 50.4634C36.8592 50.5945 36.7671 50.7065 36.6489 50.7854C36.5308 50.8642 36.392 50.9062 36.25 50.9062ZM47.75 44.4375C47.6078 44.4375 47.4689 44.3953 47.3507 44.3164C47.2325 44.2374 47.1404 44.1251 47.086 43.9938C47.0316 43.8625 47.0173 43.7179 47.0451 43.5785C47.0728 43.4391 47.1412 43.311 47.2418 43.2105C47.3423 43.11 47.4704 43.0415 47.6098 43.0138C47.7492 42.9861 47.8937 43.0003 48.0251 43.0547C48.1564 43.1091 48.2686 43.2012 48.3476 43.3194C48.4266 43.4376 48.4688 43.5766 48.4688 43.7187C48.4685 43.9093 48.3927 44.092 48.2579 44.2267C48.1232 44.3614 47.9405 44.4372 47.75 44.4375ZM59.25 49.4687C59.1078 49.4687 58.9689 49.4266 58.8507 49.3476C58.7325 49.2686 58.6404 49.1564 58.586 49.025C58.5316 48.8937 58.5173 48.7492 58.5451 48.6098C58.5728 48.4704 58.6413 48.3423 58.7418 48.2418C58.8423 48.1412 58.9704 48.0728 59.1098 48.0451C59.2492 48.0173 59.3937 48.0316 59.5251 48.086C59.6564 48.1404 59.7686 48.2325 59.8476 48.3507C59.9266 48.4689 59.9688 48.6078 59.9688 48.75C59.9685 48.9405 59.8927 49.1232 59.7579 49.2579C59.6232 49.3927 59.4405 49.4685 59.25 49.4687Z" fill="white"/>
<path d="M53.5 50.9062H48.4688C48.2781 50.9062 48.0953 50.982 47.9605 51.1168C47.8257 51.2516 47.75 51.4344 47.75 51.625C47.75 51.8156 47.8257 51.9984 47.9605 52.1332C48.0953 52.268 48.2781 52.3438 48.4688 52.3438H53.5C53.6906 52.3438 53.8734 52.268 54.0082 52.1332C54.143 51.9984 54.2188 51.8156 54.2188 51.625C54.2188 51.4344 54.143 51.2516 54.0082 51.1168C53.8734 50.982 53.6906 50.9062 53.5 50.9062Z" fill="black"/>
<path d="M53.5 48.75H51.3438C51.1531 48.75 50.9703 48.8257 50.8355 48.9605C50.7007 49.0953 50.625 49.2781 50.625 49.4688C50.625 49.6594 50.7007 49.8422 50.8355 49.977C50.9703 50.1118 51.1531 50.1875 51.3438 50.1875H53.5C53.6906 50.1875 53.8734 50.1118 54.0082 49.977C54.143 49.8422 54.2188 49.6594 54.2188 49.4688C54.2188 49.2781 54.143 49.0953 54.0082 48.9605C53.8734 48.8257 53.6906 48.75 53.5 48.75Z" fill="black"/>
<path d="M23.3125 42.2812H31.2188C31.4094 42.2812 31.5922 42.2055 31.727 42.0707C31.8618 41.9359 31.9375 41.7531 31.9375 41.5625C31.9375 41.3719 31.8618 41.1891 31.727 41.0543C31.5922 40.9195 31.4094 40.8438 31.2188 40.8438H23.3125C23.1219 40.8438 22.9391 40.9195 22.8043 41.0543C22.6695 41.1891 22.5938 41.3719 22.5938 41.5625C22.5938 41.7531 22.6695 41.9359 22.8043 42.0707C22.9391 42.2055 23.1219 42.2812 23.3125 42.2812Z" fill="black"/>
<path d="M33.375 42.2812H34.0938C34.2844 42.2812 34.4672 42.2055 34.602 42.0707C34.7368 41.9359 34.8125 41.7531 34.8125 41.5625C34.8125 41.3719 34.7368 41.1891 34.602 41.0543C34.4672 40.9195 34.2844 40.8438 34.0938 40.8438H33.375C33.1844 40.8438 33.0016 40.9195 32.8668 41.0543C32.732 41.1891 32.6562 41.3719 32.6562 41.5625C32.6562 41.7531 32.732 41.9359 32.8668 42.0707C33.0016 42.2055 33.1844 42.2812 33.375 42.2812Z" fill="black"/>
</svg>
