<svg width="59" height="48" viewBox="0 0 59 48" fill="none" xmlns="http://www.w3.org/2000/svg">
<g clip-path="url(#clip0)">
<path d="M52.4261 37.1359H6.57388C5.2677 37.1359 4.20892 36.0873 4.20892 34.7936V5.03546C4.20892 3.74177 5.2677 2.69312 6.57388 2.69312H52.4262C53.7324 2.69312 54.7912 3.74177 54.7912 5.03546V34.7936C54.7911 36.0872 53.7323 37.1359 52.4261 37.1359Z" fill="#C5D3DD"/>
<path d="M54.7907 5.03531V34.7934C54.7907 36.0874 53.7318 37.1361 52.4266 37.1361H50.1245C51.4298 37.1361 52.4887 36.0874 52.4887 34.7934V5.03531C52.4887 3.74139 51.4298 2.69263 50.1245 2.69263H52.4266C53.7318 2.69263 54.7907 3.74139 54.7907 5.03531V5.03531Z" fill="#B6C4CF"/>
<path d="M51.1225 7.03523V32.7943C51.1225 33.2925 50.715 33.696 50.2108 33.696H8.78915C8.285 33.696 7.87753 33.2925 7.87753 32.7943V7.03523C7.87753 6.53704 8.285 6.13232 8.78915 6.13232H50.211C50.715 6.13232 51.1225 6.53704 51.1225 7.03523V7.03523Z" fill="#F2FBFF"/>
<path d="M51.1225 7.03474V32.7938C51.1225 33.292 50.715 33.6955 50.2108 33.6955H47.9089C48.4131 33.6955 48.8205 33.292 48.8205 32.7938V7.03474C48.8205 6.53655 48.4131 6.13184 47.9089 6.13184H50.2108C50.715 6.13195 51.1225 6.53666 51.1225 7.03474Z" fill="#DFF6FD"/>
<path d="M51.1225 19.9065V32.7849C51.1225 33.2842 50.715 33.6878 50.212 33.6878H29.5V19.9065H51.1225Z" fill="#EDF9D9"/>
<path d="M51.1225 19.9065V32.7849C51.1225 33.2842 50.715 33.6878 50.212 33.6878H47.9112C48.4142 33.6878 48.8217 33.2842 48.8217 32.7849V19.9065H51.1225Z" fill="#E4F7C6"/>
<path d="M29.5 6.12402V33.6877H8.78915C8.285 33.6877 7.87753 33.2842 7.87753 32.786V7.02693C7.87753 6.52874 8.285 6.12402 8.78915 6.12402H29.5Z" fill="#FFEFD2"/>
<path d="M27.1981 6.12402H29.5V33.6877H27.1981V6.12402Z" fill="#FEE8C7"/>
<path d="M29.5 33.6881H8.78903C8.28603 33.6881 7.87741 33.2846 7.87741 32.7852V19.9065H29.5V33.6881Z" fill="#CC1237" fill-opacity="0.4"/>
<path d="M27.1981 19.9065H29.5V33.6878H27.1981V19.9065Z" fill="#CC1237" fill-opacity="0.4"/>
<path d="M55.0578 44.3068H3.94217C2.24177 44.3068 0.86322 42.9416 0.86322 41.2573V37.8401C0.86322 37.4512 1.1815 37.136 1.5741 37.136H57.4259C57.8185 37.136 58.1368 37.4512 58.1368 37.8401V41.2573C58.1368 42.9416 56.7582 44.3068 55.0578 44.3068Z" fill="#8D9CA8"/>
<path d="M58.1367 37.8396V41.2573C58.1367 42.9411 56.7578 44.3068 55.0577 44.3068H52.7558C54.4559 44.3068 55.8347 42.9411 55.8347 41.2573V37.8396C55.8347 37.4509 55.517 37.1362 55.1246 37.1362H57.4266C57.819 37.1362 58.1367 37.4509 58.1367 37.8396V37.8396Z" fill="#7A8C98"/>
<path d="M33.4784 40.7212H25.5215C24.2518 40.7212 23.2224 39.7017 23.2224 38.444V37.1357H35.7775V38.444C35.7775 39.7018 34.7482 40.7212 33.4784 40.7212Z" fill="#596C76"/>
<path d="M35.7775 37.1362V38.4437C35.7775 39.7023 34.7486 40.7215 33.4789 40.7215H31.1965C32.466 40.7215 33.4951 39.7024 33.4951 38.4437V37.1362H35.7775Z" fill="#465A61"/>
<path d="M22.2953 19.9144C22.2953 18.6399 21.6211 17.522 20.6069 16.8899C20.2253 16.652 19.9938 16.2369 19.9938 15.7903V15.7902C19.9938 15.3801 20.1902 14.9956 20.5212 14.749C21.3261 14.149 21.8216 13.1638 21.7277 12.0696C21.6015 10.6005 20.3904 9.42197 18.9054 9.32039C17.1229 9.19861 15.6387 10.5947 15.6387 12.3341C15.6387 13.326 16.1215 14.2061 16.8671 14.7568C17.1953 14.9992 17.3839 15.3847 17.3839 15.7902C17.3839 16.2368 17.1524 16.6519 16.7708 16.8898C15.7566 17.5218 15.0824 18.6398 15.0824 19.9143H22.2953V19.9144Z" fill="#C5D3DD"/>
<path d="M43.9178 19.9144C43.9178 18.6399 43.2435 17.522 42.2294 16.8899C41.8477 16.652 41.6162 16.2369 41.6162 15.7903V15.7902C41.6162 15.3801 41.8127 14.9956 42.1436 14.749C42.9485 14.149 43.4441 13.1638 43.3501 12.0696C43.224 10.6005 42.0128 9.42197 40.5278 9.32039C38.7454 9.19861 37.2612 10.5947 37.2612 12.3341C37.2612 13.326 37.744 14.2061 38.4896 14.7568C38.8177 14.9992 39.0064 15.3847 39.0064 15.7902C39.0064 16.2368 38.7749 16.6519 38.3932 16.8898C37.3789 17.5218 36.7047 18.6398 36.7047 19.9143H43.9178V19.9144Z" fill="#C5D3DD"/>
<path d="M22.2953 33.6881C22.2953 32.4136 21.6211 31.2956 20.6069 30.6636C20.2253 30.4257 19.9938 30.0106 19.9938 29.564V29.5639C19.9938 29.1538 20.1902 28.7693 20.5212 28.5227C21.3261 27.9227 21.8216 26.9375 21.7277 25.8433C21.6015 24.3742 20.3904 23.1957 18.9054 23.0941C17.1229 22.9723 15.6387 24.3684 15.6387 26.1077C15.6387 27.0997 16.1215 27.9798 16.8671 28.5304C17.1953 28.7729 17.3839 29.1584 17.3839 29.5639C17.3839 30.0105 17.1524 30.4256 16.7708 30.6635C15.7566 31.2955 15.0824 32.4135 15.0824 33.688H22.2953V33.6881Z" fill="#C5D3DD"/>
<path d="M43.9178 33.6881C43.9178 32.4136 43.2435 31.2956 42.2294 30.6636C41.8477 30.4257 41.6162 30.0106 41.6162 29.564V29.5639C41.6162 29.1538 41.8127 28.7693 42.1436 28.5227C42.9485 27.9227 43.4441 26.9375 43.3501 25.8433C43.224 24.3742 42.0128 23.1957 40.5278 23.0941C38.7454 22.9723 37.2612 24.3684 37.2612 26.1077C37.2612 27.0997 37.744 27.9798 38.4896 28.5304C38.8177 28.7729 39.0064 29.1584 39.0064 29.5639C39.0064 30.0105 38.7749 30.4256 38.3932 30.6635C37.3789 31.2955 36.7047 32.4135 36.7047 33.688H43.9178V33.6881Z" fill="#C5D3DD"/>
<path d="M22.2947 19.9144H20.1055C20.1055 18.6398 19.4311 17.5216 18.417 16.89C18.036 16.6516 17.8046 16.2368 17.8046 15.7898C17.8046 15.5858 17.8541 15.3863 17.944 15.2084C18.0337 15.0295 18.1661 14.8722 18.3318 14.7491C19.1364 14.1494 19.6325 13.1633 19.5381 12.0701C19.438 10.9039 18.6541 9.9201 17.5918 9.51425C17.9947 9.36028 18.44 9.28849 18.905 9.32045C20.3898 9.42192 21.6017 10.6007 21.7272 12.0701C21.8216 13.1634 21.3255 14.1495 20.5209 14.7491C20.3564 14.8722 20.224 15.0295 20.1331 15.2084C20.0433 15.3863 19.9937 15.5858 19.9937 15.7898C19.9937 16.2367 20.2251 16.6516 20.6072 16.89C21.6215 17.5216 22.2947 18.6398 22.2947 19.9144V19.9144Z" fill="#B6C4CF"/>
<path d="M43.9173 19.9144H41.7281C41.7281 18.6398 41.0536 17.5216 40.0396 16.89C39.6586 16.6516 39.4272 16.2368 39.4272 15.7898C39.4272 15.5858 39.4766 15.3863 39.5665 15.2084C39.6563 15.0295 39.7887 14.8722 39.9544 14.7491C40.759 14.1494 41.2551 13.1633 41.1607 12.0701C41.0605 10.9039 40.2767 9.9201 39.2144 9.51425C39.6172 9.36028 40.0626 9.28849 40.5277 9.32045C42.0125 9.42192 43.2244 10.6007 43.3499 12.0701C43.4443 13.1634 42.9482 14.1495 42.1436 14.7491C41.9791 14.8722 41.8467 15.0295 41.7558 15.2084C41.666 15.3863 41.6164 15.5858 41.6164 15.7898C41.6164 16.2367 41.8478 16.6516 42.2288 16.89C43.244 17.5216 43.9173 18.6398 43.9173 19.9144Z" fill="#B6C4CF"/>
<path d="M22.2947 33.6875H20.1055C20.1055 32.413 19.4311 31.2959 18.417 30.6631C18.036 30.4261 17.8046 30.0111 17.8046 29.5642C17.8046 29.3589 17.8541 29.1606 17.944 28.9816C18.0337 28.8038 18.1661 28.6454 18.3318 28.5222C19.1364 27.9226 19.6325 26.9376 19.5381 25.8433C19.438 24.6771 18.6553 23.6944 17.5941 23.2886C17.997 23.1336 18.4412 23.0617 18.9051 23.0936C20.3899 23.1951 21.6018 24.3739 21.7273 25.8433C21.8217 26.9377 21.3256 27.9227 20.5211 28.5222C20.3565 28.6454 20.2241 28.8038 20.1332 28.9816C20.0434 29.1606 19.9939 29.3589 19.9939 29.5642C19.9939 30.0111 20.2252 30.426 20.6074 30.6631C21.6215 31.2959 22.2947 32.413 22.2947 33.6875V33.6875Z" fill="#B6C4CF"/>
<path d="M43.9173 33.6875H41.7281C41.7281 32.413 41.0536 31.2959 40.0396 30.6631C39.6586 30.4261 39.4272 30.0111 39.4272 29.5642C39.4272 29.3589 39.4766 29.1606 39.5665 28.9816C39.6563 28.8038 39.7887 28.6454 39.9544 28.5222C40.759 27.9226 41.2551 26.9376 41.1607 25.8433C41.0605 24.6771 40.2779 23.6944 39.2167 23.2886C39.6195 23.1336 40.0638 23.0617 40.5277 23.0936C42.0125 23.1951 43.2244 24.3739 43.3499 25.8433C43.4443 26.9377 42.9482 27.9227 42.1436 28.5222C41.9791 28.6454 41.8467 28.8038 41.7558 28.9816C41.666 29.1606 41.6164 29.3589 41.6164 29.5642C41.6164 30.0111 41.8478 30.426 42.2288 30.6631C43.244 31.2959 43.9173 32.413 43.9173 33.6875Z" fill="#B6C4CF"/>
<path d="M8.78914 5.26904C7.81057 5.26904 7.0143 6.05759 7.0143 7.02691V7.03525V32.7853V32.786V32.7943C7.0143 33.7629 7.81045 34.5509 8.78914 34.5509H50.2109C51.1895 34.5509 51.9858 33.7628 51.9858 32.7943V32.7848V7.03525C51.9858 6.06603 51.1896 5.27737 50.2109 5.27737L8.78914 5.26904ZM16.0835 32.8328C16.2802 32.2426 16.6791 31.7308 17.2302 31.3874C17.8668 30.9908 18.2469 30.3092 18.2469 29.5642C18.2469 28.8875 17.9239 28.245 17.3829 27.8453C16.8229 27.4317 16.5017 26.7985 16.5017 26.108C16.5017 25.501 16.7486 24.9384 17.1969 24.524C17.6447 24.1101 18.2299 23.9052 18.8456 23.9473C19.908 24.0199 20.7771 24.8663 20.8673 25.916C20.932 26.6686 20.6084 27.3877 20.0019 27.8398C19.4562 28.2466 19.1304 28.8912 19.1304 29.5642C19.1304 30.3092 19.5104 30.9908 20.1471 31.3874C20.6981 31.7308 21.0972 32.2426 21.2939 32.8328H16.0835ZM28.6368 19.0516H27.8782C27.4014 19.0516 27.015 19.4344 27.015 19.9066C27.015 20.3787 27.4014 20.7615 27.8782 20.7615H28.6368V32.8328H23.0753C22.842 31.6461 22.1276 30.6011 21.0667 29.94C20.9354 29.8582 20.8571 29.7176 20.8571 29.5641C20.8571 29.4254 20.9256 29.2916 21.0403 29.2061C22.1245 28.3979 22.7031 27.1138 22.5879 25.7711C22.4262 23.889 20.8686 22.3716 18.9648 22.2414C17.8663 22.1664 16.8206 22.5331 16.0191 23.274C15.2287 24.0047 14.7754 25.0376 14.7754 26.1081C14.7754 27.3255 15.3644 28.4875 16.3509 29.2161C16.4572 29.2946 16.5207 29.4249 16.5207 29.5643C16.5207 29.718 16.4423 29.8585 16.3111 29.9402C15.2501 30.6014 14.5358 31.6463 14.3024 32.833H8.78914C8.78015 32.833 8.7722 32.83 8.76505 32.826C8.75088 32.8177 8.74085 32.803 8.74085 32.7855V20.7615H23.8097C24.2864 20.7615 24.6729 20.3787 24.6729 19.9066C24.6729 19.4344 24.2864 19.0516 23.8097 19.0516H23.0736C22.8387 17.8681 22.1253 16.8261 21.0666 16.1663C20.9353 16.0845 20.8569 15.944 20.8569 15.7905C20.8569 15.6518 20.9255 15.5179 21.0402 15.4324C22.1244 14.6243 22.7029 13.3402 22.5878 11.9975C22.4261 10.1155 20.8686 8.59795 18.9646 8.46772C17.8661 8.39274 16.8204 8.75933 16.0188 9.5004C15.2284 10.2311 14.7752 11.264 14.7752 12.3344C14.7752 13.5519 15.3642 14.7139 16.3508 15.4425C16.4571 15.521 16.5204 15.6511 16.5204 15.7906C16.5204 15.9441 16.4421 16.0846 16.3108 16.1664C15.2521 16.8262 14.5388 17.8683 14.3039 19.0517H8.74074V7.03525C8.74074 7.00888 8.7624 6.98742 8.78902 6.98742H28.6366V19.0516H28.6368ZM17.383 14.0716C16.823 13.658 16.5018 13.0248 16.5018 12.3343C16.5018 11.7274 16.7487 11.1648 17.197 10.7504C17.6448 10.3363 18.2306 10.1311 18.8458 10.1737C19.9082 10.2463 20.7773 11.0927 20.8674 12.1423C20.9321 12.8949 20.6085 13.6141 20.0021 14.066C19.4563 14.4728 19.1305 15.1174 19.1305 15.7906C19.1305 16.5355 19.5105 17.217 20.1472 17.6137C20.696 17.9557 21.0935 18.4647 21.2911 19.0517H16.0865C16.2841 18.4647 16.6817 17.9557 17.2303 17.6137C17.867 17.2171 18.247 16.5355 18.247 15.7906C18.247 15.1138 17.924 14.4712 17.383 14.0716V14.0716ZM37.7059 32.8328C37.9026 32.2426 38.3016 31.7308 38.8527 31.3874C39.4893 30.9907 39.8695 30.3091 39.8695 29.5642C39.8695 28.8877 39.5465 28.2451 39.0054 27.8453C38.4454 27.4315 38.1242 26.7983 38.1242 26.108C38.1242 25.501 38.3712 24.9384 38.8194 24.524C39.2674 24.1101 39.8526 23.9051 40.4682 23.9473C41.5306 24.0199 42.3998 24.8663 42.4899 25.916C42.5545 26.6686 42.231 27.3877 41.6246 27.8397C41.0788 28.2465 40.753 28.8911 40.753 29.5642C40.753 30.3092 41.133 30.9908 41.7697 31.3874C42.3207 31.7308 42.7198 32.2426 42.9165 32.8328H37.7059ZM50.2592 32.7848C50.2592 32.8118 50.2385 32.8328 50.212 32.8328H44.6977C44.4643 31.6461 43.75 30.6011 42.689 29.94C42.5578 29.8582 42.4794 29.7176 42.4794 29.5641C42.4794 29.4254 42.5479 29.2916 42.6626 29.2061C43.7469 28.3979 44.3253 27.1138 44.2102 25.7711C44.0485 23.889 42.4909 22.3715 40.5871 22.2414C39.4887 22.1664 38.443 22.5331 37.6414 23.274C36.851 24.0047 36.3978 25.0376 36.3978 26.1081C36.3978 27.3255 36.9868 28.4874 37.9733 29.2161C38.0796 29.2946 38.143 29.4249 38.143 29.5643C38.143 29.718 38.0647 29.8585 37.9334 29.9402C36.8723 30.6014 36.158 31.6463 35.9246 32.833H30.3632V20.7614H50.2592V32.7848ZM39.0054 14.0716C38.4454 13.6579 38.1242 13.0247 38.1242 12.3343C38.1242 11.7274 38.3712 11.1648 38.8194 10.7504C39.2674 10.3363 39.8533 10.1311 40.4682 10.1737C41.5307 10.2463 42.3998 11.0927 42.4899 12.1423C42.5545 12.8949 42.231 13.6141 41.6246 14.066C41.0788 14.4728 40.753 15.1174 40.753 15.7906C40.753 16.5355 41.133 17.2171 41.7697 17.6137C42.3183 17.9557 42.716 18.4647 42.9136 19.0516H37.709C37.9067 18.4646 38.3042 17.9557 38.853 17.6137C39.4895 17.217 39.8697 16.5355 39.8697 15.7906C39.8695 15.1138 39.5465 14.4712 39.0054 14.0716V14.0716ZM50.2592 7.03525V19.0515H44.6961C44.4612 17.868 43.7478 16.8261 42.6891 16.1663C42.5579 16.0845 42.4795 15.944 42.4795 15.7905C42.4795 15.6518 42.548 15.5179 42.6627 15.4324C43.747 14.6243 44.3255 13.3402 44.2103 11.9975C44.0487 10.1155 42.4912 8.59795 40.5871 8.46772C39.4887 8.39274 38.443 8.75933 37.6414 9.5004C36.851 10.2311 36.3978 11.264 36.3978 12.3344C36.3978 13.5519 36.9868 14.7137 37.9734 15.4425C38.0796 15.521 38.143 15.6511 38.143 15.7906C38.143 15.9441 38.0647 16.0846 37.9334 16.1664C36.8747 16.8262 36.1613 17.8681 35.9265 19.0516H30.3633V6.98742H50.2109C50.2376 6.98742 50.2592 7.00888 50.2592 7.03525V7.03525Z" fill="black"/>
<path d="M57.4259 36.2808H55.2825C55.5196 35.8362 55.6544 35.3304 55.6544 34.7936V14.8092C55.6544 14.337 55.2679 13.9542 54.7912 13.9542C54.3144 13.9542 53.9279 14.337 53.9279 14.8092V34.7936C53.9279 35.6136 53.2543 36.2808 52.4262 36.2808H6.57388C5.74581 36.2808 5.07215 35.6136 5.07215 34.7936V5.03545C5.07215 4.21529 5.74581 3.54807 6.57388 3.54807H52.4262C53.2543 3.54807 53.9279 4.21529 53.9279 5.03545V10.8241C53.9279 11.2963 54.3144 11.6791 54.7912 11.6791C55.2679 11.6791 55.6544 11.2963 55.6544 10.8241V5.03545C55.6544 3.27244 54.2062 1.83813 52.4262 1.83813H6.57388C4.79386 1.83813 3.34571 3.27244 3.34571 5.03545V34.7936C3.34571 35.3304 3.48053 35.8363 3.71757 36.2808H1.57421C0.706263 36.2808 0.000106812 36.9802 0.000106812 37.8399V41.2571C0.000106812 43.4101 1.76861 45.1616 3.94227 45.1616H55.0579C57.2317 45.1616 59.0001 43.41 59.0001 41.2571V37.8399C59 36.9804 58.2938 36.2808 57.4259 36.2808ZM24.0857 37.9909H34.9143V38.4442C34.9143 39.2284 34.2701 39.8663 33.4783 39.8663H25.5215C24.7297 39.8663 24.0856 39.2283 24.0856 38.4442V37.9909H24.0857ZM57.2735 41.2573C57.2735 42.4673 56.2795 43.4518 55.0578 43.4518H3.94216C2.72044 43.4518 1.72643 42.4674 1.72643 41.2573V37.9909H22.3591V38.4442C22.3591 40.1713 23.7778 41.5764 25.5215 41.5764H33.4783C35.2221 41.5764 36.6407 40.1713 36.6407 38.4442V37.9909H57.2734V41.2573H57.2735Z" fill="black"/>
</g>
<defs>
<clipPath id="clip0">
<rect width="59" height="48" fill="white"/>
</clipPath>
</defs>
</svg>
