<svg width="48" height="48" viewBox="0 0 48 48" fill="none" xmlns="http://www.w3.org/2000/svg">
<path d="M9 2.8125V19.6875H39C39 18.9504 39 3.70331 39 2.8125H9Z" fill="#CC1237" fill-opacity="0.4"/>
<path d="M47.0625 28.3125V47.0625H0.9375V28.3125H47.0625Z" fill="#8690A6"/>
<path d="M4.96875 32.0625V43.3125H43.3125C43.3125 41.906 43.3125 33.2905 43.3125 32.0625H4.96875Z" fill="#EEFAFF"/>
<path d="M31.5 39.5625V43.3125H16.5V39.5625H31.5Z" fill="#A4CAFF"/>
<path d="M27.75 0.9375C25.6791 0.9375 24 2.61656 24 4.6875C24 2.61656 22.3209 0.9375 20.25 0.9375H12.75V15.9375H20.2378C22.3097 15.9375 23.9878 17.6166 23.9878 19.6875C23.9878 19.5872 23.9916 19.4869 24 19.3884C24.1519 17.4572 25.7672 15.9375 27.7378 15.9375H35.25C35.25 12.3296 35.25 3.87825 35.25 0.9375H27.75Z" fill="#EEFAFF"/>
<path d="M26.8003 5.625H32.4375C32.9552 5.625 33.375 5.20528 33.375 4.6875C33.375 4.16972 32.9552 3.75 32.4375 3.75H26.8003C26.2826 3.75 25.8628 4.16972 25.8628 4.6875C25.8628 5.20528 26.2826 5.625 26.8003 5.625Z" fill="black"/>
<path d="M21.1875 3.75H15.5503C15.0326 3.75 14.6128 4.16972 14.6128 4.6875C14.6128 5.20528 15.0326 5.625 15.5503 5.625H21.1875C21.7052 5.625 22.125 5.20528 22.125 4.6875C22.125 4.16972 21.7052 3.75 21.1875 3.75Z" fill="black"/>
<path d="M44.25 43.3125V32.0625C44.25 31.5447 43.8302 31.125 43.3125 31.125H4.96875C4.45106 31.125 4.03125 31.5447 4.03125 32.0625V43.3125C4.03125 43.8303 4.45106 44.25 4.96875 44.25H43.3125C43.8302 44.25 44.25 43.8303 44.25 43.3125ZM32.4375 33H34.3125V34.875H32.4375V33ZM28.6875 33H30.5625V34.875H28.6875V33ZM24.9375 33H26.8125V34.875H24.9375V33ZM28.6875 36.75V38.625H26.8125V36.75H28.6875ZM21.1875 33H23.0625V34.875H21.1875V33ZM24.9375 36.75V38.625H23.0625V36.75H24.9375ZM17.4375 33H19.3125V34.875H17.4375V33ZM21.1875 36.75V38.625H19.3125V36.75H21.1875ZM13.6875 33H15.5625V34.875H13.6875V33ZM9.9375 33H11.8125V34.875H9.9375V33ZM5.90625 33H8.0625V34.875H5.90625V33ZM5.90625 36.75H9.9375V38.625H5.90625V36.75ZM8.0625 42.375H5.90625V40.5H8.0625V42.375ZM11.8125 42.375H9.9375V40.5H11.8125V42.375ZM11.8125 36.75H13.6875V38.625H11.8125V36.75ZM15.5625 42.375H13.6875V40.5H15.5625V42.375ZM15.5625 36.75H17.4375V38.625H15.5625V36.75ZM30.5625 42.375H17.4375V40.5H30.5625V42.375ZM30.5625 36.75H32.4375V38.625H30.5625V36.75ZM34.3125 42.375H32.4375V40.5H34.3125V42.375ZM34.3125 36.75H36.1875V38.625H34.3125V36.75ZM42.375 42.375H36.1875V40.5H42.375V42.375ZM42.375 38.625H38.0625V36.75H42.375V38.625ZM42.375 34.875H36.1875V33H42.375V34.875Z" fill="black"/>
<path d="M26.8003 9.375H32.4375C32.9552 9.375 33.375 8.95528 33.375 8.4375C33.375 7.91972 32.9552 7.5 32.4375 7.5H26.8003C26.2826 7.5 25.8628 7.91972 25.8628 8.4375C25.8628 8.95528 26.2826 9.375 26.8003 9.375Z" fill="black"/>
<path d="M33.375 12.1875C33.375 11.6697 32.9552 11.25 32.4375 11.25H26.8003C26.2826 11.25 25.8628 11.6697 25.8628 12.1875C25.8628 12.7053 26.2826 13.125 26.8003 13.125H32.4375C32.9552 13.125 33.375 12.7053 33.375 12.1875Z" fill="black"/>
<path d="M21.1875 7.5H15.5503C15.0326 7.5 14.6128 7.91972 14.6128 8.4375C14.6128 8.95528 15.0326 9.375 15.5503 9.375H21.1875C21.7052 9.375 22.125 8.95528 22.125 8.4375C22.125 7.91972 21.7052 7.5 21.1875 7.5Z" fill="black"/>
<path d="M21.1875 11.25H15.5503C15.0326 11.25 14.6128 11.6697 14.6128 12.1875C14.6128 12.7053 15.0326 13.125 15.5503 13.125H21.1875C21.7052 13.125 22.125 12.7053 22.125 12.1875C22.125 11.6697 21.7052 11.25 21.1875 11.25Z" fill="black"/>
<path d="M24 48C24.5178 48 24.9375 47.5803 24.9375 47.0625C24.9375 46.5447 24.5178 46.125 24 46.125C23.4822 46.125 23.0625 46.5447 23.0625 47.0625C23.0625 47.5803 23.4822 48 24 48Z" fill="black"/>
<path d="M0.9375 48H19.7812C20.2989 48 20.7188 47.5803 20.7188 47.0625C20.7188 46.5447 20.2989 46.125 19.7812 46.125H1.875V29.25H46.125V46.125H28.2188C27.7011 46.125 27.2812 46.5447 27.2812 47.0625C27.2812 47.5803 27.7011 48 28.2188 48H47.0625C47.5802 48 48 47.5803 48 47.0625V28.3125C48 27.7947 47.5802 27.375 47.0625 27.375H25.0988C25.4858 26.2838 26.5278 25.5 27.75 25.5H43.3125C45.8972 25.5 48 23.3972 48 20.8125C48 18.2278 45.8972 16.125 43.3125 16.125H39.9375V2.8125C39.9375 2.29472 39.5177 1.875 39 1.875H36.1875V0.9375C36.1875 0.419719 35.7677 0 35.25 0H27.75C26.2182 0 24.8559 0.738563 24 1.87828C23.1441 0.738563 21.7818 0 20.25 0H12.75C12.2323 0 11.8125 0.419719 11.8125 0.9375V1.875H9C8.48231 1.875 8.0625 2.29472 8.0625 2.8125V19.6875C8.0625 20.2053 8.48231 20.625 9 20.625H39C39.5177 20.625 39.9375 20.2053 39.9375 19.6875V18H43.3125C44.8633 18 46.125 19.2617 46.125 20.8125C46.125 22.3633 44.8633 23.625 43.3125 23.625H27.75C25.4863 23.625 23.5924 25.238 23.1568 27.375H0.9375C0.419813 27.375 0 27.7947 0 28.3125V47.0625C0 47.5803 0.419813 48 0.9375 48ZM9.9375 18.75V3.75H11.8125V15.9375C11.8125 16.4553 12.2323 16.875 12.75 16.875H20.2378C21.4599 16.875 22.5021 17.6588 22.8891 18.75H9.9375ZM23.0625 15.9489C22.2764 15.3536 21.2977 15 20.2378 15H13.6875V1.875H20.25C21.8008 1.875 23.0625 3.13669 23.0625 4.6875V15.9489ZM24.9375 4.6875C24.9375 3.13669 26.1992 1.875 27.75 1.875H34.3125V15H27.7378C26.6957 15 25.7236 15.3494 24.9375 15.9381V4.6875ZM38.0625 18.75H25.0873C25.477 17.6563 26.5292 16.875 27.7378 16.875H35.25C35.7677 16.875 36.1875 16.4553 36.1875 15.9375V3.75H38.0625V18.75Z" fill="black"/>
</svg>
