<svg width="44" height="44" viewBox="0 0 44 44" fill="none" xmlns="http://www.w3.org/2000/svg">
<g clip-path="url(#clip0)">
<path d="M14.4338 13.4331L9.95931 13.4394L9.94702 5.89914C9.94676 5.68816 10.1175 5.51697 10.3284 5.51663L14.039 5.51147C14.25 5.51122 14.4212 5.68197 14.4215 5.89286L14.4338 13.4331Z" fill="#F3D55B"/>
<path d="M14.4217 5.89286C14.4214 5.68189 14.2502 5.51113 14.0392 5.51148L11.8269 5.51457C12.0231 5.53038 12.178 5.69263 12.1783 5.89286L12.1906 13.433L9.95947 13.4361V13.4392L14.434 13.4329L14.4217 5.89286Z" fill="#F0C419"/>
<path d="M21.833 5.37476L9.84717 16.6658L9.87114 33.8308C9.87175 34.2836 10.2394 34.6502 10.6922 34.6496L33.0555 34.6184C33.5083 34.6178 33.8748 34.2501 33.8742 33.7973L33.8502 16.6323L21.833 5.37476Z" fill="#E1EFFB"/>
<path d="M33.8503 16.6323L21.8331 5.37476L19.8567 7.23659L29.8864 16.6322L29.9104 33.7972C29.911 34.25 29.5445 34.6176 29.0917 34.6183H33.0555C33.5083 34.6176 33.8749 34.25 33.8743 33.7972L33.8503 16.6323Z" fill="#CCDFED"/>
<path d="M38.0784 20.4145C37.6738 20.4151 37.2681 20.2675 36.9496 19.9691L21.8333 5.80859L6.75669 20.0113C6.09411 20.6355 5.05083 20.6043 4.42684 19.9418C3.80259 19.2792 3.8337 18.2361 4.49636 17.6119L20.6999 2.34747C21.3334 1.75063 22.3218 1.74926 22.957 2.34429L39.2032 17.5634C39.8676 18.1856 39.9016 19.2287 39.2792 19.893C38.9553 20.2388 38.5174 20.4138 38.0784 20.4145Z" fill="#CC1237"/>
<path d="M39.2792 17.9107C38.9553 18.2563 38.5175 18.4315 38.0783 18.4321C37.6737 18.4326 37.2681 18.2851 36.9496 17.9867L21.8333 3.82617L6.75676 18.0288C6.09418 18.653 5.0509 18.6218 4.42691 17.9593C4.38514 17.915 4.3469 17.8688 4.31098 17.8213C3.83609 18.4508 3.86789 19.3485 4.42691 19.9417C5.0509 20.6043 6.09418 20.6355 6.75676 20.0113L21.8333 5.80866L36.9496 19.9692C37.2681 20.2676 37.6738 20.4151 38.0783 20.4146C38.5175 20.414 38.9553 20.2388 39.2792 19.8932C39.8354 19.2995 39.8658 18.4042 39.3922 17.7761C39.3573 17.8224 39.3198 17.8674 39.2792 17.9107Z" fill="#CC1237"/>
<path d="M24.9336 19.5254L18.772 19.534C18.4829 19.5344 18.2489 19.7691 18.2493 20.0582L18.2696 34.6388L25.4781 34.6288L25.4578 20.0481C25.4573 19.759 25.2226 19.525 24.9336 19.5254Z" fill="#3E436D"/>
<path d="M25.4577 20.0481C25.4573 19.7591 25.2226 19.525 24.9335 19.5254L21.4524 19.5303C21.6647 19.5967 21.8191 19.7948 21.8194 20.0292L21.8398 34.6339L25.4781 34.6288L25.4577 20.0481Z" fill="#3E436D"/>
<path d="M40.6557 27.2691L31.574 33.3471L28.8674 33.1952L28.7615 32.1298C28.6038 30.544 27.3828 29.2713 25.8049 29.048L18.5532 28.2131C16.8803 27.9764 15.2697 27.4158 13.8114 26.5627C11.8204 25.398 9.55534 24.7842 7.24869 24.7842H2.02026V36.7186L15.8387 41.9514C16.3609 42.0989 16.9093 42.143 17.4453 42.0583C17.4485 42.0578 17.4518 42.0573 17.455 42.0568L31.3669 40.0515C32.4386 39.8804 33.4461 39.4289 34.2872 38.743L43.2786 30.6562C44.0856 29.9396 44.2352 28.7354 43.6281 27.8432C42.9638 26.8671 41.6358 26.6106 40.6557 27.2691Z" fill="#FED9A8"/>
<path d="M43.7464 28.0415L34.8591 35.5225C34.018 36.2085 32.6198 36.6599 31.5481 36.831L17.4548 37.8384C17.4516 37.839 17.4484 37.8395 17.4452 37.84C16.9092 37.9247 16.3606 37.8805 15.8385 37.7331L2.02002 32.5003V36.7187L15.8384 41.9515C16.0995 42.0252 16.3672 42.0731 16.6366 42.092C16.704 42.0967 16.7714 42.0996 16.8389 42.1007C17.0414 42.1038 17.2441 42.0902 17.4451 42.0584C17.4483 42.0579 17.4515 42.0574 17.4547 42.0568L31.3666 40.0515C31.7015 39.998 32.0302 39.9172 32.3494 39.8104C32.4132 39.789 32.4767 39.7666 32.5398 39.7432C32.8552 39.626 33.1605 39.4831 33.4527 39.316C33.5112 39.2825 33.5691 39.2482 33.6265 39.2127C33.8559 39.0713 34.0766 38.9145 34.2869 38.7429L43.2784 30.6561C44.0271 29.9914 44.2087 28.9072 43.7464 28.0415Z" fill="#F4C892"/>
<path d="M29.921 33.2561L14.6127 32.6436C14.5397 32.6406 14.4685 32.6192 14.4061 32.5811L13.593 32.0857C13.1975 31.8449 13.4095 31.235 13.8691 31.2912L29.921 33.2561Z" fill="#F4C892"/>
<path d="M3.78227 40.7723H1.71359C0.767163 40.7723 0 40.0051 0 39.0588V23.75C0 22.8035 0.767249 22.0364 1.71359 22.0364H3.78227C4.7287 22.0364 5.49586 22.8036 5.49586 23.75V39.0588C5.49586 40.0052 4.7287 40.7723 3.78227 40.7723Z" fill="#3E436D"/>
<path d="M3.78233 22.0364H1.71365C1.59729 22.0364 1.48385 22.0482 1.37402 22.0703C2.15769 22.2279 2.74799 22.9199 2.74799 23.75V39.0588C2.74799 39.8888 2.15769 40.5808 1.37402 40.7384C1.48385 40.7605 1.59737 40.7723 1.71365 40.7723H3.78233C4.72876 40.7723 5.49592 40.0051 5.49592 39.0588V23.75C5.49592 22.8036 4.72876 22.0364 3.78233 22.0364Z" fill="#3E436D"/>
</g>
<defs>
<clipPath id="clip0">
<rect width="44" height="44" fill="white"/>
</clipPath>
</defs>
</svg>
