<svg width="20" height="18" viewBox="0 0 20 18" fill="none" xmlns="http://www.w3.org/2000/svg">
<g clip-path="url(#clip0)">
<path d="M18.8781 6.22381L4.97236 5.1699C4.89609 5.16263 4.82427 5.16263 4.7525 5.16627L4.19609 2.97828C4.18262 2.93452 4.16916 2.89076 4.14673 2.8543C4.06147 2.67925 3.88198 2.53704 3.64416 2.47869L0.992245 1.84417C0.583909 1.74571 0.153143 1.93534 0.0319889 2.27083C-0.0891646 2.60268 0.144168 2.95275 0.556986 3.05121L2.76916 3.57998L5.43005 14.0021C5.47941 14.3084 5.8025 14.5454 6.19736 14.5454L17.6396 14.5418C18.066 14.5418 18.4115 14.261 18.4115 13.9146C18.4115 13.5681 18.066 13.2874 17.6396 13.2874L6.83005 13.291L6.46209 11.8506H17.8416C18.4384 11.8506 18.9544 11.5297 19.0621 11.0884L19.982 7.32145C20.1031 6.78172 19.6005 6.27849 18.8781 6.22381Z" fill="#CB2023"/>
<path d="M7.49965 17.7273C8.12724 17.7273 8.63601 17.2185 8.63601 16.5909C8.63601 15.9633 8.12724 15.4546 7.49965 15.4546C6.87205 15.4546 6.36328 15.9633 6.36328 16.5909C6.36328 17.2185 6.87205 17.7273 7.49965 17.7273Z" fill="#CB2023"/>
<path d="M15.6813 17.7273C16.3089 17.7273 16.8176 17.2185 16.8176 16.5909C16.8176 15.9633 16.3089 15.4546 15.6813 15.4546C15.0537 15.4546 14.5449 15.9633 14.5449 16.5909C14.5449 17.2185 15.0537 17.7273 15.6813 17.7273Z" fill="#CB2023"/>
<path d="M8.07283 4.70264L8.21469 4.71668L8.65856 4.75545L10.485 4.92091L10.5504 4.24135C10.6414 3.32234 11.4818 2.64981 12.4314 2.73431C13.381 2.82234 14.0759 3.63572 13.9886 4.55473L13.9231 5.23432L15.7495 5.39982L16.3316 5.45264C16.5462 5.47373 16.7391 5.31882 16.7572 5.11109L16.8155 4.50544C16.8373 4.29769 16.6772 4.11107 16.4626 4.09346L15.8805 4.04065C15.8331 3.57234 15.6876 3.12868 15.4621 2.7308L15.9132 2.36812C16.0806 2.23432 16.1024 1.99488 15.9641 1.83291L15.5639 1.3646C15.4256 1.20263 15.1783 1.1815 15.0109 1.3153L14.5561 1.67446C14.1923 1.38925 13.7703 1.16742 13.3046 1.03361L13.3591 0.470236C13.381 0.262491 13.2209 0.0758723 13.0062 0.0582668L12.3805 0.0019289C12.1658 -0.0191978 11.973 0.135731 11.9548 0.343477L11.9002 0.906855C11.4163 0.952632 10.9579 1.09347 10.5468 1.31179L10.1721 0.875164C10.0338 0.713195 9.78642 0.692068 9.61906 0.825868L9.13519 1.21319C8.96783 1.347 8.94597 1.58643 9.08424 1.7484L9.45897 2.18502C9.16428 2.53713 8.93506 2.94558 8.79683 3.39629L8.21469 3.34347C8.00006 3.32234 7.80724 3.47727 7.78901 3.68502L7.73083 4.29065C7.69806 4.4984 7.85815 4.6815 8.07283 4.70264Z" fill="#3D3C3B"/>
</g>
<defs>
<clipPath id="clip0">
<rect width="20" height="17.7273" fill="white"/>
</clipPath>
</defs>
</svg>
