<svg width="20" height="19" viewBox="0 0 20 19" fill="none" xmlns="http://www.w3.org/2000/svg">
<g clip-path="url(#clip0)">
<path d="M8.00498 10.1037C10.7951 10.1037 13.0568 7.84193 13.0568 5.05186C13.0568 2.26179 10.7951 0 8.00498 0C5.21492 0 2.95312 2.26179 2.95312 5.05186C2.95312 7.84193 5.21492 10.1037 8.00498 10.1037Z" fill="#CB2023"/>
<path d="M16.1597 15.6405C16.118 15.6186 16.0717 15.6072 16.0246 15.6072C15.9775 15.6072 15.9312 15.6186 15.8895 15.6405L13.0623 17.1251C13.0143 17.1504 12.9602 17.1617 12.9061 17.1578C12.8521 17.1539 12.8002 17.1349 12.7563 17.103C12.7125 17.0711 12.6784 17.0276 12.658 16.9774C12.6377 16.9271 12.6317 16.8722 12.641 16.8188L13.1809 13.6746C13.1888 13.6282 13.1853 13.5806 13.1707 13.5359C13.1561 13.4911 13.1308 13.4506 13.0971 13.4177L10.8106 11.1922C10.7817 11.1641 10.7589 11.1303 10.7438 11.0928C9.95277 11.3234 9.1342 11.4459 8.31035 11.4569C7.39674 11.4424 6.49018 11.2942 5.61957 11.0168C4.75193 10.7421 3.81512 10.7828 2.97458 11.1318C2.09228 11.5044 1.33939 12.1289 0.809994 12.927C0.280599 13.7252 -0.00181535 14.6617 -0.00195312 15.6195V17.2465C-0.00195312 17.4583 0.0821876 17.6614 0.231959 17.8112C0.381731 17.961 0.584864 18.0451 0.796673 18.0451H15.6015C15.8133 18.0451 16.0164 17.961 16.1662 17.8112C16.316 17.6614 16.4001 17.4583 16.4001 17.2465V15.7706L16.1597 15.6405Z" fill="#CB2023"/>
<path d="M15.9994 8.42358L17.2358 10.9289L20.0003 11.3305L18.001 13.2808L18.4731 16.0343L16.0003 14.7343L13.5275 16.0343L13.9997 13.2808L11.998 11.3287L14.7626 10.9271L15.9994 8.42358Z" fill="#282625"/>
</g>
<defs>
<clipPath id="clip0">
<rect width="20" height="18.0433" fill="white"/>
</clipPath>
</defs>
</svg>
