<svg width="763" height="418" viewBox="0 0 763 418" fill="none" xmlns="http://www.w3.org/2000/svg">
<g filter="url(#filter0_d)">
<rect x="15" y="12" width="733" height="388" rx="8" fill="white"/>
</g>
<rect x="129" y="46" width="68" height="314" fill="#F4F4F4"/>
<rect x="264" y="46" width="67" height="314" fill="#F4F4F4"/>
<rect x="397" y="46" width="67" height="314" fill="#F4F4F4"/>
<rect x="533" y="46" width="65" height="314" fill="#F4F4F4"/>
<rect x="666" y="46" width="67" height="314" fill="#F4F4F4"/>
<line x1="731" y1="358.5" x2="63" y2="358.5" stroke="#CBCBCB"/>
<line x1="731" y1="319.5" x2="63" y2="319.5" stroke="#CBCBCB" stroke-opacity="0.5"/>
<line x1="731" y1="280.5" x2="63" y2="280.5" stroke="#CBCBCB" stroke-opacity="0.5"/>
<line x1="731" y1="241.5" x2="63" y2="241.5" stroke="#CBCBCB" stroke-opacity="0.5"/>
<line x1="731" y1="202.5" x2="63" y2="202.5" stroke="#CBCBCB" stroke-opacity="0.5"/>
<line x1="731" y1="163.5" x2="63" y2="163.5" stroke="#CBCBCB" stroke-opacity="0.5"/>
<line x1="731" y1="124.5" x2="63" y2="124.5" stroke="#CBCBCB" stroke-opacity="0.5"/>
<line x1="731" y1="85.5" x2="63" y2="85.4999" stroke="#CBCBCB" stroke-opacity="0.5"/>
<line x1="731" y1="46.5" x2="63" y2="46.4999" stroke="#CBCBCB" stroke-opacity="0.5"/>
<path d="M48.5614 361.968C48.0094 362.752 47.2294 363.144 46.2214 363.144C45.2214 363.144 44.4374 362.752 43.8694 361.968C43.3174 361.176 43.0414 360.12 43.0414 358.8C43.0414 357.472 43.3174 356.42 43.8694 355.644C44.4374 354.852 45.2214 354.456 46.2214 354.456C47.2294 354.456 48.0094 354.852 48.5614 355.644C49.1214 356.42 49.4014 357.472 49.4014 358.8C49.4014 360.128 49.1214 361.184 48.5614 361.968ZM44.4934 361.404C44.9174 362.02 45.4934 362.328 46.2214 362.328C46.9574 362.328 47.5294 362.02 47.9374 361.404C48.3534 360.796 48.5614 359.928 48.5614 358.8C48.5614 357.672 48.3534 356.804 47.9374 356.196C47.5294 355.58 46.9574 355.272 46.2214 355.272C45.4934 355.272 44.9174 355.58 44.4934 356.196C44.0854 356.812 43.8814 357.68 43.8814 358.8C43.8814 359.92 44.0854 360.788 44.4934 361.404Z" fill="#777777"/>
<path d="M87.34 377.544H82V376.788L85.024 373.74C85.888 372.876 86.32 372.136 86.32 371.52C86.32 371 86.156 370.588 85.828 370.284C85.508 369.972 85.108 369.816 84.628 369.816C83.772 369.816 83.144 370.212 82.744 371.004L82.036 370.584C82.292 370.072 82.648 369.68 83.104 369.408C83.56 369.136 84.068 369 84.628 369C85.3 369 85.888 369.228 86.392 369.684C86.904 370.124 87.16 370.736 87.16 371.52C87.16 371.984 87.032 372.44 86.776 372.888C86.52 373.328 86.128 373.812 85.6 374.34L83.2 376.728H87.34V377.544Z" fill="#777777"/>
<path d="M93.8275 376.512C93.2755 377.296 92.4955 377.688 91.4875 377.688C90.4875 377.688 89.7035 377.296 89.1355 376.512C88.5835 375.72 88.3075 374.664 88.3075 373.344C88.3075 372.016 88.5835 370.964 89.1355 370.188C89.7035 369.396 90.4875 369 91.4875 369C92.4955 369 93.2755 369.396 93.8275 370.188C94.3875 370.964 94.6675 372.016 94.6675 373.344C94.6675 374.672 94.3875 375.728 93.8275 376.512ZM89.7595 375.948C90.1835 376.564 90.7595 376.872 91.4875 376.872C92.2235 376.872 92.7955 376.564 93.2035 375.948C93.6195 375.34 93.8275 374.472 93.8275 373.344C93.8275 372.216 93.6195 371.348 93.2035 370.74C92.7955 370.124 92.2235 369.816 91.4875 369.816C90.7595 369.816 90.1835 370.124 89.7595 370.74C89.3515 371.356 89.1475 372.224 89.1475 373.344C89.1475 374.464 89.3515 375.332 89.7595 375.948Z" fill="#777777"/>
<path d="M101.386 376.512C100.834 377.296 100.054 377.688 99.0461 377.688C98.0461 377.688 97.2621 377.296 96.6941 376.512C96.1421 375.72 95.8661 374.664 95.8661 373.344C95.8661 372.016 96.1421 370.964 96.6941 370.188C97.2621 369.396 98.0461 369 99.0461 369C100.054 369 100.834 369.396 101.386 370.188C101.946 370.964 102.226 372.016 102.226 373.344C102.226 374.672 101.946 375.728 101.386 376.512ZM97.3181 375.948C97.7421 376.564 98.3181 376.872 99.0461 376.872C99.7821 376.872 100.354 376.564 100.762 375.948C101.178 375.34 101.386 374.472 101.386 373.344C101.386 372.216 101.178 371.348 100.762 370.74C100.354 370.124 99.7821 369.816 99.0461 369.816C98.3181 369.816 97.7421 370.124 97.3181 370.74C96.9101 371.356 96.7061 372.224 96.7061 373.344C96.7061 374.464 96.9101 375.332 97.3181 375.948Z" fill="#777777"/>
<path d="M108.825 371.772C108.825 372.404 108.653 372.964 108.309 373.452L105.561 377.544H104.613L106.677 374.472C106.461 374.52 106.237 374.544 106.005 374.544C105.173 374.544 104.497 374.288 103.977 373.776C103.449 373.264 103.185 372.596 103.185 371.772C103.185 370.964 103.449 370.3 103.977 369.78C104.513 369.26 105.189 369 106.005 369C106.821 369 107.497 369.26 108.033 369.78C108.561 370.3 108.825 370.964 108.825 371.772ZM104.565 370.356C104.205 370.716 104.025 371.188 104.025 371.772C104.025 372.356 104.205 372.828 104.565 373.188C104.941 373.548 105.421 373.728 106.005 373.728C106.597 373.728 107.073 373.548 107.433 373.188C107.801 372.828 107.985 372.356 107.985 371.772C107.985 371.188 107.801 370.716 107.433 370.356C107.073 369.996 106.597 369.816 106.005 369.816C105.421 369.816 104.941 369.996 104.565 370.356Z" fill="#777777"/>
<path d="M158.165 377.544H152.825V376.788L155.849 373.74C156.713 372.876 157.145 372.136 157.145 371.52C157.145 371 156.981 370.588 156.653 370.284C156.333 369.972 155.933 369.816 155.453 369.816C154.597 369.816 153.969 370.212 153.569 371.004L152.861 370.584C153.117 370.072 153.473 369.68 153.929 369.408C154.385 369.136 154.893 369 155.453 369C156.125 369 156.713 369.228 157.217 369.684C157.729 370.124 157.985 370.736 157.985 371.52C157.985 371.984 157.857 372.44 157.601 372.888C157.345 373.328 156.953 373.812 156.425 374.34L154.025 376.728H158.165V377.544Z" fill="#777777"/>
<path d="M164.652 376.512C164.1 377.296 163.32 377.688 162.312 377.688C161.312 377.688 160.528 377.296 159.96 376.512C159.408 375.72 159.132 374.664 159.132 373.344C159.132 372.016 159.408 370.964 159.96 370.188C160.528 369.396 161.312 369 162.312 369C163.32 369 164.1 369.396 164.652 370.188C165.212 370.964 165.492 372.016 165.492 373.344C165.492 374.672 165.212 375.728 164.652 376.512ZM160.584 375.948C161.008 376.564 161.584 376.872 162.312 376.872C163.048 376.872 163.62 376.564 164.028 375.948C164.444 375.34 164.652 374.472 164.652 373.344C164.652 372.216 164.444 371.348 164.028 370.74C163.62 370.124 163.048 369.816 162.312 369.816C161.584 369.816 161.008 370.124 160.584 370.74C160.176 371.356 159.972 372.224 159.972 373.344C159.972 374.464 160.176 375.332 160.584 375.948Z" fill="#777777"/>
<path d="M166.036 369.912L168.256 369.144H168.976V377.544H168.136V370.068L166.252 370.632L166.036 369.912Z" fill="#777777"/>
<path d="M176.055 376.512C175.503 377.296 174.723 377.688 173.715 377.688C172.715 377.688 171.931 377.296 171.363 376.512C170.811 375.72 170.535 374.664 170.535 373.344C170.535 372.016 170.811 370.964 171.363 370.188C171.931 369.396 172.715 369 173.715 369C174.723 369 175.503 369.396 176.055 370.188C176.615 370.964 176.895 372.016 176.895 373.344C176.895 374.672 176.615 375.728 176.055 376.512ZM171.987 375.948C172.411 376.564 172.987 376.872 173.715 376.872C174.451 376.872 175.023 376.564 175.431 375.948C175.847 375.34 176.055 374.472 176.055 373.344C176.055 372.216 175.847 371.348 175.431 370.74C175.023 370.124 174.451 369.816 173.715 369.816C172.987 369.816 172.411 370.124 171.987 370.74C171.579 371.356 171.375 372.224 171.375 373.344C171.375 374.464 171.579 375.332 171.987 375.948Z" fill="#777777"/>
<path d="M226.235 377.544H220.895V376.788L223.919 373.74C224.783 372.876 225.215 372.136 225.215 371.52C225.215 371 225.051 370.588 224.723 370.284C224.403 369.972 224.003 369.816 223.523 369.816C222.667 369.816 222.039 370.212 221.639 371.004L220.931 370.584C221.187 370.072 221.543 369.68 221.999 369.408C222.455 369.136 222.963 369 223.523 369C224.195 369 224.783 369.228 225.287 369.684C225.799 370.124 226.055 370.736 226.055 371.52C226.055 371.984 225.927 372.44 225.671 372.888C225.415 373.328 225.023 373.812 224.495 374.34L222.095 376.728H226.235V377.544Z" fill="#777777"/>
<path d="M232.722 376.512C232.17 377.296 231.39 377.688 230.382 377.688C229.382 377.688 228.598 377.296 228.03 376.512C227.478 375.72 227.202 374.664 227.202 373.344C227.202 372.016 227.478 370.964 228.03 370.188C228.598 369.396 229.382 369 230.382 369C231.39 369 232.17 369.396 232.722 370.188C233.282 370.964 233.562 372.016 233.562 373.344C233.562 374.672 233.282 375.728 232.722 376.512ZM228.654 375.948C229.078 376.564 229.654 376.872 230.382 376.872C231.118 376.872 231.69 376.564 232.098 375.948C232.514 375.34 232.722 374.472 232.722 373.344C232.722 372.216 232.514 371.348 232.098 370.74C231.69 370.124 231.118 369.816 230.382 369.816C229.654 369.816 229.078 370.124 228.654 370.74C228.246 371.356 228.042 372.224 228.042 373.344C228.042 374.464 228.246 375.332 228.654 375.948Z" fill="#777777"/>
<path d="M234.106 369.912L236.326 369.144H237.046V377.544H236.206V370.068L234.322 370.632L234.106 369.912Z" fill="#777777"/>
<path d="M238.184 369.912L240.404 369.144H241.124V377.544H240.284V370.068L238.4 370.632L238.184 369.912Z" fill="#777777"/>
<path d="M290.464 377.544H285.124V376.788L288.148 373.74C289.012 372.876 289.444 372.136 289.444 371.52C289.444 371 289.28 370.588 288.952 370.284C288.632 369.972 288.232 369.816 287.752 369.816C286.896 369.816 286.268 370.212 285.868 371.004L285.16 370.584C285.416 370.072 285.772 369.68 286.228 369.408C286.684 369.136 287.192 369 287.752 369C288.424 369 289.012 369.228 289.516 369.684C290.028 370.124 290.284 370.736 290.284 371.52C290.284 371.984 290.156 372.44 289.9 372.888C289.644 373.328 289.252 373.812 288.724 374.34L286.324 376.728H290.464V377.544Z" fill="#777777"/>
<path d="M296.952 376.512C296.4 377.296 295.62 377.688 294.612 377.688C293.612 377.688 292.828 377.296 292.26 376.512C291.708 375.72 291.432 374.664 291.432 373.344C291.432 372.016 291.708 370.964 292.26 370.188C292.828 369.396 293.612 369 294.612 369C295.62 369 296.4 369.396 296.952 370.188C297.512 370.964 297.792 372.016 297.792 373.344C297.792 374.672 297.512 375.728 296.952 376.512ZM292.884 375.948C293.308 376.564 293.884 376.872 294.612 376.872C295.348 376.872 295.92 376.564 296.328 375.948C296.744 375.34 296.952 374.472 296.952 373.344C296.952 372.216 296.744 371.348 296.328 370.74C295.92 370.124 295.348 369.816 294.612 369.816C293.884 369.816 293.308 370.124 292.884 370.74C292.476 371.356 292.272 372.224 292.272 373.344C292.272 374.464 292.476 375.332 292.884 375.948Z" fill="#777777"/>
<path d="M298.336 369.912L300.556 369.144H301.276V377.544H300.436V370.068L298.552 370.632L298.336 369.912Z" fill="#777777"/>
<path d="M308.054 377.544H302.714V376.788L305.738 373.74C306.602 372.876 307.034 372.136 307.034 371.52C307.034 371 306.87 370.588 306.542 370.284C306.222 369.972 305.822 369.816 305.342 369.816C304.486 369.816 303.858 370.212 303.458 371.004L302.75 370.584C303.006 370.072 303.362 369.68 303.818 369.408C304.274 369.136 304.782 369 305.342 369C306.014 369 306.602 369.228 307.106 369.684C307.618 370.124 307.874 370.736 307.874 371.52C307.874 371.984 307.746 372.44 307.49 372.888C307.234 373.328 306.842 373.812 306.314 374.34L303.914 376.728H308.054V377.544Z" fill="#777777"/>
<path d="M357.394 377.544H352.054V376.788L355.078 373.74C355.942 372.876 356.374 372.136 356.374 371.52C356.374 371 356.21 370.588 355.882 370.284C355.562 369.972 355.162 369.816 354.682 369.816C353.826 369.816 353.198 370.212 352.798 371.004L352.09 370.584C352.346 370.072 352.702 369.68 353.158 369.408C353.614 369.136 354.122 369 354.682 369C355.354 369 355.942 369.228 356.446 369.684C356.958 370.124 357.214 370.736 357.214 371.52C357.214 371.984 357.086 372.44 356.83 372.888C356.574 373.328 356.182 373.812 355.654 374.34L353.254 376.728H357.394V377.544Z" fill="#777777"/>
<path d="M363.882 376.512C363.33 377.296 362.55 377.688 361.542 377.688C360.542 377.688 359.758 377.296 359.19 376.512C358.638 375.72 358.362 374.664 358.362 373.344C358.362 372.016 358.638 370.964 359.19 370.188C359.758 369.396 360.542 369 361.542 369C362.55 369 363.33 369.396 363.882 370.188C364.442 370.964 364.722 372.016 364.722 373.344C364.722 374.672 364.442 375.728 363.882 376.512ZM359.814 375.948C360.238 376.564 360.814 376.872 361.542 376.872C362.278 376.872 362.85 376.564 363.258 375.948C363.674 375.34 363.882 374.472 363.882 373.344C363.882 372.216 363.674 371.348 363.258 370.74C362.85 370.124 362.278 369.816 361.542 369.816C360.814 369.816 360.238 370.124 359.814 370.74C359.406 371.356 359.202 372.224 359.202 373.344C359.202 374.464 359.406 375.332 359.814 375.948Z" fill="#777777"/>
<path d="M365.266 369.912L367.486 369.144H368.206V377.544H367.366V370.068L365.482 370.632L365.266 369.912Z" fill="#777777"/>
<path d="M374.684 369.936L372.728 372.636C373.392 372.716 373.944 372.976 374.384 373.416C374.824 373.832 375.044 374.396 375.044 375.108C375.044 375.9 374.768 376.532 374.216 377.004C373.68 377.46 373.016 377.688 372.224 377.688C371.592 377.688 371.032 377.544 370.544 377.256C370.056 376.96 369.716 376.548 369.524 376.02L370.22 375.612C370.356 376.02 370.596 376.332 370.94 376.548C371.292 376.764 371.72 376.872 372.224 376.872C372.816 376.872 373.292 376.716 373.652 376.404C374.02 376.084 374.204 375.652 374.204 375.108C374.204 374.564 374.02 374.136 373.652 373.824C373.292 373.504 372.816 373.344 372.224 373.344V373.332L372.212 373.344H371.984L371.624 372.792L373.712 369.936H369.764V369.144H374.684V369.936Z" fill="#777777"/>
<path d="M424.384 377.544H419.044V376.788L422.068 373.74C422.932 372.876 423.364 372.136 423.364 371.52C423.364 371 423.2 370.588 422.872 370.284C422.552 369.972 422.152 369.816 421.672 369.816C420.816 369.816 420.188 370.212 419.788 371.004L419.08 370.584C419.336 370.072 419.692 369.68 420.148 369.408C420.604 369.136 421.112 369 421.672 369C422.344 369 422.932 369.228 423.436 369.684C423.948 370.124 424.204 370.736 424.204 371.52C424.204 371.984 424.076 372.44 423.82 372.888C423.564 373.328 423.172 373.812 422.644 374.34L420.244 376.728H424.384V377.544Z" fill="#777777"/>
<path d="M430.872 376.512C430.32 377.296 429.54 377.688 428.532 377.688C427.532 377.688 426.748 377.296 426.18 376.512C425.628 375.72 425.352 374.664 425.352 373.344C425.352 372.016 425.628 370.964 426.18 370.188C426.748 369.396 427.532 369 428.532 369C429.54 369 430.32 369.396 430.872 370.188C431.432 370.964 431.712 372.016 431.712 373.344C431.712 374.672 431.432 375.728 430.872 376.512ZM426.804 375.948C427.228 376.564 427.804 376.872 428.532 376.872C429.268 376.872 429.84 376.564 430.248 375.948C430.664 375.34 430.872 374.472 430.872 373.344C430.872 372.216 430.664 371.348 430.248 370.74C429.84 370.124 429.268 369.816 428.532 369.816C427.804 369.816 427.228 370.124 426.804 370.74C426.396 371.356 426.192 372.224 426.192 373.344C426.192 374.464 426.396 375.332 426.804 375.948Z" fill="#777777"/>
<path d="M432.256 369.912L434.476 369.144H435.196V377.544H434.356V370.068L432.472 370.632L432.256 369.912Z" fill="#777777"/>
<path d="M441.734 375.072H442.814V375.864H441.734V377.544H440.894V375.864H436.454V375.072L439.574 369.144H440.498L437.378 375.072H440.894V372.504H441.734V375.072Z" fill="#777777"/>
<path d="M492.154 377.544H486.814V376.788L489.838 373.74C490.702 372.876 491.134 372.136 491.134 371.52C491.134 371 490.97 370.588 490.642 370.284C490.322 369.972 489.922 369.816 489.442 369.816C488.586 369.816 487.958 370.212 487.558 371.004L486.85 370.584C487.106 370.072 487.462 369.68 487.918 369.408C488.374 369.136 488.882 369 489.442 369C490.114 369 490.702 369.228 491.206 369.684C491.718 370.124 491.974 370.736 491.974 371.52C491.974 371.984 491.846 372.44 491.59 372.888C491.334 373.328 490.942 373.812 490.414 374.34L488.014 376.728H492.154V377.544Z" fill="#777777"/>
<path d="M498.641 376.512C498.089 377.296 497.309 377.688 496.301 377.688C495.301 377.688 494.517 377.296 493.949 376.512C493.397 375.72 493.121 374.664 493.121 373.344C493.121 372.016 493.397 370.964 493.949 370.188C494.517 369.396 495.301 369 496.301 369C497.309 369 498.089 369.396 498.641 370.188C499.201 370.964 499.481 372.016 499.481 373.344C499.481 374.672 499.201 375.728 498.641 376.512ZM494.573 375.948C494.997 376.564 495.573 376.872 496.301 376.872C497.037 376.872 497.609 376.564 498.017 375.948C498.433 375.34 498.641 374.472 498.641 373.344C498.641 372.216 498.433 371.348 498.017 370.74C497.609 370.124 497.037 369.816 496.301 369.816C495.573 369.816 494.997 370.124 494.573 370.74C494.165 371.356 493.961 372.224 493.961 373.344C493.961 374.464 494.165 375.332 494.573 375.948Z" fill="#777777"/>
<path d="M500.026 369.912L502.246 369.144H502.966V377.544H502.126V370.068L500.242 370.632L500.026 369.912Z" fill="#777777"/>
<path d="M505.688 372.528H507.104C507.896 372.528 508.56 372.76 509.096 373.224C509.648 373.68 509.924 374.308 509.924 375.108C509.924 375.9 509.648 376.532 509.096 377.004C508.56 377.46 507.896 377.688 507.104 377.688C506.456 377.688 505.884 377.532 505.388 377.22C504.9 376.9 504.572 376.46 504.404 375.9L505.112 375.492C505.232 375.932 505.468 376.272 505.82 376.512C506.172 376.752 506.6 376.872 507.104 376.872C507.696 376.872 508.172 376.716 508.532 376.404C508.9 376.084 509.084 375.652 509.084 375.108C509.084 374.564 508.9 374.136 508.532 373.824C508.172 373.504 507.696 373.344 507.104 373.344H504.824L505.124 369.144H509.624V369.936H505.868L505.688 372.528Z" fill="#777777"/>
<path d="M559.264 377.544H553.924V376.788L556.948 373.74C557.812 372.876 558.244 372.136 558.244 371.52C558.244 371 558.08 370.588 557.752 370.284C557.432 369.972 557.032 369.816 556.552 369.816C555.696 369.816 555.068 370.212 554.668 371.004L553.96 370.584C554.216 370.072 554.572 369.68 555.028 369.408C555.484 369.136 555.992 369 556.552 369C557.224 369 557.812 369.228 558.316 369.684C558.828 370.124 559.084 370.736 559.084 371.52C559.084 371.984 558.956 372.44 558.7 372.888C558.444 373.328 558.052 373.812 557.524 374.34L555.124 376.728H559.264V377.544Z" fill="#777777"/>
<path d="M565.751 376.512C565.199 377.296 564.419 377.688 563.411 377.688C562.411 377.688 561.627 377.296 561.059 376.512C560.507 375.72 560.231 374.664 560.231 373.344C560.231 372.016 560.507 370.964 561.059 370.188C561.627 369.396 562.411 369 563.411 369C564.419 369 565.199 369.396 565.751 370.188C566.311 370.964 566.591 372.016 566.591 373.344C566.591 374.672 566.311 375.728 565.751 376.512ZM561.683 375.948C562.107 376.564 562.683 376.872 563.411 376.872C564.147 376.872 564.719 376.564 565.127 375.948C565.543 375.34 565.751 374.472 565.751 373.344C565.751 372.216 565.543 371.348 565.127 370.74C564.719 370.124 564.147 369.816 563.411 369.816C562.683 369.816 562.107 370.124 561.683 370.74C561.275 371.356 561.071 372.224 561.071 373.344C561.071 374.464 561.275 375.332 561.683 375.948Z" fill="#777777"/>
<path d="M567.135 369.912L569.355 369.144H570.075V377.544H569.235V370.068L567.351 370.632L567.135 369.912Z" fill="#777777"/>
<path d="M574.214 372.144C575.03 372.144 575.706 372.404 576.242 372.924C576.77 373.444 577.034 374.108 577.034 374.916C577.034 375.74 576.77 376.408 576.242 376.92C575.722 377.432 575.046 377.688 574.214 377.688C573.382 377.688 572.706 377.432 572.186 376.92C571.658 376.408 571.394 375.74 571.394 374.916C571.394 374.284 571.566 373.724 571.91 373.236L574.658 369.144H575.606L573.542 372.216C573.758 372.168 573.982 372.144 574.214 372.144ZM572.774 376.332C573.15 376.692 573.63 376.872 574.214 376.872C574.806 376.872 575.282 376.692 575.642 376.332C576.01 375.972 576.194 375.5 576.194 374.916C576.194 374.332 576.01 373.86 575.642 373.5C575.282 373.14 574.806 372.96 574.214 372.96C573.63 372.96 573.15 373.14 572.774 373.5C572.414 373.86 572.234 374.332 572.234 374.916C572.234 375.5 572.414 375.972 572.774 376.332Z" fill="#777777"/>
<path d="M626.374 377.544H621.034V376.788L624.058 373.74C624.922 372.876 625.354 372.136 625.354 371.52C625.354 371 625.19 370.588 624.862 370.284C624.542 369.972 624.142 369.816 623.662 369.816C622.806 369.816 622.178 370.212 621.778 371.004L621.07 370.584C621.326 370.072 621.682 369.68 622.138 369.408C622.594 369.136 623.102 369 623.662 369C624.334 369 624.922 369.228 625.426 369.684C625.938 370.124 626.194 370.736 626.194 371.52C626.194 371.984 626.066 372.44 625.81 372.888C625.554 373.328 625.162 373.812 624.634 374.34L622.234 376.728H626.374V377.544Z" fill="#777777"/>
<path d="M632.861 376.512C632.309 377.296 631.529 377.688 630.521 377.688C629.521 377.688 628.737 377.296 628.169 376.512C627.617 375.72 627.341 374.664 627.341 373.344C627.341 372.016 627.617 370.964 628.169 370.188C628.737 369.396 629.521 369 630.521 369C631.529 369 632.309 369.396 632.861 370.188C633.421 370.964 633.701 372.016 633.701 373.344C633.701 374.672 633.421 375.728 632.861 376.512ZM628.793 375.948C629.217 376.564 629.793 376.872 630.521 376.872C631.257 376.872 631.829 376.564 632.237 375.948C632.653 375.34 632.861 374.472 632.861 373.344C632.861 372.216 632.653 371.348 632.237 370.74C631.829 370.124 631.257 369.816 630.521 369.816C629.793 369.816 629.217 370.124 628.793 370.74C628.385 371.356 628.181 372.224 628.181 373.344C628.181 374.464 628.385 375.332 628.793 375.948Z" fill="#777777"/>
<path d="M634.245 369.912L636.465 369.144H637.185V377.544H636.345V370.068L634.461 370.632L634.245 369.912Z" fill="#777777"/>
<path d="M638.383 369.936V369.144H643.543V369.936L640.375 377.544H639.499L642.667 369.936H638.383Z" fill="#777777"/>
<path d="M692.883 377.544H687.543V376.788L690.567 373.74C691.431 372.876 691.863 372.136 691.863 371.52C691.863 371 691.699 370.588 691.371 370.284C691.051 369.972 690.651 369.816 690.171 369.816C689.315 369.816 688.687 370.212 688.287 371.004L687.579 370.584C687.835 370.072 688.191 369.68 688.647 369.408C689.103 369.136 689.611 369 690.171 369C690.843 369 691.431 369.228 691.935 369.684C692.447 370.124 692.703 370.736 692.703 371.52C692.703 371.984 692.575 372.44 692.319 372.888C692.063 373.328 691.671 373.812 691.143 374.34L688.743 376.728H692.883V377.544Z" fill="#777777"/>
<path d="M699.371 376.512C698.819 377.296 698.039 377.688 697.031 377.688C696.031 377.688 695.247 377.296 694.679 376.512C694.127 375.72 693.851 374.664 693.851 373.344C693.851 372.016 694.127 370.964 694.679 370.188C695.247 369.396 696.031 369 697.031 369C698.039 369 698.819 369.396 699.371 370.188C699.931 370.964 700.211 372.016 700.211 373.344C700.211 374.672 699.931 375.728 699.371 376.512ZM695.303 375.948C695.727 376.564 696.303 376.872 697.031 376.872C697.767 376.872 698.339 376.564 698.747 375.948C699.163 375.34 699.371 374.472 699.371 373.344C699.371 372.216 699.163 371.348 698.747 370.74C698.339 370.124 697.767 369.816 697.031 369.816C696.303 369.816 695.727 370.124 695.303 370.74C694.895 371.356 694.691 372.224 694.691 373.344C694.691 374.464 694.895 375.332 695.303 375.948Z" fill="#777777"/>
<path d="M700.755 369.912L702.975 369.144H703.695V377.544H702.855V370.068L700.971 370.632L700.755 369.912Z" fill="#777777"/>
<path d="M709.357 373.212C709.789 373.412 710.129 373.692 710.377 374.052C710.625 374.412 710.749 374.816 710.749 375.264C710.749 376.024 710.481 376.62 709.945 377.052C709.401 377.476 708.733 377.688 707.941 377.688C707.149 377.688 706.481 377.476 705.937 377.052C705.401 376.62 705.133 376.024 705.133 375.264C705.133 374.816 705.257 374.412 705.505 374.052C705.753 373.692 706.093 373.412 706.525 373.212C705.781 372.788 705.409 372.16 705.409 371.328C705.409 370.576 705.657 370 706.153 369.6C706.665 369.2 707.261 369 707.941 369C708.629 369 709.221 369.2 709.717 369.6C710.221 370 710.473 370.576 710.473 371.328C710.473 372.16 710.101 372.788 709.357 373.212ZM706.249 371.328C706.249 371.792 706.409 372.16 706.729 372.432C707.057 372.704 707.461 372.84 707.941 372.84C708.421 372.84 708.821 372.704 709.141 372.432C709.469 372.16 709.633 371.792 709.633 371.328C709.633 370.84 709.477 370.468 709.165 370.212C708.853 369.948 708.445 369.816 707.941 369.816C707.437 369.816 707.029 369.948 706.717 370.212C706.405 370.468 706.249 370.84 706.249 371.328ZM706.513 376.464C706.865 376.736 707.341 376.872 707.941 376.872C708.541 376.872 709.017 376.736 709.369 376.464C709.729 376.184 709.909 375.784 709.909 375.264C709.909 374.752 709.729 374.356 709.369 374.076C709.001 373.796 708.525 373.656 707.941 373.656C707.357 373.656 706.881 373.796 706.513 374.076C706.153 374.356 705.973 374.752 705.973 375.264C705.973 375.792 706.153 376.192 706.513 376.464Z" fill="#777777"/>
<path d="M30.9847 314.368L33.2047 313.6H33.9247V322H33.0847V314.524L31.2007 315.088L30.9847 314.368Z" fill="#777777"/>
<path d="M41.0029 320.968C40.4509 321.752 39.6709 322.144 38.6629 322.144C37.6629 322.144 36.8789 321.752 36.3109 320.968C35.7589 320.176 35.4829 319.12 35.4829 317.8C35.4829 316.472 35.7589 315.42 36.3109 314.644C36.8789 313.852 37.6629 313.456 38.6629 313.456C39.6709 313.456 40.4509 313.852 41.0029 314.644C41.5629 315.42 41.8429 316.472 41.8429 317.8C41.8429 319.128 41.5629 320.184 41.0029 320.968ZM36.9349 320.404C37.3589 321.02 37.9349 321.328 38.6629 321.328C39.3989 321.328 39.9709 321.02 40.3789 320.404C40.7949 319.796 41.0029 318.928 41.0029 317.8C41.0029 316.672 40.7949 315.804 40.3789 315.196C39.9709 314.58 39.3989 314.272 38.6629 314.272C37.9349 314.272 37.3589 314.58 36.9349 315.196C36.5269 315.812 36.3229 316.68 36.3229 317.8C36.3229 318.92 36.5269 319.788 36.9349 320.404Z" fill="#777777"/>
<path d="M48.5615 320.968C48.0095 321.752 47.2295 322.144 46.2215 322.144C45.2215 322.144 44.4375 321.752 43.8695 320.968C43.3175 320.176 43.0415 319.12 43.0415 317.8C43.0415 316.472 43.3175 315.42 43.8695 314.644C44.4375 313.852 45.2215 313.456 46.2215 313.456C47.2295 313.456 48.0095 313.852 48.5615 314.644C49.1215 315.42 49.4015 316.472 49.4015 317.8C49.4015 319.128 49.1215 320.184 48.5615 320.968ZM44.4935 320.404C44.9175 321.02 45.4935 321.328 46.2215 321.328C46.9575 321.328 47.5295 321.02 47.9375 320.404C48.3535 319.796 48.5615 318.928 48.5615 317.8C48.5615 316.672 48.3535 315.804 47.9375 315.196C47.5295 314.58 46.9575 314.272 46.2215 314.272C45.4935 314.272 44.9175 314.58 44.4935 315.196C44.0855 315.812 43.8815 316.68 43.8815 317.8C43.8815 318.92 44.0855 319.788 44.4935 320.404Z" fill="#777777"/>
<path d="M34.5153 283H29.1753V282.244L32.1993 279.196C33.0633 278.332 33.4953 277.592 33.4953 276.976C33.4953 276.456 33.3313 276.044 33.0033 275.74C32.6833 275.428 32.2833 275.272 31.8033 275.272C30.9473 275.272 30.3193 275.668 29.9193 276.46L29.2113 276.04C29.4673 275.528 29.8233 275.136 30.2793 274.864C30.7353 274.592 31.2433 274.456 31.8033 274.456C32.4753 274.456 33.0633 274.684 33.5673 275.14C34.0793 275.58 34.3353 276.192 34.3353 276.976C34.3353 277.44 34.2073 277.896 33.9513 278.344C33.6953 278.784 33.3033 279.268 32.7753 279.796L30.3753 282.184H34.5153V283Z" fill="#777777"/>
<path d="M41.0028 281.968C40.4508 282.752 39.6708 283.144 38.6628 283.144C37.6628 283.144 36.8788 282.752 36.3108 281.968C35.7588 281.176 35.4828 280.12 35.4828 278.8C35.4828 277.472 35.7588 276.42 36.3108 275.644C36.8788 274.852 37.6628 274.456 38.6628 274.456C39.6708 274.456 40.4508 274.852 41.0028 275.644C41.5628 276.42 41.8428 277.472 41.8428 278.8C41.8428 280.128 41.5628 281.184 41.0028 281.968ZM36.9348 281.404C37.3588 282.02 37.9348 282.328 38.6628 282.328C39.3988 282.328 39.9708 282.02 40.3788 281.404C40.7948 280.796 41.0028 279.928 41.0028 278.8C41.0028 277.672 40.7948 276.804 40.3788 276.196C39.9708 275.58 39.3988 275.272 38.6628 275.272C37.9348 275.272 37.3588 275.58 36.9348 276.196C36.5268 276.812 36.3228 277.68 36.3228 278.8C36.3228 279.92 36.5268 280.788 36.9348 281.404Z" fill="#777777"/>
<path d="M48.5614 281.968C48.0094 282.752 47.2294 283.144 46.2214 283.144C45.2214 283.144 44.4374 282.752 43.8694 281.968C43.3174 281.176 43.0414 280.12 43.0414 278.8C43.0414 277.472 43.3174 276.42 43.8694 275.644C44.4374 274.852 45.2214 274.456 46.2214 274.456C47.2294 274.456 48.0094 274.852 48.5614 275.644C49.1214 276.42 49.4014 277.472 49.4014 278.8C49.4014 280.128 49.1214 281.184 48.5614 281.968ZM44.4934 281.404C44.9174 282.02 45.4934 282.328 46.2214 282.328C46.9574 282.328 47.5294 282.02 47.9374 281.404C48.3534 280.796 48.5614 279.928 48.5614 278.8C48.5614 277.672 48.3534 276.804 47.9374 276.196C47.5294 275.58 46.9574 275.272 46.2214 275.272C45.4934 275.272 44.9174 275.58 44.4934 276.196C44.0854 276.812 43.8814 277.68 43.8814 278.8C43.8814 279.92 44.0854 280.788 44.4934 281.404Z" fill="#777777"/>
<path d="M34.0395 236.392L32.0835 239.092C32.7475 239.172 33.2995 239.432 33.7395 239.872C34.1795 240.288 34.3995 240.852 34.3995 241.564C34.3995 242.356 34.1235 242.988 33.5715 243.46C33.0355 243.916 32.3715 244.144 31.5795 244.144C30.9475 244.144 30.3875 244 29.8995 243.712C29.4115 243.416 29.0715 243.004 28.8795 242.476L29.5755 242.068C29.7115 242.476 29.9515 242.788 30.2955 243.004C30.6475 243.22 31.0755 243.328 31.5795 243.328C32.1715 243.328 32.6475 243.172 33.0075 242.86C33.3755 242.54 33.5595 242.108 33.5595 241.564C33.5595 241.02 33.3755 240.592 33.0075 240.28C32.6475 239.96 32.1715 239.8 31.5795 239.8V239.788L31.5675 239.8H31.3395L30.9795 239.248L33.0675 236.392H29.1195V235.6H34.0395V236.392Z" fill="#777777"/>
<path d="M41.0028 242.968C40.4508 243.752 39.6708 244.144 38.6628 244.144C37.6628 244.144 36.8788 243.752 36.3108 242.968C35.7588 242.176 35.4828 241.12 35.4828 239.8C35.4828 238.472 35.7588 237.42 36.3108 236.644C36.8788 235.852 37.6628 235.456 38.6628 235.456C39.6708 235.456 40.4508 235.852 41.0028 236.644C41.5628 237.42 41.8428 238.472 41.8428 239.8C41.8428 241.128 41.5628 242.184 41.0028 242.968ZM36.9348 242.404C37.3588 243.02 37.9348 243.328 38.6628 243.328C39.3988 243.328 39.9708 243.02 40.3788 242.404C40.7948 241.796 41.0028 240.928 41.0028 239.8C41.0028 238.672 40.7948 237.804 40.3788 237.196C39.9708 236.58 39.3988 236.272 38.6628 236.272C37.9348 236.272 37.3588 236.58 36.9348 237.196C36.5268 237.812 36.3228 238.68 36.3228 239.8C36.3228 240.92 36.5268 241.788 36.9348 242.404Z" fill="#777777"/>
<path d="M48.5614 242.968C48.0094 243.752 47.2294 244.144 46.2214 244.144C45.2214 244.144 44.4374 243.752 43.8694 242.968C43.3174 242.176 43.0414 241.12 43.0414 239.8C43.0414 238.472 43.3174 237.42 43.8694 236.644C44.4374 235.852 45.2214 235.456 46.2214 235.456C47.2294 235.456 48.0094 235.852 48.5614 236.644C49.1214 237.42 49.4014 238.472 49.4014 239.8C49.4014 241.128 49.1214 242.184 48.5614 242.968ZM44.4934 242.404C44.9174 243.02 45.4934 243.328 46.2214 243.328C46.9574 243.328 47.5294 243.02 47.9374 242.404C48.3534 241.796 48.5614 240.928 48.5614 239.8C48.5614 238.672 48.3534 237.804 47.9374 237.196C47.5294 236.58 46.9574 236.272 46.2214 236.272C45.4934 236.272 44.9174 236.58 44.4934 237.196C44.0854 237.812 43.8814 238.68 43.8814 239.8C43.8814 240.92 44.0854 241.788 44.4934 242.404Z" fill="#777777"/>
<path d="M33.5019 202.528H34.5819V203.32H33.5019V205H32.6619V203.32H28.2219V202.528L31.3419 196.6H32.2659L29.1459 202.528H32.6619V199.96H33.5019V202.528Z" fill="#777777"/>
<path d="M41.0029 203.968C40.4509 204.752 39.6709 205.144 38.6629 205.144C37.6629 205.144 36.8789 204.752 36.3109 203.968C35.7589 203.176 35.4829 202.12 35.4829 200.8C35.4829 199.472 35.7589 198.42 36.3109 197.644C36.8789 196.852 37.6629 196.456 38.6629 196.456C39.6709 196.456 40.4509 196.852 41.0029 197.644C41.5629 198.42 41.8429 199.472 41.8429 200.8C41.8429 202.128 41.5629 203.184 41.0029 203.968ZM36.9349 203.404C37.3589 204.02 37.9349 204.328 38.6629 204.328C39.3989 204.328 39.9709 204.02 40.3789 203.404C40.7949 202.796 41.0029 201.928 41.0029 200.8C41.0029 199.672 40.7949 198.804 40.3789 198.196C39.9709 197.58 39.3989 197.272 38.6629 197.272C37.9349 197.272 37.3589 197.58 36.9349 198.196C36.5269 198.812 36.3229 199.68 36.3229 200.8C36.3229 201.92 36.5269 202.788 36.9349 203.404Z" fill="#777777"/>
<path d="M48.5615 203.968C48.0095 204.752 47.2295 205.144 46.2215 205.144C45.2215 205.144 44.4375 204.752 43.8695 203.968C43.3175 203.176 43.0415 202.12 43.0415 200.8C43.0415 199.472 43.3175 198.42 43.8695 197.644C44.4375 196.852 45.2215 196.456 46.2215 196.456C47.2295 196.456 48.0095 196.852 48.5615 197.644C49.1215 198.42 49.4015 199.472 49.4015 200.8C49.4015 202.128 49.1215 203.184 48.5615 203.968ZM44.4935 203.404C44.9175 204.02 45.4935 204.328 46.2215 204.328C46.9575 204.328 47.5295 204.02 47.9375 203.404C48.3535 202.796 48.5615 201.928 48.5615 200.8C48.5615 199.672 48.3535 198.804 47.9375 198.196C47.5295 197.58 46.9575 197.272 46.2215 197.272C45.4935 197.272 44.9175 197.58 44.4935 198.196C44.0855 198.812 43.8815 199.68 43.8815 200.8C43.8815 201.92 44.0855 202.788 44.4935 203.404Z" fill="#777777"/>
<path d="M30.4007 160.984H31.8167C32.6087 160.984 33.2727 161.216 33.8087 161.68C34.3607 162.136 34.6367 162.764 34.6367 163.564C34.6367 164.356 34.3607 164.988 33.8087 165.46C33.2727 165.916 32.6087 166.144 31.8167 166.144C31.1687 166.144 30.5967 165.988 30.1007 165.676C29.6127 165.356 29.2847 164.916 29.1167 164.356L29.8247 163.948C29.9447 164.388 30.1807 164.728 30.5327 164.968C30.8847 165.208 31.3127 165.328 31.8167 165.328C32.4087 165.328 32.8847 165.172 33.2447 164.86C33.6127 164.54 33.7967 164.108 33.7967 163.564C33.7967 163.02 33.6127 162.592 33.2447 162.28C32.8847 161.96 32.4087 161.8 31.8167 161.8H29.5367L29.8367 157.6H34.3367V158.392H30.5807L30.4007 160.984Z" fill="#777777"/>
<path d="M41.0028 164.968C40.4508 165.752 39.6708 166.144 38.6628 166.144C37.6628 166.144 36.8788 165.752 36.3108 164.968C35.7588 164.176 35.4828 163.12 35.4828 161.8C35.4828 160.472 35.7588 159.42 36.3108 158.644C36.8788 157.852 37.6628 157.456 38.6628 157.456C39.6708 157.456 40.4508 157.852 41.0028 158.644C41.5628 159.42 41.8428 160.472 41.8428 161.8C41.8428 163.128 41.5628 164.184 41.0028 164.968ZM36.9348 164.404C37.3588 165.02 37.9348 165.328 38.6628 165.328C39.3988 165.328 39.9708 165.02 40.3788 164.404C40.7948 163.796 41.0028 162.928 41.0028 161.8C41.0028 160.672 40.7948 159.804 40.3788 159.196C39.9708 158.58 39.3988 158.272 38.6628 158.272C37.9348 158.272 37.3588 158.58 36.9348 159.196C36.5268 159.812 36.3228 160.68 36.3228 161.8C36.3228 162.92 36.5268 163.788 36.9348 164.404Z" fill="#777777"/>
<path d="M48.5614 164.968C48.0094 165.752 47.2294 166.144 46.2214 166.144C45.2214 166.144 44.4374 165.752 43.8694 164.968C43.3174 164.176 43.0414 163.12 43.0414 161.8C43.0414 160.472 43.3174 159.42 43.8694 158.644C44.4374 157.852 45.2214 157.456 46.2214 157.456C47.2294 157.456 48.0094 157.852 48.5614 158.644C49.1214 159.42 49.4014 160.472 49.4014 161.8C49.4014 163.128 49.1214 164.184 48.5614 164.968ZM44.4934 164.404C44.9174 165.02 45.4934 165.328 46.2214 165.328C46.9574 165.328 47.5294 165.02 47.9374 164.404C48.3534 163.796 48.5614 162.928 48.5614 161.8C48.5614 160.672 48.3534 159.804 47.9374 159.196C47.5294 158.58 46.9574 158.272 46.2214 158.272C45.4934 158.272 44.9174 158.58 44.4934 159.196C44.0854 159.812 43.8814 160.68 43.8814 161.8C43.8814 162.92 44.0854 163.788 44.4934 164.404Z" fill="#777777"/>
<path d="M31.6995 121.6C32.5155 121.6 33.1915 121.86 33.7275 122.38C34.2555 122.9 34.5195 123.564 34.5195 124.372C34.5195 125.196 34.2555 125.864 33.7275 126.376C33.2075 126.888 32.5315 127.144 31.6995 127.144C30.8675 127.144 30.1915 126.888 29.6715 126.376C29.1435 125.864 28.8795 125.196 28.8795 124.372C28.8795 123.74 29.0515 123.18 29.3955 122.692L32.1435 118.6H33.0915L31.0275 121.672C31.2435 121.624 31.4675 121.6 31.6995 121.6ZM30.2595 125.788C30.6355 126.148 31.1155 126.328 31.6995 126.328C32.2915 126.328 32.7675 126.148 33.1275 125.788C33.4955 125.428 33.6795 124.956 33.6795 124.372C33.6795 123.788 33.4955 123.316 33.1275 122.956C32.7675 122.596 32.2915 122.416 31.6995 122.416C31.1155 122.416 30.6355 122.596 30.2595 122.956C29.8995 123.316 29.7195 123.788 29.7195 124.372C29.7195 124.956 29.8995 125.428 30.2595 125.788Z" fill="#777777"/>
<path d="M41.0028 125.968C40.4508 126.752 39.6708 127.144 38.6628 127.144C37.6628 127.144 36.8788 126.752 36.3108 125.968C35.7588 125.176 35.4828 124.12 35.4828 122.8C35.4828 121.472 35.7588 120.42 36.3108 119.644C36.8788 118.852 37.6628 118.456 38.6628 118.456C39.6708 118.456 40.4508 118.852 41.0028 119.644C41.5628 120.42 41.8428 121.472 41.8428 122.8C41.8428 124.128 41.5628 125.184 41.0028 125.968ZM36.9348 125.404C37.3588 126.02 37.9348 126.328 38.6628 126.328C39.3988 126.328 39.9708 126.02 40.3788 125.404C40.7948 124.796 41.0028 123.928 41.0028 122.8C41.0028 121.672 40.7948 120.804 40.3788 120.196C39.9708 119.58 39.3988 119.272 38.6628 119.272C37.9348 119.272 37.3588 119.58 36.9348 120.196C36.5268 120.812 36.3228 121.68 36.3228 122.8C36.3228 123.92 36.5268 124.788 36.9348 125.404Z" fill="#777777"/>
<path d="M48.5614 125.968C48.0094 126.752 47.2294 127.144 46.2214 127.144C45.2214 127.144 44.4374 126.752 43.8694 125.968C43.3174 125.176 43.0414 124.12 43.0414 122.8C43.0414 121.472 43.3174 120.42 43.8694 119.644C44.4374 118.852 45.2214 118.456 46.2214 118.456C47.2294 118.456 48.0094 118.852 48.5614 119.644C49.1214 120.42 49.4014 121.472 49.4014 122.8C49.4014 124.128 49.1214 125.184 48.5614 125.968ZM44.4934 125.404C44.9174 126.02 45.4934 126.328 46.2214 126.328C46.9574 126.328 47.5294 126.02 47.9374 125.404C48.3534 124.796 48.5614 123.928 48.5614 122.8C48.5614 121.672 48.3534 120.804 47.9374 120.196C47.5294 119.58 46.9574 119.272 46.2214 119.272C45.4934 119.272 44.9174 119.58 44.4934 120.196C44.0854 120.812 43.8814 121.68 43.8814 122.8C43.8814 123.92 44.0854 124.788 44.4934 125.404Z" fill="#777777"/>
<path d="M29.7087 80.3921V79.6001H34.8687V80.3921L31.7007 88.0001H30.8247L33.9927 80.3921H29.7087Z" fill="#777777"/>
<path d="M41.0028 86.9681C40.4508 87.7521 39.6708 88.1441 38.6628 88.1441C37.6628 88.1441 36.8788 87.7521 36.3108 86.9681C35.7588 86.1761 35.4828 85.1201 35.4828 83.8001C35.4828 82.4721 35.7588 81.4201 36.3108 80.6441C36.8788 79.8521 37.6628 79.4561 38.6628 79.4561C39.6708 79.4561 40.4508 79.8521 41.0028 80.6441C41.5628 81.4201 41.8428 82.4721 41.8428 83.8001C41.8428 85.1281 41.5628 86.1841 41.0028 86.9681ZM36.9348 86.4041C37.3588 87.0201 37.9348 87.3281 38.6628 87.3281C39.3988 87.3281 39.9708 87.0201 40.3788 86.4041C40.7948 85.7961 41.0028 84.9281 41.0028 83.8001C41.0028 82.6721 40.7948 81.8041 40.3788 81.1961C39.9708 80.5801 39.3988 80.2721 38.6628 80.2721C37.9348 80.2721 37.3588 80.5801 36.9348 81.1961C36.5268 81.8121 36.3228 82.6801 36.3228 83.8001C36.3228 84.9201 36.5268 85.7881 36.9348 86.4041Z" fill="#777777"/>
<path d="M48.5614 86.9681C48.0094 87.7521 47.2294 88.1441 46.2214 88.1441C45.2214 88.1441 44.4374 87.7521 43.8694 86.9681C43.3174 86.1761 43.0414 85.1201 43.0414 83.8001C43.0414 82.4721 43.3174 81.4201 43.8694 80.6441C44.4374 79.8521 45.2214 79.4561 46.2214 79.4561C47.2294 79.4561 48.0094 79.8521 48.5614 80.6441C49.1214 81.4201 49.4014 82.4721 49.4014 83.8001C49.4014 85.1281 49.1214 86.1841 48.5614 86.9681ZM44.4934 86.4041C44.9174 87.0201 45.4934 87.3281 46.2214 87.3281C46.9574 87.3281 47.5294 87.0201 47.9374 86.4041C48.3534 85.7961 48.5614 84.9281 48.5614 83.8001C48.5614 82.6721 48.3534 81.8041 47.9374 81.1961C47.5294 80.5801 46.9574 80.2721 46.2214 80.2721C45.4934 80.2721 44.9174 80.5801 44.4934 81.1961C44.0854 81.8121 43.8814 82.6801 43.8814 83.8001C43.8814 84.9201 44.0854 85.7881 44.4934 86.4041Z" fill="#777777"/>
<path d="M33.0126 44.6681C33.4446 44.8681 33.7846 45.1481 34.0326 45.5081C34.2806 45.8681 34.4046 46.2721 34.4046 46.7201C34.4046 47.4801 34.1366 48.0761 33.6006 48.5081C33.0566 48.9321 32.3886 49.1441 31.5966 49.1441C30.8046 49.1441 30.1366 48.9321 29.5926 48.5081C29.0566 48.0761 28.7886 47.4801 28.7886 46.7201C28.7886 46.2721 28.9126 45.8681 29.1606 45.5081C29.4086 45.1481 29.7486 44.8681 30.1806 44.6681C29.4366 44.2441 29.0646 43.6161 29.0646 42.7841C29.0646 42.0321 29.3126 41.4561 29.8086 41.0561C30.3206 40.6561 30.9166 40.4561 31.5966 40.4561C32.2846 40.4561 32.8766 40.6561 33.3726 41.0561C33.8766 41.4561 34.1286 42.0321 34.1286 42.7841C34.1286 43.6161 33.7566 44.2441 33.0126 44.6681ZM29.9046 42.7841C29.9046 43.2481 30.0646 43.6161 30.3846 43.8881C30.7126 44.1601 31.1166 44.2961 31.5966 44.2961C32.0766 44.2961 32.4766 44.1601 32.7966 43.8881C33.1246 43.6161 33.2886 43.2481 33.2886 42.7841C33.2886 42.2961 33.1326 41.9241 32.8206 41.6681C32.5086 41.4041 32.1006 41.2721 31.5966 41.2721C31.0926 41.2721 30.6846 41.4041 30.3726 41.6681C30.0606 41.9241 29.9046 42.2961 29.9046 42.7841ZM30.1686 47.9201C30.5206 48.1921 30.9966 48.3281 31.5966 48.3281C32.1966 48.3281 32.6726 48.1921 33.0246 47.9201C33.3846 47.6401 33.5646 47.2401 33.5646 46.7201C33.5646 46.2081 33.3846 45.8121 33.0246 45.5321C32.6566 45.2521 32.1806 45.1121 31.5966 45.1121C31.0126 45.1121 30.5366 45.2521 30.1686 45.5321C29.8086 45.8121 29.6286 46.2081 29.6286 46.7201C29.6286 47.2481 29.8086 47.6481 30.1686 47.9201Z" fill="#777777"/>
<path d="M41.0028 47.9681C40.4508 48.7521 39.6708 49.1441 38.6628 49.1441C37.6628 49.1441 36.8788 48.7521 36.3108 47.9681C35.7588 47.1761 35.4828 46.1201 35.4828 44.8001C35.4828 43.4721 35.7588 42.4201 36.3108 41.6441C36.8788 40.8521 37.6628 40.4561 38.6628 40.4561C39.6708 40.4561 40.4508 40.8521 41.0028 41.6441C41.5628 42.4201 41.8428 43.4721 41.8428 44.8001C41.8428 46.1281 41.5628 47.1841 41.0028 47.9681ZM36.9348 47.4041C37.3588 48.0201 37.9348 48.3281 38.6628 48.3281C39.3988 48.3281 39.9708 48.0201 40.3788 47.4041C40.7948 46.7961 41.0028 45.9281 41.0028 44.8001C41.0028 43.6721 40.7948 42.8041 40.3788 42.1961C39.9708 41.5801 39.3988 41.2721 38.6628 41.2721C37.9348 41.2721 37.3588 41.5801 36.9348 42.1961C36.5268 42.8121 36.3228 43.6801 36.3228 44.8001C36.3228 45.9201 36.5268 46.7881 36.9348 47.4041Z" fill="#777777"/>
<path d="M48.5614 47.9681C48.0094 48.7521 47.2294 49.1441 46.2214 49.1441C45.2214 49.1441 44.4374 48.7521 43.8694 47.9681C43.3174 47.1761 43.0414 46.1201 43.0414 44.8001C43.0414 43.4721 43.3174 42.4201 43.8694 41.6441C44.4374 40.8521 45.2214 40.4561 46.2214 40.4561C47.2294 40.4561 48.0094 40.8521 48.5614 41.6441C49.1214 42.4201 49.4014 43.4721 49.4014 44.8001C49.4014 46.1281 49.1214 47.1841 48.5614 47.9681ZM44.4934 47.4041C44.9174 48.0201 45.4934 48.3281 46.2214 48.3281C46.9574 48.3281 47.5294 48.0201 47.9374 47.4041C48.3534 46.7961 48.5614 45.9281 48.5614 44.8001C48.5614 43.6721 48.3534 42.8041 47.9374 42.1961C47.5294 41.5801 46.9574 41.2721 46.2214 41.2721C45.4934 41.2721 44.9174 41.5801 44.4934 42.1961C44.0854 42.8121 43.8814 43.6801 43.8814 44.8001C43.8814 45.9201 44.0854 46.7881 44.4934 47.4041Z" fill="#777777"/>
<rect x="80" y="270" width="35" height="88" fill="#CC1237"/>
<rect x="146" y="249" width="35" height="109" fill="#CC1237"/>
<rect x="215" y="229" width="35" height="129" fill="#CC1237"/>
<rect x="280" y="202" width="35" height="156" fill="#CC1237"/>
<rect x="345" y="196" width="35" height="162" fill="#CC1237"/>
<rect x="413" y="183" width="35" height="175" fill="#CC1237"/>
<rect x="481" y="158" width="35" height="200" fill="#CC1237"/>
<rect x="548" y="146" width="35" height="212" fill="#CC1237"/>
<rect x="614" y="119" width="35" height="239" fill="#CC1237"/>
<rect x="682" y="96" width="35" height="262" fill="#CC1237"/>
<path d="M88.945 286H83.605V285.244L86.629 282.196C87.493 281.332 87.925 280.592 87.925 279.976C87.925 279.456 87.761 279.044 87.433 278.74C87.113 278.428 86.713 278.272 86.233 278.272C85.377 278.272 84.749 278.668 84.349 279.46L83.641 279.04C83.897 278.528 84.253 278.136 84.709 277.864C85.165 277.592 85.673 277.456 86.233 277.456C86.905 277.456 87.493 277.684 87.997 278.14C88.509 278.58 88.765 279.192 88.765 279.976C88.765 280.44 88.637 280.896 88.381 281.344C88.125 281.784 87.733 282.268 87.205 282.796L84.805 285.184H88.945V286Z" fill="white"/>
<path d="M95.2497 286H89.9097V285.244L92.9337 282.196C93.7977 281.332 94.2297 280.592 94.2297 279.976C94.2297 279.456 94.0657 279.044 93.7377 278.74C93.4177 278.428 93.0177 278.272 92.5377 278.272C91.6817 278.272 91.0537 278.668 90.6537 279.46L89.9457 279.04C90.2017 278.528 90.5577 278.136 91.0137 277.864C91.4697 277.592 91.9777 277.456 92.5377 277.456C93.2097 277.456 93.7977 277.684 94.3017 278.14C94.8137 278.58 95.0697 279.192 95.0697 279.976C95.0697 280.44 94.9417 280.896 94.6857 281.344C94.4297 281.784 94.0377 282.268 93.5097 282.796L91.1097 285.184H95.2497V286Z" fill="white"/>
<path d="M101.137 278.392L99.1812 281.092C99.8452 281.172 100.397 281.432 100.837 281.872C101.277 282.288 101.497 282.852 101.497 283.564C101.497 284.356 101.221 284.988 100.669 285.46C100.133 285.916 99.4692 286.144 98.6772 286.144C98.0452 286.144 97.4852 286 96.9972 285.712C96.5092 285.416 96.1692 285.004 95.9772 284.476L96.6732 284.068C96.8092 284.476 97.0492 284.788 97.3932 285.004C97.7452 285.22 98.1732 285.328 98.6772 285.328C99.2692 285.328 99.7452 285.172 100.105 284.86C100.473 284.54 100.657 284.108 100.657 283.564C100.657 283.02 100.473 282.592 100.105 282.28C99.7452 281.96 99.2692 281.8 98.6772 281.8V281.788L98.6652 281.8H98.4372L98.0772 281.248L100.165 278.392H96.2172V277.6H101.137V278.392Z" fill="white"/>
<path d="M103.786 285.46C103.786 285.644 103.722 285.8 103.594 285.928C103.466 286.056 103.31 286.12 103.126 286.12C102.942 286.12 102.786 286.056 102.658 285.928C102.53 285.8 102.466 285.644 102.466 285.46C102.466 285.276 102.53 285.12 102.658 284.992C102.786 284.864 102.942 284.8 103.126 284.8C103.31 284.8 103.466 284.864 103.594 284.992C103.722 285.12 103.786 285.276 103.786 285.46Z" fill="white"/>
<path d="M110.032 278.392L108.076 281.092C108.74 281.172 109.292 281.432 109.732 281.872C110.172 282.288 110.392 282.852 110.392 283.564C110.392 284.356 110.116 284.988 109.564 285.46C109.028 285.916 108.364 286.144 107.572 286.144C106.94 286.144 106.38 286 105.892 285.712C105.404 285.416 105.064 285.004 104.872 284.476L105.568 284.068C105.704 284.476 105.944 284.788 106.288 285.004C106.64 285.22 107.068 285.328 107.572 285.328C108.164 285.328 108.64 285.172 109 284.86C109.368 284.54 109.552 284.108 109.552 283.564C109.552 283.02 109.368 282.592 109 282.28C108.64 281.96 108.164 281.8 107.572 281.8V281.788L107.56 281.8H107.332L106.972 281.248L109.06 278.392H105.112V277.6H110.032V278.392Z" fill="white"/>
<path d="M154.988 264H149.648V263.244L152.672 260.196C153.536 259.332 153.968 258.592 153.968 257.976C153.968 257.456 153.804 257.044 153.476 256.74C153.156 256.428 152.756 256.272 152.276 256.272C151.42 256.272 150.792 256.668 150.392 257.46L149.684 257.04C149.94 256.528 150.296 256.136 150.752 255.864C151.208 255.592 151.716 255.456 152.276 255.456C152.948 255.456 153.536 255.684 154.04 256.14C154.552 256.58 154.808 257.192 154.808 257.976C154.808 258.44 154.68 258.896 154.424 259.344C154.168 259.784 153.776 260.268 153.248 260.796L150.848 263.184H154.988V264Z" fill="white"/>
<path d="M160.118 259.668C160.55 259.868 160.89 260.148 161.138 260.508C161.386 260.868 161.51 261.272 161.51 261.72C161.51 262.48 161.242 263.076 160.706 263.508C160.162 263.932 159.494 264.144 158.702 264.144C157.91 264.144 157.242 263.932 156.698 263.508C156.162 263.076 155.894 262.48 155.894 261.72C155.894 261.272 156.018 260.868 156.266 260.508C156.514 260.148 156.854 259.868 157.286 259.668C156.542 259.244 156.17 258.616 156.17 257.784C156.17 257.032 156.418 256.456 156.914 256.056C157.426 255.656 158.022 255.456 158.702 255.456C159.39 255.456 159.982 255.656 160.478 256.056C160.982 256.456 161.234 257.032 161.234 257.784C161.234 258.616 160.862 259.244 160.118 259.668ZM157.01 257.784C157.01 258.248 157.17 258.616 157.49 258.888C157.818 259.16 158.222 259.296 158.702 259.296C159.182 259.296 159.582 259.16 159.902 258.888C160.23 258.616 160.394 258.248 160.394 257.784C160.394 257.296 160.238 256.924 159.926 256.668C159.614 256.404 159.206 256.272 158.702 256.272C158.198 256.272 157.79 256.404 157.478 256.668C157.166 256.924 157.01 257.296 157.01 257.784ZM157.274 262.92C157.626 263.192 158.102 263.328 158.702 263.328C159.302 263.328 159.778 263.192 160.13 262.92C160.49 262.64 160.67 262.24 160.67 261.72C160.67 261.208 160.49 260.812 160.13 260.532C159.762 260.252 159.286 260.112 158.702 260.112C158.118 260.112 157.642 260.252 157.274 260.532C156.914 260.812 156.734 261.208 156.734 261.72C156.734 262.248 156.914 262.648 157.274 262.92Z" fill="white"/>
<path d="M167.803 261.528H168.883V262.32H167.803V264H166.963V262.32H162.523V261.528L165.643 255.6H166.567L163.447 261.528H166.963V258.96H167.803V261.528Z" fill="white"/>
<path d="M171.224 263.46C171.224 263.644 171.16 263.8 171.032 263.928C170.904 264.056 170.748 264.12 170.564 264.12C170.38 264.12 170.224 264.056 170.096 263.928C169.968 263.8 169.904 263.644 169.904 263.46C169.904 263.276 169.968 263.12 170.096 262.992C170.224 262.864 170.38 262.8 170.564 262.8C170.748 262.8 170.904 262.864 171.032 262.992C171.16 263.12 171.224 263.276 171.224 263.46Z" fill="white"/>
<path d="M172.189 256.392V255.6H177.349V256.392L174.181 264H173.305L176.473 256.392H172.189Z" fill="white"/>
<path d="M225.723 236.392L223.767 239.092C224.431 239.172 224.983 239.432 225.423 239.872C225.863 240.288 226.083 240.852 226.083 241.564C226.083 242.356 225.807 242.988 225.255 243.46C224.719 243.916 224.055 244.144 223.263 244.144C222.631 244.144 222.071 244 221.583 243.712C221.095 243.416 220.755 243.004 220.563 242.476L221.259 242.068C221.395 242.476 221.635 242.788 221.979 243.004C222.331 243.22 222.759 243.328 223.263 243.328C223.855 243.328 224.331 243.172 224.691 242.86C225.059 242.54 225.243 242.108 225.243 241.564C225.243 241.02 225.059 240.592 224.691 240.28C224.331 239.96 223.855 239.8 223.263 239.8V239.788L223.251 239.8H223.023L222.663 239.248L224.751 236.392H220.803V235.6H225.723V236.392Z" fill="white"/>
<path d="M231.852 236.392L229.896 239.092C230.56 239.172 231.112 239.432 231.552 239.872C231.992 240.288 232.212 240.852 232.212 241.564C232.212 242.356 231.936 242.988 231.384 243.46C230.848 243.916 230.184 244.144 229.392 244.144C228.76 244.144 228.2 244 227.712 243.712C227.224 243.416 226.884 243.004 226.692 242.476L227.388 242.068C227.524 242.476 227.764 242.788 228.108 243.004C228.46 243.22 228.888 243.328 229.392 243.328C229.984 243.328 230.46 243.172 230.82 242.86C231.188 242.54 231.372 242.108 231.372 241.564C231.372 241.02 231.188 240.592 230.82 240.28C230.46 239.96 229.984 239.8 229.392 239.8V239.788L229.38 239.8H229.152L228.792 239.248L230.88 236.392H226.932V235.6H231.852V236.392Z" fill="white"/>
<path d="M238.461 238.228C238.461 238.86 238.289 239.42 237.945 239.908L235.197 244H234.249L236.313 240.928C236.097 240.976 235.873 241 235.641 241C234.809 241 234.133 240.744 233.613 240.232C233.085 239.72 232.821 239.052 232.821 238.228C232.821 237.42 233.085 236.756 233.613 236.236C234.149 235.716 234.825 235.456 235.641 235.456C236.457 235.456 237.133 235.716 237.669 236.236C238.197 236.756 238.461 237.42 238.461 238.228ZM234.201 236.812C233.841 237.172 233.661 237.644 233.661 238.228C233.661 238.812 233.841 239.284 234.201 239.644C234.577 240.004 235.057 240.184 235.641 240.184C236.233 240.184 236.709 240.004 237.069 239.644C237.437 239.284 237.621 238.812 237.621 238.228C237.621 237.644 237.437 237.172 237.069 236.812C236.709 236.452 236.233 236.272 235.641 236.272C235.057 236.272 234.577 236.452 234.201 236.812Z" fill="white"/>
<path d="M239.188 243.46C239.188 243.644 239.124 243.8 238.996 243.928C238.868 244.056 238.712 244.12 238.528 244.12C238.344 244.12 238.188 244.056 238.06 243.928C237.932 243.8 237.868 243.644 237.868 243.46C237.868 243.276 237.932 243.12 238.06 242.992C238.188 242.864 238.344 242.8 238.528 242.8C238.712 242.8 238.868 242.864 238.996 242.992C239.124 243.12 239.188 243.276 239.188 243.46Z" fill="white"/>
<path d="M240.154 236.392V235.6H245.314V236.392L242.146 244H241.27L244.438 236.392H240.154Z" fill="white"/>
<path d="M290.366 210.392L288.41 213.092C289.074 213.172 289.626 213.432 290.066 213.872C290.506 214.288 290.726 214.852 290.726 215.564C290.726 216.356 290.45 216.988 289.898 217.46C289.362 217.916 288.698 218.144 287.906 218.144C287.274 218.144 286.714 218 286.226 217.712C285.738 217.416 285.398 217.004 285.206 216.476L285.902 216.068C286.038 216.476 286.278 216.788 286.622 217.004C286.974 217.22 287.402 217.328 287.906 217.328C288.498 217.328 288.974 217.172 289.334 216.86C289.702 216.54 289.886 216.108 289.886 215.564C289.886 215.02 289.702 214.592 289.334 214.28C288.974 213.96 288.498 213.8 287.906 213.8V213.788L287.894 213.8H287.666L287.306 213.248L289.394 210.392H285.446V209.6H290.366V210.392Z" fill="white"/>
<path d="M296.975 212.228C296.975 212.86 296.803 213.42 296.459 213.908L293.711 218H292.763L294.827 214.928C294.611 214.976 294.387 215 294.155 215C293.323 215 292.647 214.744 292.127 214.232C291.599 213.72 291.335 213.052 291.335 212.228C291.335 211.42 291.599 210.756 292.127 210.236C292.663 209.716 293.339 209.456 294.155 209.456C294.971 209.456 295.647 209.716 296.183 210.236C296.711 210.756 296.975 211.42 296.975 212.228ZM292.715 210.812C292.355 211.172 292.175 211.644 292.175 212.228C292.175 212.812 292.355 213.284 292.715 213.644C293.091 214.004 293.571 214.184 294.155 214.184C294.747 214.184 295.223 214.004 295.583 213.644C295.951 213.284 296.135 212.812 296.135 212.228C296.135 211.644 295.951 211.172 295.583 210.812C295.223 210.452 294.747 210.272 294.155 210.272C293.571 210.272 293.091 210.452 292.715 210.812Z" fill="white"/>
<path d="M303.338 212.228C303.338 212.86 303.166 213.42 302.822 213.908L300.074 218H299.126L301.19 214.928C300.974 214.976 300.75 215 300.518 215C299.686 215 299.01 214.744 298.49 214.232C297.962 213.72 297.698 213.052 297.698 212.228C297.698 211.42 297.962 210.756 298.49 210.236C299.026 209.716 299.702 209.456 300.518 209.456C301.334 209.456 302.01 209.716 302.546 210.236C303.074 210.756 303.338 211.42 303.338 212.228ZM299.078 210.812C298.718 211.172 298.538 211.644 298.538 212.228C298.538 212.812 298.718 213.284 299.078 213.644C299.454 214.004 299.934 214.184 300.518 214.184C301.11 214.184 301.586 214.004 301.946 213.644C302.314 213.284 302.498 212.812 302.498 212.228C302.498 211.644 302.314 211.172 301.946 210.812C301.586 210.452 301.11 210.272 300.518 210.272C299.934 210.272 299.454 210.452 299.078 210.812Z" fill="white"/>
<path d="M304.065 217.46C304.065 217.644 304.001 217.8 303.873 217.928C303.745 218.056 303.589 218.12 303.405 218.12C303.221 218.12 303.065 218.056 302.937 217.928C302.809 217.8 302.745 217.644 302.745 217.46C302.745 217.276 302.809 217.12 302.937 216.992C303.065 216.864 303.221 216.8 303.405 216.8C303.589 216.8 303.745 216.864 303.873 216.992C304.001 217.12 304.065 217.276 304.065 217.46Z" fill="white"/>
<path d="M307.971 212.6C308.787 212.6 309.463 212.86 309.999 213.38C310.527 213.9 310.791 214.564 310.791 215.372C310.791 216.196 310.527 216.864 309.999 217.376C309.479 217.888 308.803 218.144 307.971 218.144C307.139 218.144 306.463 217.888 305.943 217.376C305.415 216.864 305.151 216.196 305.151 215.372C305.151 214.74 305.323 214.18 305.667 213.692L308.415 209.6H309.363L307.299 212.672C307.515 212.624 307.739 212.6 307.971 212.6ZM306.531 216.788C306.907 217.148 307.387 217.328 307.971 217.328C308.563 217.328 309.039 217.148 309.399 216.788C309.767 216.428 309.951 215.956 309.951 215.372C309.951 214.788 309.767 214.316 309.399 213.956C309.039 213.596 308.563 213.416 307.971 213.416C307.387 213.416 306.907 213.596 306.531 213.956C306.171 214.316 305.991 214.788 305.991 215.372C305.991 215.956 306.171 216.428 306.531 216.788Z" fill="white"/>
<path d="M355.971 209.528H357.051V210.32H355.971V212H355.131V210.32H350.691V209.528L353.811 203.6H354.735L351.615 209.528H355.131V206.96H355.971V209.528Z" fill="white"/>
<path d="M357.297 204.368L359.517 203.6H360.237V212H359.397V204.524L357.513 205.088L357.297 204.368Z" fill="white"/>
<path d="M366.715 204.392L364.759 207.092C365.423 207.172 365.975 207.432 366.415 207.872C366.855 208.288 367.075 208.852 367.075 209.564C367.075 210.356 366.799 210.988 366.247 211.46C365.711 211.916 365.047 212.144 364.255 212.144C363.623 212.144 363.063 212 362.575 211.712C362.087 211.416 361.747 211.004 361.555 210.476L362.251 210.068C362.387 210.476 362.627 210.788 362.971 211.004C363.323 211.22 363.751 211.328 364.255 211.328C364.847 211.328 365.323 211.172 365.683 210.86C366.051 210.54 366.235 210.108 366.235 209.564C366.235 209.02 366.051 208.592 365.683 208.28C365.323 207.96 364.847 207.8 364.255 207.8V207.788L364.243 207.8H364.015L363.655 207.248L365.743 204.392H361.795V203.6H366.715V204.392Z" fill="white"/>
<path d="M369.364 211.46C369.364 211.644 369.3 211.8 369.172 211.928C369.044 212.056 368.888 212.12 368.704 212.12C368.52 212.12 368.364 212.056 368.236 211.928C368.108 211.8 368.044 211.644 368.044 211.46C368.044 211.276 368.108 211.12 368.236 210.992C368.364 210.864 368.52 210.8 368.704 210.8C368.888 210.8 369.044 210.864 369.172 210.992C369.3 211.12 369.364 211.276 369.364 211.46Z" fill="white"/>
<path d="M375.246 206.228C375.246 206.86 375.074 207.42 374.73 207.908L371.982 212H371.034L373.098 208.928C372.882 208.976 372.658 209 372.426 209C371.594 209 370.918 208.744 370.398 208.232C369.87 207.72 369.606 207.052 369.606 206.228C369.606 205.42 369.87 204.756 370.398 204.236C370.934 203.716 371.61 203.456 372.426 203.456C373.242 203.456 373.918 203.716 374.454 204.236C374.982 204.756 375.246 205.42 375.246 206.228ZM370.986 204.812C370.626 205.172 370.446 205.644 370.446 206.228C370.446 206.812 370.626 207.284 370.986 207.644C371.362 208.004 371.842 208.184 372.426 208.184C373.018 208.184 373.494 208.004 373.854 207.644C374.222 207.284 374.406 206.812 374.406 206.228C374.406 205.644 374.222 205.172 373.854 204.812C373.494 204.452 373.018 204.272 372.426 204.272C371.842 204.272 371.362 204.452 370.986 204.812Z" fill="white"/>
<path d="M421.709 195.528H422.789V196.32H421.709V198H420.869V196.32H416.429V195.528L419.549 189.6H420.473L417.353 195.528H420.869V192.96H421.709V195.528Z" fill="white"/>
<path d="M424.854 192.984H426.27C427.062 192.984 427.726 193.216 428.262 193.68C428.814 194.136 429.09 194.764 429.09 195.564C429.09 196.356 428.814 196.988 428.262 197.46C427.726 197.916 427.062 198.144 426.27 198.144C425.622 198.144 425.05 197.988 424.554 197.676C424.066 197.356 423.738 196.916 423.57 196.356L424.278 195.948C424.398 196.388 424.634 196.728 424.986 196.968C425.338 197.208 425.766 197.328 426.27 197.328C426.862 197.328 427.338 197.172 427.698 196.86C428.066 196.54 428.25 196.108 428.25 195.564C428.25 195.02 428.066 194.592 427.698 194.28C427.338 193.96 426.862 193.8 426.27 193.8H423.99L424.29 189.6H428.79V190.392H425.034L424.854 192.984Z" fill="white"/>
<path d="M434.844 192.228C434.844 192.86 434.672 193.42 434.328 193.908L431.58 198H430.632L432.696 194.928C432.48 194.976 432.256 195 432.024 195C431.192 195 430.516 194.744 429.996 194.232C429.468 193.72 429.204 193.052 429.204 192.228C429.204 191.42 429.468 190.756 429.996 190.236C430.532 189.716 431.208 189.456 432.024 189.456C432.84 189.456 433.516 189.716 434.052 190.236C434.58 190.756 434.844 191.42 434.844 192.228ZM430.584 190.812C430.224 191.172 430.044 191.644 430.044 192.228C430.044 192.812 430.224 193.284 430.584 193.644C430.96 194.004 431.44 194.184 432.024 194.184C432.616 194.184 433.092 194.004 433.452 193.644C433.82 193.284 434.004 192.812 434.004 192.228C434.004 191.644 433.82 191.172 433.452 190.812C433.092 190.452 432.616 190.272 432.024 190.272C431.44 190.272 430.96 190.452 430.584 190.812Z" fill="white"/>
<path d="M435.571 197.46C435.571 197.644 435.507 197.8 435.379 197.928C435.251 198.056 435.095 198.12 434.911 198.12C434.727 198.12 434.571 198.056 434.443 197.928C434.315 197.8 434.251 197.644 434.251 197.46C434.251 197.276 434.315 197.12 434.443 196.992C434.571 196.864 434.727 196.8 434.911 196.8C435.095 196.8 435.251 196.864 435.379 196.992C435.507 197.12 435.571 197.276 435.571 197.46Z" fill="white"/>
<path d="M441.001 193.668C441.433 193.868 441.773 194.148 442.021 194.508C442.269 194.868 442.393 195.272 442.393 195.72C442.393 196.48 442.125 197.076 441.589 197.508C441.045 197.932 440.377 198.144 439.585 198.144C438.793 198.144 438.125 197.932 437.581 197.508C437.045 197.076 436.777 196.48 436.777 195.72C436.777 195.272 436.901 194.868 437.149 194.508C437.397 194.148 437.737 193.868 438.169 193.668C437.425 193.244 437.053 192.616 437.053 191.784C437.053 191.032 437.301 190.456 437.797 190.056C438.309 189.656 438.905 189.456 439.585 189.456C440.273 189.456 440.865 189.656 441.361 190.056C441.865 190.456 442.117 191.032 442.117 191.784C442.117 192.616 441.745 193.244 441.001 193.668ZM437.893 191.784C437.893 192.248 438.053 192.616 438.373 192.888C438.701 193.16 439.105 193.296 439.585 193.296C440.065 193.296 440.465 193.16 440.785 192.888C441.113 192.616 441.277 192.248 441.277 191.784C441.277 191.296 441.121 190.924 440.809 190.668C440.497 190.404 440.089 190.272 439.585 190.272C439.081 190.272 438.673 190.404 438.361 190.668C438.049 190.924 437.893 191.296 437.893 191.784ZM438.157 196.92C438.509 197.192 438.985 197.328 439.585 197.328C440.185 197.328 440.661 197.192 441.013 196.92C441.373 196.64 441.553 196.24 441.553 195.72C441.553 195.208 441.373 194.812 441.013 194.532C440.645 194.252 440.169 194.112 439.585 194.112C439.001 194.112 438.525 194.252 438.157 194.532C437.797 194.812 437.617 195.208 437.617 195.72C437.617 196.248 437.797 196.648 438.157 196.92Z" fill="white"/>
<path d="M486.776 167.984H488.192C488.984 167.984 489.648 168.216 490.184 168.68C490.736 169.136 491.012 169.764 491.012 170.564C491.012 171.356 490.736 171.988 490.184 172.46C489.648 172.916 488.984 173.144 488.192 173.144C487.544 173.144 486.972 172.988 486.476 172.676C485.988 172.356 485.66 171.916 485.492 171.356L486.2 170.948C486.32 171.388 486.556 171.728 486.908 171.968C487.26 172.208 487.688 172.328 488.192 172.328C488.784 172.328 489.26 172.172 489.62 171.86C489.988 171.54 490.172 171.108 490.172 170.564C490.172 170.02 489.988 169.592 489.62 169.28C489.26 168.96 488.784 168.8 488.192 168.8H485.912L486.212 164.6H490.712V165.392H486.956L486.776 167.984Z" fill="white"/>
<path d="M496.843 173H491.503V172.244L494.527 169.196C495.391 168.332 495.823 167.592 495.823 166.976C495.823 166.456 495.659 166.044 495.331 165.74C495.011 165.428 494.611 165.272 494.131 165.272C493.275 165.272 492.647 165.668 492.247 166.46L491.539 166.04C491.795 165.528 492.151 165.136 492.607 164.864C493.063 164.592 493.571 164.456 494.131 164.456C494.803 164.456 495.391 164.684 495.895 165.14C496.407 165.58 496.663 166.192 496.663 166.976C496.663 167.44 496.535 167.896 496.279 168.344C496.023 168.784 495.631 169.268 495.103 169.796L492.703 172.184H496.843V173Z" fill="white"/>
<path d="M502.731 165.392L500.775 168.092C501.439 168.172 501.991 168.432 502.431 168.872C502.871 169.288 503.091 169.852 503.091 170.564C503.091 171.356 502.815 171.988 502.263 172.46C501.727 172.916 501.063 173.144 500.271 173.144C499.639 173.144 499.079 173 498.591 172.712C498.103 172.416 497.763 172.004 497.571 171.476L498.267 171.068C498.403 171.476 498.643 171.788 498.987 172.004C499.339 172.22 499.767 172.328 500.271 172.328C500.863 172.328 501.339 172.172 501.699 171.86C502.067 171.54 502.251 171.108 502.251 170.564C502.251 170.02 502.067 169.592 501.699 169.28C501.339 168.96 500.863 168.8 500.271 168.8V168.788L500.259 168.8H500.031L499.671 168.248L501.759 165.392H497.811V164.6H502.731V165.392Z" fill="white"/>
<path d="M505.38 172.46C505.38 172.644 505.316 172.8 505.188 172.928C505.06 173.056 504.904 173.12 504.72 173.12C504.536 173.12 504.38 173.056 504.252 172.928C504.124 172.8 504.06 172.644 504.06 172.46C504.06 172.276 504.124 172.12 504.252 171.992C504.38 171.864 504.536 171.8 504.72 171.8C504.904 171.8 505.06 171.864 505.188 171.992C505.316 172.12 505.38 172.276 505.38 172.46Z" fill="white"/>
<path d="M506.345 165.392V164.6H511.505V165.392L508.337 173H507.461L510.629 165.392H506.345Z" fill="white"/>
<path d="M552.381 155.984H553.797C554.589 155.984 555.253 156.216 555.789 156.68C556.341 157.136 556.617 157.764 556.617 158.564C556.617 159.356 556.341 159.988 555.789 160.46C555.253 160.916 554.589 161.144 553.797 161.144C553.149 161.144 552.577 160.988 552.081 160.676C551.593 160.356 551.265 159.916 551.097 159.356L551.805 158.948C551.925 159.388 552.161 159.728 552.513 159.968C552.865 160.208 553.293 160.328 553.797 160.328C554.389 160.328 554.865 160.172 555.225 159.86C555.593 159.54 555.777 159.108 555.777 158.564C555.777 158.02 555.593 157.592 555.225 157.28C554.865 156.96 554.389 156.8 553.797 156.8H551.517L551.817 152.6H556.317V153.392H552.561L552.381 155.984Z" fill="white"/>
<path d="M562.678 158.528H563.758V159.32H562.678V161H561.838V159.32H557.398V158.528L560.518 152.6H561.442L558.322 158.528H561.838V155.96H562.678V158.528Z" fill="white"/>
<path d="M569.756 158.528H570.836V159.32H569.756V161H568.916V159.32H564.476V158.528L567.596 152.6H568.52L565.4 158.528H568.916V155.96H569.756V158.528Z" fill="white"/>
<path d="M573.177 160.46C573.177 160.644 573.113 160.8 572.985 160.928C572.857 161.056 572.701 161.12 572.517 161.12C572.333 161.12 572.177 161.056 572.049 160.928C571.921 160.8 571.857 160.644 571.857 160.46C571.857 160.276 571.921 160.12 572.049 159.992C572.177 159.864 572.333 159.8 572.517 159.8C572.701 159.8 572.857 159.864 572.985 159.992C573.113 160.12 573.177 160.276 573.177 160.46Z" fill="white"/>
<path d="M575.666 155.984H577.082C577.874 155.984 578.538 156.216 579.074 156.68C579.626 157.136 579.902 157.764 579.902 158.564C579.902 159.356 579.626 159.988 579.074 160.46C578.538 160.916 577.874 161.144 577.082 161.144C576.434 161.144 575.862 160.988 575.366 160.676C574.878 160.356 574.55 159.916 574.382 159.356L575.09 158.948C575.21 159.388 575.446 159.728 575.798 159.968C576.15 160.208 576.578 160.328 577.082 160.328C577.674 160.328 578.15 160.172 578.51 159.86C578.878 159.54 579.062 159.108 579.062 158.564C579.062 158.02 578.878 157.592 578.51 157.28C578.15 156.96 577.674 156.8 577.082 156.8H574.802L575.102 152.6H579.602V153.392H575.846L575.666 155.984Z" fill="white"/>
<path d="M619.569 128.6C620.385 128.6 621.061 128.86 621.597 129.38C622.125 129.9 622.389 130.564 622.389 131.372C622.389 132.196 622.125 132.864 621.597 133.376C621.077 133.888 620.401 134.144 619.569 134.144C618.737 134.144 618.061 133.888 617.541 133.376C617.013 132.864 616.749 132.196 616.749 131.372C616.749 130.74 616.921 130.18 617.265 129.692L620.013 125.6H620.961L618.897 128.672C619.113 128.624 619.337 128.6 619.569 128.6ZM618.129 132.788C618.505 133.148 618.985 133.328 619.569 133.328C620.161 133.328 620.637 133.148 620.997 132.788C621.365 132.428 621.549 131.956 621.549 131.372C621.549 130.788 621.365 130.316 620.997 129.956C620.637 129.596 620.161 129.416 619.569 129.416C618.985 129.416 618.505 129.596 618.129 129.956C617.769 130.316 617.589 130.788 617.589 131.372C617.589 131.956 617.769 132.428 618.129 132.788Z" fill="white"/>
<path d="M628.872 132.968C628.32 133.752 627.54 134.144 626.532 134.144C625.532 134.144 624.748 133.752 624.18 132.968C623.628 132.176 623.352 131.12 623.352 129.8C623.352 128.472 623.628 127.42 624.18 126.644C624.748 125.852 625.532 125.456 626.532 125.456C627.54 125.456 628.32 125.852 628.872 126.644C629.432 127.42 629.712 128.472 629.712 129.8C629.712 131.128 629.432 132.184 628.872 132.968ZM624.804 132.404C625.228 133.02 625.804 133.328 626.532 133.328C627.268 133.328 627.84 133.02 628.248 132.404C628.664 131.796 628.872 130.928 628.872 129.8C628.872 128.672 628.664 127.804 628.248 127.196C627.84 126.58 627.268 126.272 626.532 126.272C625.804 126.272 625.228 126.58 624.804 127.196C624.396 127.812 624.192 128.68 624.192 129.8C624.192 130.92 624.396 131.788 624.804 132.404Z" fill="white"/>
<path d="M635.015 129.668C635.447 129.868 635.787 130.148 636.035 130.508C636.283 130.868 636.407 131.272 636.407 131.72C636.407 132.48 636.139 133.076 635.603 133.508C635.059 133.932 634.391 134.144 633.599 134.144C632.807 134.144 632.139 133.932 631.595 133.508C631.059 133.076 630.791 132.48 630.791 131.72C630.791 131.272 630.915 130.868 631.163 130.508C631.411 130.148 631.751 129.868 632.183 129.668C631.439 129.244 631.067 128.616 631.067 127.784C631.067 127.032 631.315 126.456 631.811 126.056C632.323 125.656 632.919 125.456 633.599 125.456C634.287 125.456 634.879 125.656 635.375 126.056C635.879 126.456 636.131 127.032 636.131 127.784C636.131 128.616 635.759 129.244 635.015 129.668ZM631.907 127.784C631.907 128.248 632.067 128.616 632.387 128.888C632.715 129.16 633.119 129.296 633.599 129.296C634.079 129.296 634.479 129.16 634.799 128.888C635.127 128.616 635.291 128.248 635.291 127.784C635.291 127.296 635.135 126.924 634.823 126.668C634.511 126.404 634.103 126.272 633.599 126.272C633.095 126.272 632.687 126.404 632.375 126.668C632.063 126.924 631.907 127.296 631.907 127.784ZM632.171 132.92C632.523 133.192 632.999 133.328 633.599 133.328C634.199 133.328 634.675 133.192 635.027 132.92C635.387 132.64 635.567 132.24 635.567 131.72C635.567 131.208 635.387 130.812 635.027 130.532C634.659 130.252 634.183 130.112 633.599 130.112C633.015 130.112 632.539 130.252 632.171 130.532C631.811 130.812 631.631 131.208 631.631 131.72C631.631 132.248 631.811 132.648 632.171 132.92Z" fill="white"/>
<path d="M638.925 133.46C638.925 133.644 638.861 133.8 638.733 133.928C638.605 134.056 638.449 134.12 638.265 134.12C638.081 134.12 637.925 134.056 637.797 133.928C637.669 133.8 637.605 133.644 637.605 133.46C637.605 133.276 637.669 133.12 637.797 132.992C637.925 132.864 638.081 132.8 638.265 132.8C638.449 132.8 638.605 132.864 638.733 132.992C638.861 133.12 638.925 133.276 638.925 133.46Z" fill="white"/>
<path d="M645.23 131.528H646.31V132.32H645.23V134H644.39V132.32H639.95V131.528L643.07 125.6H643.994L640.874 131.528H644.39V128.96H645.23V131.528Z" fill="white"/>
<path d="M689.918 105.6C690.734 105.6 691.41 105.86 691.946 106.38C692.474 106.9 692.738 107.564 692.738 108.372C692.738 109.196 692.474 109.864 691.946 110.376C691.426 110.888 690.75 111.144 689.918 111.144C689.086 111.144 688.41 110.888 687.89 110.376C687.362 109.864 687.098 109.196 687.098 108.372C687.098 107.74 687.27 107.18 687.614 106.692L690.362 102.6H691.31L689.246 105.672C689.462 105.624 689.686 105.6 689.918 105.6ZM688.478 109.788C688.854 110.148 689.334 110.328 689.918 110.328C690.51 110.328 690.986 110.148 691.346 109.788C691.714 109.428 691.898 108.956 691.898 108.372C691.898 107.788 691.714 107.316 691.346 106.956C690.986 106.596 690.51 106.416 689.918 106.416C689.334 106.416 688.854 106.596 688.478 106.956C688.118 107.316 687.938 107.788 687.938 108.372C687.938 108.956 688.118 109.428 688.478 109.788Z" fill="white"/>
<path d="M696.282 105.6C697.098 105.6 697.774 105.86 698.31 106.38C698.838 106.9 699.102 107.564 699.102 108.372C699.102 109.196 698.838 109.864 698.31 110.376C697.79 110.888 697.114 111.144 696.282 111.144C695.45 111.144 694.774 110.888 694.254 110.376C693.726 109.864 693.462 109.196 693.462 108.372C693.462 107.74 693.634 107.18 693.978 106.692L696.726 102.6H697.674L695.61 105.672C695.826 105.624 696.05 105.6 696.282 105.6ZM694.842 109.788C695.218 110.148 695.698 110.328 696.282 110.328C696.874 110.328 697.35 110.148 697.71 109.788C698.078 109.428 698.262 108.956 698.262 108.372C698.262 107.788 698.078 107.316 697.71 106.956C697.35 106.596 696.874 106.416 696.282 106.416C695.698 106.416 695.218 106.596 694.842 106.956C694.482 107.316 694.302 107.788 694.302 108.372C694.302 108.956 694.482 109.428 694.842 109.788Z" fill="white"/>
<path d="M704.933 111H699.593V110.244L702.617 107.196C703.481 106.332 703.913 105.592 703.913 104.976C703.913 104.456 703.749 104.044 703.421 103.74C703.101 103.428 702.701 103.272 702.221 103.272C701.365 103.272 700.737 103.668 700.337 104.46L699.629 104.04C699.885 103.528 700.241 103.136 700.697 102.864C701.153 102.592 701.661 102.456 702.221 102.456C702.893 102.456 703.481 102.684 703.985 103.14C704.497 103.58 704.753 104.192 704.753 104.976C704.753 105.44 704.625 105.896 704.369 106.344C704.113 106.784 703.721 107.268 703.193 107.796L700.793 110.184H704.933V111Z" fill="white"/>
<path d="M707.458 110.46C707.458 110.644 707.394 110.8 707.266 110.928C707.138 111.056 706.982 111.12 706.798 111.12C706.614 111.12 706.458 111.056 706.33 110.928C706.202 110.8 706.138 110.644 706.138 110.46C706.138 110.276 706.202 110.12 706.33 109.992C706.458 109.864 706.614 109.8 706.798 109.8C706.982 109.8 707.138 109.864 707.266 109.992C707.394 110.12 707.458 110.276 707.458 110.46Z" fill="white"/>
<path d="M708.364 103.368L710.584 102.6H711.304V111H710.464V103.524L708.58 104.088L708.364 103.368Z" fill="white"/>
<circle cx="98" cy="269" r="5" fill="#663755"/>
<circle cx="163" cy="248" r="5" fill="#663755"/>
<circle cx="232" cy="229" r="5" fill="#663755"/>
<circle cx="297" cy="200" r="5" fill="#663755"/>
<circle cx="362" cy="193" r="5" fill="#663755"/>
<circle cx="430" cy="182" r="5" fill="#663755"/>
<circle cx="498" cy="156" r="5" fill="#663755"/>
<circle cx="566" cy="146" r="5" fill="#663755"/>
<circle cx="632" cy="119" r="5" fill="#663755"/>
<circle cx="700" cy="96" r="5" fill="#663755"/>
<path d="M98 269L163 248L232 228L297 200L362 193L430 182L499 156L567 145L632 119L700 95" stroke="#613654"/>
<defs>
<filter id="filter0_d" x="0" y="0" width="763" height="418" filterUnits="userSpaceOnUse" color-interpolation-filters="sRGB">
<feFlood flood-opacity="0" result="BackgroundImageFix"/>
<feColorMatrix in="SourceAlpha" type="matrix" values="0 0 0 0 0 0 0 0 0 0 0 0 0 0 0 0 0 0 127 0"/>
<feOffset dy="3"/>
<feGaussianBlur stdDeviation="7.5"/>
<feColorMatrix type="matrix" values="0 0 0 0 0 0 0 0 0 0 0 0 0 0 0 0 0 0 0.25 0"/>
<feBlend mode="normal" in2="BackgroundImageFix" result="effect1_dropShadow"/>
<feBlend mode="normal" in="SourceGraphic" in2="effect1_dropShadow" result="shape"/>
</filter>
</defs>
</svg>
