<svg width="87" height="87" viewBox="0 0 87 87" fill="none" xmlns="http://www.w3.org/2000/svg">
<circle cx="43.5" cy="43.5" r="43.5" fill="#54353A" fill-opacity="0.1"/>
<path d="M64.7969 25.1406V53.0469H22.2031V25.1406C22.2031 24.3256 22.8568 23.6719 23.6719 23.6719H63.3281C64.1432 23.6719 64.7969 24.3256 64.7969 25.1406Z" fill="#CC1237"/>
<path d="M63.3281 23.6719H60.3906C61.2057 23.6719 61.8594 24.3256 61.8594 25.1406V53.0469H64.7969V25.1406C64.7969 24.3256 64.1432 23.6719 63.3281 23.6719Z" fill="#CC1237"/>
<path d="M37.5221 59.6562H49.4779L50.2636 61.8594H36.7365L37.5221 59.6562Z" fill="#F7C292"/>
<path d="M39.0938 55.25L37.5221 59.6562L36.7364 61.8594L35.4219 65.5312H31.75L35.4219 55.25H39.0938Z" fill="#FFD2A6"/>
<path d="M51.5781 55.25L55.25 65.5312H51.5781L50.2636 61.8594L49.4779 59.6562L47.9062 55.25H51.5781Z" fill="#FFD2A6"/>
<path d="M66.2656 53.0469V55.25H20.7344V53.0469H66.2656Z" fill="#656D78"/>
<path d="M64.7969 53.0469H63.3281V55.25H66.2656V53.0469H64.7969Z" fill="#434A54"/>
<path d="M40.5625 21.4688H46.4375V23.6719H40.5625V21.4688Z" fill="#FFD2A6"/>
<path d="M59.6562 28.8125L58.9219 30.2812L59.6562 31.75H55.25V28.8125H59.6562Z" fill="#CC1237"/>
<path d="M57.4531 35.4219C57.4531 36.6411 56.4692 37.625 55.25 37.625C54.0308 37.625 53.0469 36.6411 53.0469 35.4219C53.0469 34.2027 54.0308 33.2188 55.25 33.2188C56.4692 33.2188 57.4531 34.2027 57.4531 35.4219Z" fill="#F5F7FA"/>
<path d="M29.5469 43.5C30.7661 43.5 31.75 44.4839 31.75 45.7031C31.75 46.9223 30.7661 47.9062 29.5469 47.9062C28.3277 47.9062 27.3438 46.9223 27.3438 45.7031C27.3438 44.4839 28.3277 43.5 29.5469 43.5Z" fill="#F5F7FA"/>
<path d="M22.2031 53.7812C21.7969 53.7812 21.4688 53.4531 21.4688 53.0469V25.1406C21.4688 24.7344 21.7969 24.4062 22.2031 24.4062C22.6094 24.4062 22.9375 24.7344 22.9375 25.1406V53.0469C22.9375 53.4531 22.6094 53.7812 22.2031 53.7812Z" fill="black"/>
<path d="M22.2031 25.875C21.7969 25.875 21.4688 25.5469 21.4688 25.1406C21.4688 23.9261 22.4574 22.9375 23.6719 22.9375C24.0781 22.9375 24.4062 23.2656 24.4062 23.6719C24.4062 24.0781 24.0781 24.4062 23.6719 24.4062C23.2667 24.4062 22.9375 24.7354 22.9375 25.1406C22.9375 25.5469 22.6094 25.875 22.2031 25.875Z" fill="black"/>
<path d="M64.7969 53.7812C64.3906 53.7812 64.0625 53.4531 64.0625 53.0469V25.1406C64.0625 24.7344 64.3906 24.4062 64.7969 24.4062C65.2031 24.4062 65.5312 24.7344 65.5312 25.1406V53.0469C65.5312 53.4531 65.2031 53.7812 64.7969 53.7812Z" fill="black"/>
<path d="M64.7969 25.875C64.3906 25.875 64.0625 25.5469 64.0625 25.1406C64.0625 24.7354 63.7333 24.4062 63.3281 24.4062C62.9219 24.4062 62.5938 24.0781 62.5938 23.6719C62.5938 23.2656 62.9219 22.9375 63.3281 22.9375C64.5426 22.9375 65.5312 23.9261 65.5312 25.1406C65.5312 25.5469 65.2031 25.875 64.7969 25.875Z" fill="black"/>
<path d="M63.3281 24.4062H23.6719C23.2656 24.4062 22.9375 24.0781 22.9375 23.6719C22.9375 23.2656 23.2656 22.9375 23.6719 22.9375H63.3281C63.7344 22.9375 64.0625 23.2656 64.0625 23.6719C64.0625 24.0781 63.7344 24.4062 63.3281 24.4062Z" fill="black"/>
<path d="M66.2656 55.9844H20.7344C20.3281 55.9844 20 55.6563 20 55.25V53.0469C20 52.6406 20.3281 52.3125 20.7344 52.3125H66.2656C66.6719 52.3125 67 52.6406 67 53.0469V55.25C67 55.6563 66.6719 55.9844 66.2656 55.9844ZM21.4688 54.5156H65.5312V53.7812H21.4688V54.5156Z" fill="black"/>
<path d="M35.4219 66.2656C35.3405 66.2656 35.2559 66.2516 35.1752 66.2222C34.7926 66.0856 34.5936 65.6657 34.7309 65.2845L38.4028 55.0032C38.5387 54.6206 38.96 54.4195 39.3405 54.559C39.7231 54.6956 39.9221 55.1155 39.7847 55.4967L36.1129 65.7779C36.0064 66.0784 35.7238 66.2656 35.4219 66.2656Z" fill="black"/>
<path d="M31.75 66.2656C31.6686 66.2656 31.584 66.2516 31.5033 66.2222C31.1207 66.0856 30.9217 65.6657 31.059 65.2845L34.7309 55.0032C34.8668 54.6206 35.2881 54.4195 35.6686 54.559C36.0512 54.6956 36.2502 55.1155 36.1129 55.4967L32.441 65.7779C32.3345 66.0784 32.0519 66.2656 31.75 66.2656Z" fill="black"/>
<path d="M35.4219 66.2656H31.75C31.3437 66.2656 31.0156 65.9375 31.0156 65.5312C31.0156 65.125 31.3437 64.7969 31.75 64.7969H35.4219C35.8281 64.7969 36.1562 65.125 36.1562 65.5312C36.1562 65.9375 35.8281 66.2656 35.4219 66.2656Z" fill="black"/>
<path d="M51.5781 66.2658C51.2762 66.2658 50.9936 66.0786 50.8871 65.7781L47.2153 55.4969C47.0779 55.115 47.2776 54.6951 47.6595 54.5592C48.0393 54.4212 48.4613 54.6223 48.5972 55.0035L52.2691 65.2847C52.4064 65.6666 52.2067 66.0865 51.8248 66.2224C51.7441 66.2518 51.6595 66.2658 51.5781 66.2658Z" fill="black"/>
<path d="M55.25 66.2658C54.9481 66.2658 54.6655 66.0786 54.559 65.7781L50.8871 55.4969C50.7498 55.115 50.9495 54.6951 51.3314 54.5592C51.7111 54.4212 52.1332 54.6223 52.2691 55.0035L55.941 65.2847C56.0783 65.6666 55.8786 66.0865 55.4967 66.2224C55.416 66.2518 55.3314 66.2658 55.25 66.2658Z" fill="black"/>
<path d="M55.25 66.2656H51.5781C51.1719 66.2656 50.8438 65.9375 50.8438 65.5312C50.8438 65.125 51.1719 64.7969 51.5781 64.7969H55.25C55.6563 64.7969 55.9844 65.125 55.9844 65.5312C55.9844 65.9375 55.6563 66.2656 55.25 66.2656Z" fill="black"/>
<path d="M49.4801 60.3906H37.52C37.114 60.3906 36.7856 60.0625 36.7856 59.6562C36.7856 59.25 37.114 58.9219 37.52 58.9219H49.4794C49.8853 58.9219 50.2137 59.25 50.2137 59.6562C50.2137 60.0625 49.8853 60.3906 49.4801 60.3906Z" fill="black"/>
<path d="M50.2664 62.5938H36.7336C36.3273 62.5938 35.9992 62.2656 35.9992 61.8594C35.9992 61.4531 36.3273 61.125 36.7336 61.125H50.2664C50.6727 61.125 51.0008 61.4531 51.0008 61.8594C51.0008 62.2656 50.6727 62.5938 50.2664 62.5938Z" fill="black"/>
<path d="M46.4375 24.4062H40.5625C40.1562 24.4062 39.8281 24.0781 39.8281 23.6719V21.4688C39.8281 21.0625 40.1562 20.7344 40.5625 20.7344H46.4375C46.8438 20.7344 47.1719 21.0625 47.1719 21.4688V23.6719C47.1719 24.0781 46.8438 24.4062 46.4375 24.4062ZM41.2969 22.9375H45.7031V22.2031H41.2969V22.9375Z" fill="black"/>
<path d="M48.6406 37.625C48.4528 37.625 48.2645 37.5529 48.1214 37.4099C47.8342 37.1227 47.8342 36.6586 48.1214 36.3714L49.5902 34.9027C49.8774 34.6154 50.3414 34.6154 50.6286 34.9027C50.9158 35.1899 50.9158 35.6539 50.6286 35.9411L49.1599 37.4099C49.0168 37.5529 48.8285 37.625 48.6406 37.625Z" fill="black"/>
<path d="M50.1094 36.1563C49.9215 36.1563 49.7332 36.0842 49.5902 35.9411L48.1214 34.4724C47.8342 34.1852 47.8342 33.7211 48.1214 33.4339C48.4086 33.1467 48.8727 33.1467 49.1599 33.4339L50.6286 34.9027C50.9158 35.1899 50.9158 35.6539 50.6286 35.9411C50.4856 36.0842 50.2973 36.1563 50.1094 36.1563Z" fill="black"/>
<path fill-rule="evenodd" clip-rule="evenodd" d="M42.0313 31.0156C41.8434 31.0156 41.6551 30.9436 41.512 30.8005L40.5625 29.851L39.613 30.8005C39.4699 30.9436 39.2817 31.0156 39.0938 31.0156C38.9059 31.0156 38.7176 30.9436 38.5745 30.8005C38.2873 30.5133 38.2873 30.0493 38.5745 29.762L39.5241 28.8125L38.5745 27.863C38.2873 27.5758 38.2873 27.1118 38.5745 26.8245C38.8618 26.5373 39.3258 26.5373 39.613 26.8245L40.5625 27.7741L41.512 26.8245C41.7993 26.5373 42.2633 26.5373 42.5505 26.8245C42.8377 27.1118 42.8377 27.5758 42.5505 27.863L41.601 28.8125L42.5505 29.762C42.8377 30.0493 42.8377 30.5133 42.5505 30.8005C42.4074 30.9436 42.2192 31.0156 42.0313 31.0156ZM55.25 36.1562C54.8437 36.1562 54.5156 35.8281 54.5156 35.4219V34.1502C54.0769 34.4044 53.7812 34.8792 53.7812 35.4219C53.7812 36.2319 54.44 36.8906 55.25 36.8906C56.06 36.8906 56.7188 36.2319 56.7188 35.4219C56.7188 34.8792 56.4231 34.4044 55.9844 34.1502V35.4219C55.9844 35.8281 55.6563 36.1562 55.25 36.1562ZM55.9844 29.5469V31.0156H58.4677L58.2646 30.6094C58.161 30.4032 58.161 30.1593 58.2646 29.9521L58.4672 29.5469H55.9844ZM59.6562 28.0781C59.6834 28.0781 59.7102 28.0796 59.7366 28.0824C60.1049 28.1223 60.3906 28.4334 60.3906 28.8125C60.3906 28.9427 60.3569 29.0649 60.2977 29.1708L59.743 30.2813L60.2976 31.3914C60.3569 31.4974 60.3906 31.6197 60.3906 31.75C60.3906 32.1309 60.1023 32.4431 59.7314 32.4806C59.707 32.4831 59.6821 32.4844 59.657 32.4844L59.6524 32.4844H55.9844V32.5773C57.2501 32.9041 58.1875 34.0553 58.1875 35.4219C58.1875 37.0419 56.8701 38.3594 55.25 38.3594C53.6299 38.3594 52.3125 37.0419 52.3125 35.4219C52.3125 34.0553 53.2499 32.9041 54.5156 32.5773V31.75V28.8125C54.5156 28.4062 54.8437 28.0781 55.25 28.0781H59.6562ZM26.6094 45.7031C26.6094 47.3232 27.9268 48.6406 29.5469 48.6406C31.1669 48.6406 32.4844 47.3232 32.4844 45.7031C32.4844 44.0831 31.1669 42.7656 29.5469 42.7656C27.9268 42.7656 26.6094 44.0831 26.6094 45.7031ZM28.0781 45.7031C28.0781 44.8931 28.7368 44.2344 29.5469 44.2344C30.3569 44.2344 31.0156 44.8931 31.0156 45.7031C31.0156 46.5132 30.3569 47.1719 29.5469 47.1719C28.7368 47.1719 28.0781 46.5132 28.0781 45.7031ZM33.2188 42.7656C33.0456 42.7656 32.8706 42.7047 32.7311 42.5799C32.4277 42.3109 32.4009 41.8462 32.6701 41.5436C32.919 41.2632 38.8933 34.6875 50.1094 34.6875C50.5157 34.6875 50.8438 35.0156 50.8438 35.4219C50.8438 35.8281 50.5157 36.1562 50.1094 36.1562C39.5456 36.1562 33.8241 42.4558 33.7674 42.5189C33.6225 42.6828 33.4207 42.7656 33.2188 42.7656ZM28.8308 45.7039C28.8308 46.1101 29.1629 46.4382 29.5688 46.4382C29.9743 46.4382 30.3031 46.1101 30.3031 45.7039C30.3031 45.2979 29.9743 44.9695 29.5688 44.9695H29.5609C29.1553 44.9695 28.8308 45.2979 28.8308 45.7039ZM31.0156 36.1563C30.8278 36.1563 30.6395 36.0842 30.4964 35.9411L29.5469 34.9916L28.5974 35.9411C28.4543 36.0842 28.266 36.1563 28.0781 36.1563C27.8903 36.1563 27.702 36.0842 27.5589 35.9411C27.2717 35.6539 27.2717 35.1899 27.5589 34.9027L28.5084 33.9531L27.5589 33.0036C27.2717 32.7164 27.2717 32.2524 27.5589 31.9652C27.8461 31.6779 28.3102 31.6779 28.5974 31.9652L29.5469 32.9147L30.4964 31.9652C30.7836 31.6779 31.2477 31.6779 31.5349 31.9652C31.8221 32.2524 31.8221 32.7164 31.5349 33.0036L30.5854 33.9531L31.5349 34.9027C31.8221 35.1899 31.8221 35.6539 31.5349 35.9411C31.3918 36.0842 31.2035 36.1563 31.0156 36.1563ZM43.5 50.1094C43.3121 50.1094 43.1239 50.0373 42.9808 49.8943L42.0313 48.9447L41.0818 49.8943C40.9387 50.0373 40.7504 50.1094 40.5625 50.1094C40.3746 50.1094 40.1864 50.0373 40.0433 49.8943C39.7561 49.607 39.7561 49.143 40.0433 48.8558L40.9928 47.9063L40.0433 46.9568C39.7561 46.6695 39.7561 46.2055 40.0433 45.9183C40.3305 45.6311 40.7945 45.6311 41.0818 45.9183L42.0313 46.8678L42.9808 45.9183C43.268 45.6311 43.732 45.6311 44.0193 45.9183C44.3065 46.2055 44.3065 46.6695 44.0193 46.9568L43.0697 47.9063L44.0193 48.8558C44.3065 49.143 44.3065 49.607 44.0193 49.8943C43.8762 50.0373 43.6879 50.1094 43.5 50.1094ZM54.5156 46.4375C54.3278 46.4375 54.1395 46.3655 53.9964 46.2224L53.0469 45.2729L52.0974 46.2224C51.9543 46.3655 51.766 46.4375 51.5781 46.4375C51.3903 46.4375 51.202 46.3655 51.0589 46.2224C50.7717 45.9352 50.7717 45.4711 51.0589 45.1839L52.0084 44.2344L51.0589 43.2849C50.7717 42.9977 50.7717 42.5336 51.0589 42.2464C51.3461 41.9592 51.8102 41.9592 52.0974 42.2464L53.0469 43.1959L53.9964 42.2464C54.2836 41.9592 54.7477 41.9592 55.0349 42.2464C55.3221 42.5336 55.3221 42.9977 55.0349 43.2849L54.0854 44.2344L55.0349 45.1839C55.3221 45.4711 55.3221 45.9352 55.0349 46.2224C54.8918 46.3655 54.7035 46.4375 54.5156 46.4375Z" fill="white"/>
</svg>
