<svg width="51" height="51" viewBox="0 0 51 51" fill="none" xmlns="http://www.w3.org/2000/svg">
<g clip-path="url(#clip0)">
<path d="M44.4104 42.0211C47.844 37.8168 49.9045 32.447 49.9045 26.5954C49.9045 13.1172 38.9782 2.19092 25.5 2.19092C12.0217 2.19092 1.09546 13.1172 1.09546 26.5954C1.09546 32.4471 3.15588 37.8169 6.58961 42.0212L44.4104 42.0211Z" fill="#F0D88A"/>
<path d="M25.4999 20.0762C30.9796 20.0762 35.4219 18.7815 35.4219 17.1843C35.4219 15.5872 30.9796 14.2925 25.4999 14.2925C20.0201 14.2925 15.5779 15.5872 15.5779 17.1843C15.5779 18.7815 20.0201 20.0762 25.4999 20.0762Z" fill="#1C2E7A"/>
<path d="M25.4998 14.2925C25.3329 14.2925 25.1671 14.2938 25.0022 14.2962C24.8413 14.4864 24.7483 14.5973 24.7483 14.5973C24.7483 14.5973 30.6815 17.0738 25.1823 20.0738C25.288 20.0748 25.3934 20.0762 25.4998 20.0762C30.9797 20.0762 35.4218 18.7815 35.4218 17.1843C35.4217 15.5872 30.9796 14.2925 25.4998 14.2925Z" fill="#142766"/>
<path d="M18.5238 15.2627C17.7117 15.5032 16.9476 15.7848 16.4624 16.096C16.5429 17.5441 16.819 18.8407 16.819 18.8407C17.0809 18.8582 17.4499 18.9642 17.6543 19.0632C17.7044 18.7516 17.7861 18.3499 17.9016 18.0535C17.9895 17.8275 18.0995 17.5993 18.2368 17.3837C18.4753 17.0095 18.5839 16.5683 18.5515 16.127C18.5333 15.8786 18.5205 15.5829 18.5238 15.2627Z" fill="#A05838"/>
<path d="M32.4762 15.2627C32.4794 15.5783 32.4671 15.8699 32.4493 16.116C32.417 16.5606 32.5228 17.0066 32.763 17.3836C32.9049 17.6061 33.0174 17.8422 33.1068 18.0752C33.2179 18.3649 33.2968 18.7592 33.3457 19.0631C33.6033 18.9383 34.0666 18.8023 34.3817 18.8468C34.4137 17.7387 34.5039 16.4648 34.5338 16.0935C34.049 15.7834 33.2862 15.5026 32.4762 15.2627Z" fill="#A05838"/>
<path d="M34.85 18.9254C34.4595 18.5676 33.6817 18.749 33.3456 18.968C33.4193 19.4267 33.4235 19.8961 33.3598 20.3596L32.963 23.2497C32.963 23.4827 32.9556 23.7113 32.9421 23.9358C33.9097 24.2277 34.3905 23.359 34.4714 22.7628C34.5063 22.5063 34.5633 22.2532 34.6423 22.0064C34.8997 21.2027 35.8282 19.8219 34.85 18.9254Z" fill="#FCAD6D"/>
<path d="M34.1152 21.3584C33.7987 21.3584 33.5044 21.2639 33.2578 21.1027L32.963 23.2497C32.963 23.4827 32.9556 23.7112 32.9421 23.9358C33.9097 24.2276 34.3905 23.3589 34.4714 22.7628C34.5063 22.5062 34.5633 22.2532 34.6423 22.0063C34.7264 21.7437 34.8821 21.4191 35.0196 21.0703C34.7638 21.2512 34.4522 21.3584 34.1152 21.3584Z" fill="#FD995B"/>
<path d="M16.1498 18.9254C16.5403 18.5676 17.3181 18.749 17.6543 18.968C17.5806 19.4267 17.5764 19.8961 17.6401 20.3596L18.0369 23.2497C18.0369 23.4827 18.0443 23.7113 18.0578 23.9358C17.0901 24.2277 16.6094 23.359 16.5284 22.7628C16.4936 22.5063 16.4366 22.2532 16.3576 22.0064C16.1001 21.2027 15.1716 19.8219 16.1498 18.9254Z" fill="#FCAD6D"/>
<path d="M17.7556 21.2005C17.5489 21.3006 17.3178 21.3583 17.0728 21.3583C16.5977 21.3583 16.1727 21.1465 15.8848 20.813C16.0381 21.2585 16.2531 21.68 16.3577 22.0064C16.4367 22.2532 16.4938 22.5061 16.5285 22.7628C16.6095 23.359 17.0902 24.2277 18.0578 23.9358C18.0444 23.7112 18.037 23.4826 18.037 23.2497L17.7556 21.2005Z" fill="#FD995B"/>
<path d="M31.1299 36.7448L32.9354 34.2851C32.5454 34.1705 32.1494 34.0665 31.7466 33.9735C30.7806 33.0075 30.5356 31.1759 30.4915 29.8945C29.9874 30.4817 29.4583 30.9729 28.9526 31.3656C27.9676 32.1306 26.7521 32.546 25.5001 32.546C24.2482 32.546 23.0327 32.1306 22.0476 31.3656C21.542 30.973 21.0129 30.4817 20.5088 29.8945C20.4646 31.1759 20.2198 33.0075 19.2537 33.9735C18.8508 34.0665 18.4549 34.1706 18.0649 34.2851L19.8704 36.7448H31.1299Z" fill="#FCAD6D"/>
<path d="M23.0241 35.6009C23.1915 35.5843 23.3453 35.501 23.4494 35.3689C24.1241 34.5121 24.5566 33.4933 24.8341 32.5063C23.8214 32.3862 22.8566 31.9942 22.0474 31.3658C21.5419 30.9732 21.0126 30.482 20.5085 29.8948C20.4644 31.1761 20.2195 33.0078 19.2534 33.9738C18.8505 34.0667 18.4547 34.1708 18.0647 34.2854L19.8701 36.745H21.5214C22.0521 35.8277 22.6891 35.6342 23.0241 35.6009Z" fill="#FD995B"/>
<path d="M20.9614 38.2314L24.5425 43.11C25.017 43.7566 25.9827 43.7566 26.4574 43.11L30.0384 38.2314H20.9614Z" fill="#BEC8F7"/>
<path d="M32.8579 17.3836C32.6177 17.0065 32.5119 16.5607 32.5441 16.116C32.562 15.8699 32.5743 15.5782 32.571 15.2627C30.7713 14.7298 28.2682 14.3992 25.4998 14.3992C22.7314 14.3992 20.2283 14.7298 18.4287 15.2627C18.4253 15.5829 18.4381 15.8786 18.4563 16.127C18.4888 16.5682 18.3801 17.0095 18.1416 17.3837C18.0042 17.5993 17.8943 17.8275 17.8063 18.0533C17.5211 18.7861 17.438 19.5808 17.5448 20.3589L17.9417 23.2497C17.9417 27.4057 20.1602 30.2305 22.0473 31.6958C23.0323 32.4607 24.2479 32.8762 25.4998 32.8762C26.7517 32.8762 27.9673 32.4607 28.9522 31.6958C30.8393 30.2304 33.0578 27.4057 33.0578 23.2497L33.4547 20.3595C33.5605 19.589 33.4803 18.8021 33.2016 18.0751C33.1124 17.8422 32.9999 17.6062 32.8579 17.3836Z" fill="#F9BA8F"/>
<path d="M27.0143 31.6277C25.1272 30.0777 22.9087 27.0897 22.9087 22.6938L22.5117 19.6361C22.4049 18.813 22.4881 17.9724 22.7733 17.1973C22.8613 16.9584 22.9712 16.717 23.1086 16.4889C23.3471 16.0932 23.4556 15.6264 23.4233 15.1597C23.409 14.9548 23.3984 14.719 23.396 14.4648C21.4742 14.5859 19.7591 14.8688 18.4289 15.2626C18.4255 15.5829 18.4383 15.8785 18.4565 16.1269C18.489 16.5681 18.3803 17.0095 18.1419 17.3836C18.0045 17.5993 17.8945 17.8275 17.8066 18.0534C17.5214 18.7861 17.4382 19.5808 17.545 20.3589L17.9419 23.2498C17.9419 27.4058 20.1604 30.2305 22.0475 31.696C23.0325 32.4609 24.2481 32.8763 25.5 32.8763C26.3791 32.8763 27.2399 32.6707 28.0158 32.284C27.6629 32.1038 27.3269 31.8846 27.0143 31.6277Z" fill="#FCAD6D"/>
<path d="M26.2628 25H24.5287C24.2739 25 24.0674 25.2065 24.0674 25.4613V25.5455C24.0674 25.8003 24.2739 26.0068 24.5287 26.0068H26.2628C26.5176 26.0068 26.7241 25.8003 26.7241 25.5455V25.4613C26.7241 25.2065 26.5176 25 26.2628 25Z" fill="#FCAD6D"/>
<path d="M25.3469 27.6212C24.2712 27.447 23.3372 28.1447 23.3372 28.1447C23.3372 28.6998 24.2368 29.2395 25.3469 29.2395C26.4571 29.2395 27.3567 28.6998 27.3567 28.1447C27.3577 28.1447 26.4217 27.447 25.3469 27.6212Z" fill="#D48A58"/>
<path d="M26.7777 28.1928H24.344C24.3717 28.1044 24.4324 28.0301 24.5133 27.9851C24.9095 27.7598 25.3515 27.627 25.8063 27.5966C25.6527 27.5884 25.4987 27.5967 25.3469 27.6214C24.2722 27.4473 23.3372 28.1449 23.3372 28.1449C23.3372 28.7 24.2368 29.2398 25.3469 29.2398C25.5009 29.2396 25.6547 29.2291 25.8073 29.2082C25.1613 29.1192 24.6359 28.8493 24.3956 28.5258C24.3719 28.4926 24.3538 28.4558 24.342 28.4167H26.7777C26.8074 28.4167 26.8359 28.4049 26.8569 28.3839C26.8779 28.3629 26.8897 28.3344 26.8897 28.3048C26.8897 28.2751 26.8779 28.2466 26.8569 28.2256C26.8359 28.2046 26.8074 28.1928 26.7777 28.1928Z" fill="#B46F40"/>
<path d="M22.29 22.0425C22.232 22.0423 22.1749 22.0272 22.1245 21.9985C21.7542 21.7866 21.3351 21.6745 20.9085 21.6733C20.4818 21.6722 20.0622 21.7819 19.6907 21.9918C19.6155 22.0391 19.5245 22.0547 19.4378 22.0349C19.3511 22.0152 19.2758 21.9618 19.2285 21.8865C19.1811 21.8113 19.1656 21.7203 19.1854 21.6336C19.2051 21.5469 19.2585 21.4716 19.3337 21.4243C19.395 21.386 20.842 20.494 22.4565 21.4166C22.5208 21.4533 22.571 21.5101 22.5996 21.5783C22.6281 21.6465 22.6333 21.7223 22.6143 21.7937C22.5952 21.8651 22.5531 21.9283 22.4945 21.9733C22.4358 22.0183 22.364 22.0427 22.29 22.0425Z" fill="#27273D"/>
<path d="M31.1396 22.0425C31.0815 22.0424 31.0245 22.0273 30.9741 21.9985C30.6036 21.7867 30.1844 21.6747 29.7576 21.6735C29.3308 21.6723 28.911 21.782 28.5394 21.9918C28.4641 22.039 28.3732 22.0544 28.2866 22.0346C28.2 22.0147 28.1248 21.9613 28.0776 21.886C28.0304 21.8108 28.015 21.7199 28.0348 21.6333C28.0547 21.5467 28.1081 21.4715 28.1833 21.4243C28.2436 21.386 29.6916 20.4941 31.3061 21.4166C31.3704 21.4533 31.4206 21.5101 31.4492 21.5783C31.4777 21.6465 31.4829 21.7222 31.4639 21.7937C31.4448 21.8651 31.4027 21.9283 31.3441 21.9733C31.2854 22.0183 31.2135 22.0426 31.1396 22.0425Z" fill="#27273D"/>
<path d="M44.5709 41.8221C44.1411 41.0799 43.5967 40.3962 42.9073 39.8306L26.5171 49.7731C25.9049 50.1444 25.095 50.1444 24.4828 49.7731L8.09278 39.8307C7.40338 40.3963 6.85901 41.08 6.4292 41.8222C10.9012 47.4158 17.7815 51.0001 25.5 51.0001C33.2185 51.0001 40.099 47.4158 44.5709 41.8221Z" fill="#3C58A0"/>
<path d="M13.7499 43.7673C13.8614 43.6662 13.9264 43.5271 13.9425 43.3792L8.09277 39.8306C7.40338 40.3962 6.85901 41.0799 6.4292 41.8221C8.138 43.9596 10.1995 45.8023 12.5241 47.265C12.6692 45.0345 13.3749 44.107 13.7499 43.7673Z" fill="#1C2E7A"/>
<path d="M27.2887 37.0662C27.2002 36.8209 27.2212 36.5544 27.3388 36.3306H25.4838H23.7145C23.832 36.5544 23.8529 36.8209 23.7645 37.0662C23.6591 37.3581 23.4953 37.7367 23.2563 38.1314L24.3382 39.5883H26.6618L27.7729 38.0921C27.5467 37.7116 27.3906 37.3485 27.2887 37.0662Z" fill="#E80054"/>
<path d="M26.6616 39.5881C25.8247 39.5881 25.1678 39.5881 24.338 39.5881L23.5879 41.8096L24.5424 43.11C25.017 43.7566 25.9827 43.7566 26.4573 43.11L27.4119 41.8096L26.6616 39.5881Z" fill="#FF7186"/>
<path d="M24.7666 43.3145L25.3567 41.5673C25.5316 41.0492 26.0175 40.7005 26.5642 40.7005H27.0373L26.6616 39.5881C25.8247 39.5881 25.1678 39.5881 24.338 39.5881L23.5879 41.8096L24.5424 43.11C24.6192 43.2147 24.71 43.3007 24.8084 43.3714L24.7666 43.3145Z" fill="#FF4155"/>
<path d="M29.2498 39.7782L32.754 35.0044C32.8032 34.5471 32.82 34.252 32.82 34.252L31.6668 32.8235C31.3724 32.459 30.8248 32.436 30.5009 32.7745L27.2971 36.124C27.0571 36.3749 26.9808 36.7394 27.0988 37.066C27.3613 37.7934 27.9776 39.0553 29.2498 39.7782Z" fill="#E9EFFF"/>
<path d="M21.7656 39.7992C23.0634 39.0801 23.6893 37.8005 23.9544 37.066C24.0723 36.7394 23.996 36.3749 23.7561 36.124L20.5522 32.7745C20.2283 32.436 19.6807 32.459 19.3864 32.8235L18.1799 34.252C18.1799 34.252 18.1994 34.5512 18.2531 35.0142L21.7656 39.7992Z" fill="#E9EFFF"/>
<path d="M23.024 35.6005C23.0886 35.5942 23.1509 35.5776 23.2094 35.5524L20.5522 32.7745C20.2284 32.436 19.6807 32.459 19.3864 32.8235L18.1799 34.252C18.1799 34.252 18.1994 34.5512 18.2531 35.0141L20.676 38.3149C20.8542 38.2444 20.9923 38.0961 21.0453 37.9103C21.5983 35.9722 22.5784 35.6449 23.024 35.6005Z" fill="#D3DCFB"/>
<path d="M42.8663 38.1081C42.5555 37.9194 42.2217 37.7512 41.8632 37.6067L40.7153 37.1809L26.4356 47.0443C25.8723 47.4334 25.1271 47.4334 24.5639 47.0443L10.3341 37.2154L8.4514 37.9265C8.34074 37.9857 8.23276 38.0474 8.12747 38.1115C7.40321 38.5519 7.41626 39.6104 8.14102 40.05L24.4825 49.963C25.1076 50.3422 25.8918 50.3422 26.5169 49.963L42.8579 40.0503C43.5851 39.6093 43.5935 38.5493 42.8663 38.1081Z" fill="#FFDD40"/>
<path d="M15.5025 40.7853L10.3344 37.2156L8.4517 37.9267C8.34103 37.9859 8.23315 38.0476 8.12777 38.1117C7.40351 38.5521 7.41646 39.6106 8.14122 40.0502L13.9026 43.5452C13.9353 43.4624 13.9503 43.3722 13.9468 43.2812C13.91 42.3429 14.5721 41.5008 15.5025 40.7853Z" fill="#FFB332"/>
<path d="M26.4574 42.9201C25.9828 43.5667 25.0171 43.5667 24.5425 42.9201L18.18 34.2522L10.1565 37.2827L24.5641 47.2346C25.1273 47.6237 25.8725 47.6237 26.4358 47.2346L40.8945 37.2475L32.8199 34.2524L26.4574 42.9201Z" fill="#FFB332"/>
<path d="M15.3737 40.8864C17.0485 39.5395 19.7128 38.6223 20.6349 38.3309C20.7791 38.2853 20.9 38.1891 20.9775 38.0631L18.18 34.2522L10.1565 37.2827L15.3737 40.8864Z" fill="#FF9100"/>
<path d="M40.383 6.47334L26.8054 0.283513C25.9762 -0.0945044 25.0239 -0.0945044 24.1947 0.283513L10.6171 6.47334C9.35809 7.04729 9.35809 8.83587 10.6171 9.40992L15.8187 11.7812V10.367C15.8187 9.72987 16.8402 9.05173 18.5515 8.55298C22.3862 7.43537 28.616 7.43586 32.4487 8.55298C34.16 9.05183 35.1816 9.72987 35.1816 10.367V11.7812L40.3831 9.40992C41.6421 8.83587 41.6421 7.04729 40.383 6.47334Z" fill="#3C58A0"/>
<path d="M10.6171 6.47332C9.35809 7.04727 9.35809 8.83595 10.6171 9.4099L15.8186 11.7812V10.3669C15.8186 9.72985 16.8401 9.05171 18.5514 8.55296C20.2696 8.05213 22.4688 7.77661 24.7177 7.72471C25.1271 7.5503 25.5001 7.47509 25.5001 7.47509C20.0234 4.56739 24.1947 0.283691 24.1947 0.283691L10.6171 6.47332Z" fill="#2A428C"/>
<path d="M25.4999 7.4751C20.0202 7.4751 15.5779 8.76982 15.5779 10.367V17.1846H15.6295C16.1391 15.7268 20.3636 14.5894 25.4998 14.5894C30.6359 14.5894 34.8606 15.7268 35.3701 17.1846H35.4217V10.367C35.4218 8.76982 30.9796 7.4751 25.4999 7.4751Z" fill="#2A428C"/>
<path d="M25.4999 7.4751C20.0202 7.4751 15.5779 8.76982 15.5779 10.367V17.1846H15.6295C16.114 15.7987 19.9571 14.7031 24.7482 14.5984V14.5976C23.6424 14.1714 23.6648 13.0412 23.6648 13.0412C23.6648 13.0412 23.6648 9.85736 23.6648 8.8504C23.6649 7.84335 25.4999 7.4751 25.4999 7.4751Z" fill="#1C2E7A"/>
<path d="M31.4169 21.0264C30.8921 21.0264 30.4668 20.6011 30.4668 20.0763V16.359C30.4668 15.8343 30.8921 15.4089 31.4169 15.4089C31.9416 15.4089 32.3669 15.8343 32.3669 16.359V20.0763C32.367 20.6011 31.9416 21.0264 31.4169 21.0264Z" fill="#FFDD40"/>
<path d="M31.4169 15.4089C30.8921 15.4089 30.4668 15.8343 30.4668 16.359V19.1678C30.4668 18.6431 30.8922 18.2177 31.4169 18.2177C31.9416 18.2177 32.3669 18.6431 32.3669 19.1678V16.359C32.367 15.8343 31.9416 15.4089 31.4169 15.4089Z" fill="#FFB332"/>
<path d="M31.4167 14.0448C31.0231 14.0448 30.7041 13.7257 30.7041 13.3322V0.803426C30.7041 0.409869 31.0231 0.0908203 31.4167 0.0908203C31.8103 0.0908203 32.1293 0.409869 32.1293 0.803426V13.3323C32.1293 13.7259 31.8103 14.0448 31.4167 14.0448Z" fill="#FFDD40"/>
<path d="M33.279 14.9234C33.279 15.952 32.4452 16.7858 31.4166 16.7858C30.388 16.7858 29.5542 15.952 29.5542 14.9234C29.5542 13.8949 30.388 13.061 31.4166 13.061C32.4452 13.061 33.279 13.8949 33.279 14.9234Z" fill="#FFB332"/>
<path d="M31.7903 15.1273C32.2303 15.1273 32.587 14.7706 32.587 14.3306C32.587 13.8906 32.2303 13.5339 31.7903 13.5339C31.3503 13.5339 30.9937 13.8906 30.9937 14.3306C30.9937 14.7706 31.3503 15.1273 31.7903 15.1273Z" fill="#FFDD40"/>
</g>
<defs>
<clipPath id="clip0">
<rect width="51" height="51" fill="white"/>
</clipPath>
</defs>
</svg>
