<svg width="49" height="49" viewBox="0 0 49 49" fill="none" xmlns="http://www.w3.org/2000/svg">
<g clip-path="url(#clip0)">
<path d="M24.5 49C38.031 49 49 38.031 49 24.5C49 10.969 38.031 0 24.5 0C10.969 0 0 10.969 0 24.5C0 38.031 10.969 49 24.5 49Z" fill="#CC1237"/>
<path d="M10.223 10.2269C12.206 11.3734 15.8867 8.70902 15.8867 8.70902C15.8867 8.70902 16.3547 4.18992 14.3717 3.04339C13.4215 2.51938 12.3037 2.38871 11.2583 2.67943C10.2128 2.97015 9.32293 3.65909 8.77962 4.59842C8.23631 5.53775 8.08285 6.65263 8.35216 7.70382C8.62147 8.75501 9.2921 9.65875 10.2201 10.2211L10.223 10.2269Z" fill="#32314B"/>
<path d="M15.2454 6.45305L13.8387 8.88471C13.5386 9.40332 13.7158 10.0669 14.2344 10.367L14.2353 10.3675C14.7539 10.6675 15.4175 10.4903 15.7175 9.97168L17.1243 7.54001C17.4243 7.02141 17.2471 6.35778 16.7285 6.05775L16.7277 6.05727C16.2091 5.75725 15.5455 5.93444 15.2454 6.45305Z" fill="#F6C752"/>
<path d="M38.777 10.2269C36.794 11.3734 33.1133 8.70902 33.1133 8.70902C33.1133 8.70902 32.6453 4.18992 34.6283 3.04339C35.5785 2.51938 36.6963 2.38871 37.7417 2.67943C38.7872 2.97015 39.6771 3.65909 40.2204 4.59842C40.7637 5.53775 40.9172 6.65263 40.6478 7.70382C40.3785 8.75501 39.7079 9.65875 38.7799 10.2211L38.777 10.2269Z" fill="#3E436D"/>
<path d="M31.8727 7.52726L33.2795 9.95893C33.5795 10.4775 34.2432 10.6547 34.7618 10.3547L34.7626 10.3542C35.2812 10.0542 35.4584 9.39057 35.1584 8.87196L33.7516 6.4403C33.4516 5.92169 32.788 5.7445 32.2693 6.04452L32.2685 6.045C31.7499 6.34503 31.5727 7.00866 31.8727 7.52726Z" fill="#F6C752"/>
<path d="M38.2564 44.7758C34.1686 47.5477 29.3388 49.0201 24.3998 48.9999C19.4608 48.9798 14.6432 47.468 10.5781 44.6629C11.5935 39.3791 13.2482 34.2369 18.3703 32.0367C18.8287 31.8386 19.8307 31.5161 19.8307 31.5161C22.0194 30.8969 22.1496 30.0758 22.0529 27.8698C22.028 26.3299 21.9687 26.5788 23.2971 26.0706C23.9239 25.8304 26.4687 25.5701 27.0056 25.9749C28.288 26.9424 26.8572 28.6039 27.4295 29.9427C27.8994 31.0433 30.3265 31.8846 30.603 32.0377C35.304 34.6389 37.1357 38.8106 38.0765 43.8149C38.1167 43.9441 38.1741 44.2408 38.2564 44.7758Z" fill="#F9DCD7"/>
<path d="M33.5706 13.0933V19.3082C33.5706 23.9441 29.8803 25.4332 27.1911 27.7875C26.4321 28.4647 25.4505 28.839 24.4334 28.839C23.4162 28.839 22.4346 28.4647 21.6757 27.7875C18.9865 25.4294 15.2961 23.9441 15.2961 19.3082V13.0933C15.2961 13.0732 17.059 6.97784 19.6028 5.57579C19.6841 5.52985 29.286 5.34993 30.666 6.55675C30.8785 6.74241 33.4491 10.4921 33.5601 12.6205C33.5582 12.6205 33.5706 12.9344 33.5706 13.0933Z" fill="#F9DCD7"/>
<path d="M18.9435 19.3082V13.0933C18.9435 8.65553 22.1601 5.01307 26.2562 4.65514C26.0361 4.63408 25.8141 4.62451 25.5863 4.62451H23.277C18.8689 4.62451 15.2972 8.41723 15.2972 13.0933V16.174C15.0536 16.1684 14.8113 16.2116 14.5846 16.3009C14.3579 16.3903 14.1513 16.5241 13.9771 16.6944C13.8028 16.8648 13.6643 17.0682 13.5698 17.2928C13.4752 17.5174 13.4265 17.7587 13.4265 18.0024C13.4265 18.2461 13.4752 18.4873 13.5698 18.7119C13.6643 18.9365 13.8028 19.14 13.9771 19.3103C14.1513 19.4806 14.3579 19.6144 14.5846 19.7038C14.8113 19.7932 15.0536 19.8364 15.2972 19.8308H15.3125C15.5776 24.0628 19.0871 25.5251 21.6739 27.7914C22.2878 28.3409 23.0521 28.694 23.8684 28.8054C24.6847 28.9168 25.5157 28.7813 26.2543 28.4163C25.9168 28.25 25.6027 28.0399 25.3202 27.7914C22.6319 25.4294 18.9435 23.9441 18.9435 19.3082Z" fill="#FCC8BC"/>
<path d="M33.5699 19.827C34.5799 19.827 35.3987 19.0081 35.3987 17.9981C35.3987 16.988 34.5799 16.1692 33.5699 16.1692C32.5598 16.1692 31.741 16.988 31.741 17.9981C31.741 19.0081 32.5598 19.827 33.5699 19.827Z" fill="#F9DCD7"/>
<path d="M25.2628 20.3301H23.5287C23.2739 20.3301 23.0674 20.5366 23.0674 20.7914V20.8756C23.0674 21.1304 23.2739 21.3369 23.5287 21.3369H25.2628C25.5176 21.3369 25.7241 21.1304 25.7241 20.8756V20.7914C25.7241 20.5366 25.5176 20.3301 25.2628 20.3301Z" fill="#FCC8BC"/>
<path d="M15.3489 17.2705C15.156 17.2705 14.971 17.3471 14.8346 17.4835C14.6982 17.6199 14.6216 17.8049 14.6216 17.9979C14.6216 18.1908 14.6982 18.3758 14.8346 18.5122C14.971 18.6486 15.156 18.7252 15.3489 18.7252V17.2705Z" fill="#E5B2AA"/>
<path d="M33.5698 18.7252C33.7627 18.7252 33.9477 18.6486 34.0841 18.5122C34.2205 18.3758 34.2972 18.1908 34.2972 17.9979C34.2972 17.8049 34.2205 17.6199 34.0841 17.4835C33.9477 17.3471 33.7627 17.2705 33.5698 17.2705V18.7252Z" fill="#FCC8BC"/>
<path d="M24.3469 22.9513C23.2712 22.7771 22.3372 23.4748 22.3372 23.4748C22.3372 24.0298 23.2368 24.5696 24.3469 24.5696C25.4571 24.5696 26.3567 24.0298 26.3567 23.4748C26.3577 23.4748 25.4217 22.7771 24.3469 22.9513Z" fill="#D54545"/>
<path d="M25.7777 23.5229H23.344C23.3717 23.4345 23.4324 23.3602 23.5133 23.3152C23.9095 23.0899 24.3515 22.957 24.8063 22.9266C24.6527 22.9184 24.4987 22.9268 24.3469 22.9515C23.2722 22.7773 22.3372 23.475 22.3372 23.475C22.3372 24.0301 23.2368 24.5698 24.3469 24.5698C24.5009 24.5697 24.6547 24.5592 24.8073 24.5383C24.1613 24.4493 23.6359 24.1794 23.3956 23.8559C23.3719 23.8227 23.3538 23.7859 23.342 23.7468H25.7777C25.8074 23.7468 25.8359 23.735 25.8569 23.714C25.8779 23.693 25.8897 23.6645 25.8897 23.6348C25.8897 23.6051 25.8779 23.5767 25.8569 23.5557C25.8359 23.5347 25.8074 23.5229 25.7777 23.5229Z" fill="#C11E1E"/>
<path d="M21.29 17.3023C21.232 17.3021 21.1749 17.2869 21.1245 17.2583C20.7542 17.0463 20.3351 16.9343 19.9085 16.9331C19.4818 16.9319 19.0622 17.0417 18.6907 17.2516C18.6155 17.2989 18.5245 17.3144 18.4378 17.2947C18.3511 17.2749 18.2758 17.2216 18.2285 17.1463C18.1811 17.071 18.1656 16.9801 18.1854 16.8934C18.2051 16.8067 18.2585 16.7314 18.3337 16.6841C18.395 16.6458 19.842 15.7538 21.4565 16.6764C21.5208 16.713 21.571 16.7699 21.5996 16.8381C21.6281 16.9063 21.6333 16.982 21.6143 17.0535C21.5952 17.1249 21.5531 17.1881 21.4945 17.2331C21.4358 17.2781 21.364 17.3024 21.29 17.3023Z" fill="#27273D"/>
<path d="M30.1396 17.3023C30.0815 17.3022 30.0245 17.287 29.9741 17.2583C29.6036 17.0464 29.1844 16.9344 28.7576 16.9332C28.3308 16.9321 27.911 17.0418 27.5394 17.2516C27.4641 17.2988 27.3732 17.3142 27.2866 17.2943C27.2 17.2745 27.1248 17.2211 27.0776 17.1458C27.0304 17.0706 27.015 16.9796 27.0348 16.893C27.0547 16.8064 27.1081 16.7313 27.1833 16.684C27.2436 16.6458 28.6916 15.7538 30.3061 16.6764C30.3704 16.713 30.4206 16.7699 30.4492 16.8381C30.4777 16.9063 30.4829 16.982 30.4639 17.0534C30.4448 17.1249 30.4027 17.188 30.3441 17.233C30.2854 17.2781 30.2135 17.3024 30.1396 17.3023Z" fill="#27273D"/>
<path d="M19.8624 21.7303C20.7725 21.7303 21.5104 21.2924 21.5104 20.7523C21.5104 20.2121 20.7725 19.7742 19.8624 19.7742C18.9522 19.7742 18.2144 20.2121 18.2144 20.7523C18.2144 21.2924 18.9522 21.7303 19.8624 21.7303Z" fill="#F58D89"/>
<path d="M28.7818 21.7303C29.692 21.7303 30.4298 21.2924 30.4298 20.7523C30.4298 20.2121 29.692 19.7742 28.7818 19.7742C27.8716 19.7742 27.1338 20.2121 27.1338 20.7523C27.1338 21.2924 27.8716 21.7303 28.7818 21.7303Z" fill="#F58D89"/>
<path d="M34.2972 13.0929V11.6756C34.2972 7.38233 30.7916 3.90161 26.4677 3.90161H22.3707C18.0459 3.90161 14.5393 7.38233 14.5393 11.6756V16.3363H15.2963V13.2949H19.5455C19.6628 13.2949 19.7775 13.2606 19.8755 13.1961C19.9735 13.1316 20.0504 13.0399 20.0968 12.9322L21.1591 10.463C21.1749 10.4272 21.2008 10.3968 21.2336 10.3754C21.2664 10.3541 21.3047 10.3427 21.3438 10.3427C21.3829 10.3427 21.4212 10.3541 21.454 10.3754C21.4868 10.3968 21.5127 10.4272 21.5285 10.463L22.6434 12.9436C22.6908 13.049 22.7675 13.1385 22.8645 13.2013C22.9614 13.2641 23.0744 13.2976 23.1899 13.2977H25.6313C25.7484 13.2977 25.863 13.2633 25.9608 13.1989C26.0586 13.1344 26.1354 13.0427 26.1816 12.935L27.2429 10.4659C27.2586 10.4298 27.2845 10.3991 27.3174 10.3775C27.3503 10.356 27.3888 10.3445 27.4281 10.3445C27.4675 10.3445 27.5059 10.356 27.5388 10.3775C27.5717 10.3991 27.5976 10.4298 27.6133 10.4659L28.7273 12.9465C28.7747 13.052 28.8516 13.1416 28.9487 13.2044C29.0458 13.2672 29.159 13.3006 29.2747 13.3006H33.5555V16.3401H34.3125V13.0929H34.2972Z" fill="#3E436D"/>
<path d="M19.3924 10.5132C19.3917 11.4373 19.5278 12.3564 19.7963 13.2407C19.718 13.2768 19.6327 13.2954 19.5465 13.2953H15.2963V16.3338H14.5393V11.676C14.5393 7.48129 17.8889 4.06277 22.0731 3.90869C20.4059 5.66006 19.3924 7.97416 19.3924 10.5132Z" fill="#32314B"/>
<path d="M38.2564 44.7757C34.1686 47.5476 29.3388 49.0199 24.3998 48.9998C19.4608 48.9796 14.6432 47.4679 10.5781 44.6627C11.5935 39.379 13.2482 34.2368 18.3703 32.0366H30.6059C35.3069 34.6378 37.1386 38.8095 38.0794 43.8138C38.1167 43.944 38.1741 44.2407 38.2564 44.7757Z" fill="white"/>
<path d="M31.4414 31.6061C31.4414 31.8261 31.354 32.0372 31.1984 32.1928C31.0427 32.3484 30.8317 32.4358 30.6116 32.4358H25.4322V48.9829C25.1227 48.9944 24.812 49.0001 24.5 49.0001C24.2569 49.0001 24.0148 48.9966 23.7736 48.9896V32.4329H18.2554C18.1441 32.4367 18.0332 32.4181 17.9293 32.3781C17.8254 32.3381 17.7306 32.2776 17.6505 32.2003C17.5705 32.1229 17.5068 32.0302 17.4633 31.9277C17.4199 31.8252 17.3975 31.715 17.3975 31.6037C17.3975 31.4923 17.4199 31.3821 17.4633 31.2796C17.5068 31.1771 17.5705 31.0845 17.6505 31.0071C17.7306 30.9297 17.8254 30.8692 17.9293 30.8292C18.0332 30.7893 18.1441 30.7706 18.2554 30.7744H30.6116C30.7208 30.7744 30.8288 30.7959 30.9296 30.8377C31.0304 30.8796 31.122 30.9409 31.199 31.0181C31.2761 31.0954 31.3372 31.1871 31.3788 31.2879C31.4204 31.3888 31.4416 31.4969 31.4414 31.6061Z" fill="#F6C752"/>
<path d="M31.2757 10.8011C31.8825 10.8011 32.3743 10.3092 32.3743 9.70243C32.3743 9.09565 31.8825 8.60376 31.2757 8.60376C30.6689 8.60376 30.177 9.09565 30.177 9.70243C30.177 10.3092 30.6689 10.8011 31.2757 10.8011Z" fill="#4F4F74"/>
<path d="M30.47 8.3386C30.8997 8.3386 31.248 7.99025 31.248 7.56054C31.248 7.13082 30.8997 6.78247 30.47 6.78247C30.0402 6.78247 29.6919 7.13082 29.6919 7.56054C29.6919 7.99025 30.0402 8.3386 30.47 8.3386Z" fill="#4F4F74"/>
</g>
<defs>
<clipPath id="clip0">
<rect width="49" height="49" fill="white"/>
</clipPath>
</defs>
</svg>
