<svg width="53" height="48" viewBox="0 0 53 48" fill="none" xmlns="http://www.w3.org/2000/svg">
<g clip-path="url(#clip0)">
<path d="M39.485 23.7141H52.1227V47.6189H39.485V23.7141Z" fill="#CC1237" fill-opacity="0.3"/>
<path d="M19.875 35.3467H26.5V47.6098H19.875V35.3467Z" fill="#CC1237" fill-opacity="0.3"/>
<path d="M33.125 47.6098V35.3467H19.875V47.6098H13.4785V20.5433L26.4635 13.2329L39.4485 20.5433V47.6098H33.125ZM26.5 18.0029C24.8901 18.0029 23.585 19.308 23.585 20.9179C23.585 22.5278 24.8901 23.8329 26.5 23.8329C28.1099 23.8329 29.415 22.5278 29.415 20.9179C29.41 19.3101 28.1078 18.0079 26.5 18.0029Z" fill="#CC1237" fill-opacity="0.3"/>
<path d="M26.5 35.3469H33.125V47.61H26.5V35.3469Z" fill="#CC1237" fill-opacity="0.3"/>
<path d="M26.5 23.8422C28.1099 23.8422 29.415 22.5371 29.415 20.9272C29.415 19.3173 28.1099 18.0122 26.5 18.0122C24.8901 18.0122 23.585 19.3173 23.585 20.9272C23.585 22.5371 24.8901 23.8422 26.5 23.8422Z" fill="#CC1237" fill-opacity="0.3"/>
<path d="M0.877258 23.7141H13.515V47.6189H0.877258V23.7141Z" fill="#CC1237" fill-opacity="0.3"/>
<path d="M26.5 3.41895H33.9657V8.21636H26.5V3.41895Z" fill="#CC1237"/>
<path d="M30.6669 5.6394H37.9498V10.4368H30.6669V5.6394Z" fill="#CC1237"/>
<path d="M52.0862 22.8005H40.3988V20.5435C40.3982 20.2138 40.2201 19.91 39.9328 19.7485L27.4138 12.7123V9.13018H29.8902V10.4917C29.8902 10.9964 30.2993 11.4055 30.804 11.4055H38.2697C38.7743 11.4053 39.1832 10.996 39.1831 10.4914C39.1831 10.3856 39.1646 10.2806 39.1286 10.181L38.3793 8.05191L39.1378 5.96846C39.3093 5.49386 39.0637 4.97003 38.5891 4.79846C38.4897 4.76248 38.3847 4.74409 38.2788 4.74398H34.8795V3.41898C34.8795 2.91433 34.4703 2.50518 33.9657 2.50518H27.4138V1.39036C27.4138 0.885713 27.0046 0.476562 26.5 0.476562C25.9954 0.476562 25.5862 0.885713 25.5862 1.39036V12.7123L13.0672 19.7393C12.7799 19.9008 12.6018 20.2047 12.6012 20.5343V22.7914H0.913793C0.409151 22.7914 0 23.2005 0 23.7052V47.61C0 48.1147 0.409151 48.5238 0.913793 48.5238H52.0862C52.5908 48.5238 53 48.1147 53 47.61V23.7143C53 23.2097 52.5908 22.8005 52.0862 22.8005ZM34.8429 8.17984V6.60811H36.9264L36.5517 7.77777C36.4769 7.98132 36.4769 8.20474 36.5517 8.40829L36.9812 9.57794H31.7178V9.13018H33.9657C34.4703 9.13018 34.8795 8.72103 34.8795 8.21639L34.8429 8.17984ZM27.4138 4.33277H33.0519V5.69432V7.3026H27.4138V4.33277ZM12.6012 46.6962H1.82759V24.6281H12.6012V46.6962ZM25.5862 46.6962H20.7888V36.2607H25.5862V46.6962ZM32.2112 46.6962H27.4138V36.2607H32.2112V46.6962ZM38.6078 23.7052V46.6962H34.0388V35.3469C34.0388 34.8423 33.6296 34.4331 33.125 34.4331H19.875C19.3704 34.4331 18.9612 34.8423 18.9612 35.3469V46.6962H14.3922V21.11L26.5 14.2931L38.5712 21.0735L38.6078 23.7052ZM51.1724 46.6962H40.3988V24.6281H51.1724V46.6962Z" fill="#42362C"/>
<path d="M22.6712 20.9273C22.6763 23.0419 24.3945 24.752 26.5092 24.7469C28.6238 24.7419 30.3338 23.0236 30.3288 20.909C30.3238 18.798 28.6111 17.0894 26.5 17.0894C24.3839 17.0944 22.6712 18.8112 22.6712 20.9273ZM28.5104 20.9273C28.5053 22.0325 27.6053 22.9244 26.5 22.9194C25.3948 22.9143 24.5029 22.0142 24.508 20.909C24.513 19.811 25.4019 18.922 26.5 18.9169C27.6067 18.922 28.5012 19.8206 28.5012 20.9273H28.5104Z" fill="#42362C"/>
<path d="M4.02979 26.6384H5.85737V30.2936H4.02979V26.6384Z" fill="#42362C"/>
<path d="M8.53485 26.6384H10.3624V30.2936H8.53485V26.6384Z" fill="#42362C"/>
<path d="M17.1702 26.6384H20.8253V28.466H17.1702V26.6384Z" fill="#42362C"/>
<path d="M24.6724 26.6384H28.3276V28.466H24.6724V26.6384Z" fill="#42362C"/>
<path d="M32.1747 26.6384H35.8298V28.466H32.1747V26.6384Z" fill="#42362C"/>
<path d="M17.1702 30.8967H20.8253V32.7243H17.1702V30.8967Z" fill="#42362C"/>
<path d="M24.6724 30.8967H28.3276V32.7243H24.6724V30.8967Z" fill="#42362C"/>
<path d="M32.1747 30.8967H35.8298V32.7243H32.1747V30.8967Z" fill="#42362C"/>
<path d="M4.02979 33.8301H5.85737V37.4853H4.02979V33.8301Z" fill="#42362C"/>
<path d="M8.53485 33.8301H10.3624V37.4853H8.53485V33.8301Z" fill="#42362C"/>
<path d="M4.02979 41.0308H5.85737V44.6859H4.02979V41.0308Z" fill="#42362C"/>
<path d="M8.53485 41.0308H10.3624V44.6859H8.53485V41.0308Z" fill="#42362C"/>
<path d="M42.6376 26.6384H44.4652V30.2936H42.6376V26.6384Z" fill="#42362C"/>
<path d="M47.1426 26.6384H48.9702V30.2936H47.1426V26.6384Z" fill="#42362C"/>
<path d="M42.6376 33.8301H44.4652V37.4853H42.6376V33.8301Z" fill="#42362C"/>
<path d="M47.1426 33.8301H48.9702V37.4853H47.1426V33.8301Z" fill="#42362C"/>
<path d="M42.6376 41.0308H44.4652V44.6859H42.6376V41.0308Z" fill="#42362C"/>
<path d="M47.1426 41.0308H48.9702V44.6859H47.1426V41.0308Z" fill="#42362C"/>
</g>
<defs>
<clipPath id="clip0">
<rect width="53" height="48" fill="white"/>
</clipPath>
</defs>
</svg>
