<svg width="18" height="16" viewBox="0 0 18 16" fill="none" xmlns="http://www.w3.org/2000/svg">
<g clip-path="url(#clip0)">
<path d="M4.98678 14.1193C4.92541 14.1515 4.86405 14.1883 4.80739 14.2205C4.63271 14.3218 4.45328 14.4184 4.2786 14.5197C4.20308 14.5657 4.12282 14.6071 4.04729 14.6531C3.94814 14.7083 3.84428 14.7636 3.74514 14.8234C3.56101 14.9247 3.38161 15.0351 3.19749 15.1271C3.06529 15.1547 2.91422 15.1041 2.85284 14.9799C2.79619 14.8786 2.82924 14.7636 2.86229 14.6623C2.9095 14.4875 2.95671 14.3172 3.00392 14.1423C3.05113 13.9674 3.09834 13.7971 3.14555 13.6222C3.17388 13.5302 3.19749 13.4336 3.22109 13.3369C3.2447 13.2495 3.27303 13.1666 3.28719 13.0746C3.30135 12.9549 3.27303 12.8353 3.21637 12.7294C3.16916 12.6558 3.11251 12.596 3.04169 12.5453C2.91422 12.4533 2.79147 12.3659 2.66872 12.2692C2.5743 12.1956 2.4846 12.1174 2.39018 12.0391C2.30519 11.9655 2.22021 11.8919 2.13995 11.8182C2.03137 11.717 1.92751 11.6111 1.82836 11.5053C1.7481 11.4224 1.66784 11.335 1.5923 11.2475C1.52149 11.1647 1.45067 11.0773 1.38458 10.9944C1.27599 10.8564 1.17213 10.7091 1.06826 10.5618C1.04938 10.5342 1.03049 10.502 1.00689 10.4698C0.898302 10.3041 0.799159 10.1293 0.704733 9.95437C0.63864 9.83009 0.577264 9.70122 0.520609 9.57698C0.501726 9.52638 0.478121 9.48035 0.459237 9.42971C0.3837 9.25482 0.322325 9.07535 0.265671 8.89126C0.213739 8.721 0.171249 8.55532 0.13348 8.38043C0.0957114 8.20555 0.0673847 8.02608 0.0437789 7.85119C-0.0223167 7.32653 -0.0128745 6.79729 0.0673847 6.27267C0.0957114 6.10237 0.124038 5.9321 0.166528 5.76642C0.209018 5.59154 0.256229 5.41669 0.317604 5.24639C0.374257 5.06692 0.449796 4.89203 0.520609 4.72177L0.52533 4.70794C0.60559 4.53305 0.69057 4.36279 0.784992 4.19253C0.992725 3.82436 1.2335 3.4746 1.50732 3.14785C1.54037 3.11103 1.5687 3.07422 1.60175 3.0374C1.7245 2.89933 1.85197 2.76127 1.97944 2.63241C2.02665 2.58639 2.07386 2.54037 2.12579 2.48975C2.26271 2.36089 2.40434 2.23663 2.54597 2.11698C2.58846 2.08016 2.63095 2.04794 2.67344 2.01573C3.00864 1.75341 3.36273 1.5141 3.7357 1.3024C3.88205 1.21956 4.0284 1.14133 4.17948 1.06309C4.21253 1.04468 4.25029 1.03088 4.28335 1.01247C4.45803 0.929626 4.63741 0.84679 4.81684 0.773157C5.16621 0.630491 5.52498 0.506234 5.88854 0.400384C6.08208 0.345159 6.27566 0.294536 6.4692 0.253116C6.62973 0.216299 6.79496 0.184085 6.95549 0.156472C7.15377 0.119655 7.35206 0.0920426 7.55035 0.0690316C7.87611 0.0322148 8.20187 0.00920422 8.52762 0H9.04222C9.42464 0.00920422 9.80235 0.0368169 10.1847 0.0874403C10.3642 0.110451 10.5435 0.138064 10.7182 0.170278C10.8977 0.202493 11.077 0.23931 11.2517 0.280729C11.4311 0.322148 11.6105 0.36817 11.7899 0.423397C12.1582 0.529245 12.517 0.662707 12.8711 0.809971C13.0505 0.883608 13.2251 0.971047 13.3998 1.05388L13.414 1.05849C13.5887 1.15053 13.7681 1.24257 13.938 1.34382C14.3157 1.56472 14.6745 1.81323 15.0145 2.08936C15.0239 2.09396 15.0333 2.10777 15.0428 2.11237C15.2127 2.25504 15.378 2.3977 15.5385 2.55418C15.5668 2.58179 15.5904 2.6048 15.6188 2.63241C15.7462 2.75667 15.8643 2.89013 15.9823 3.02359C15.9115 3.0512 15.8407 3.08342 15.7745 3.11563C15.6943 3.14785 15.614 3.18467 15.5338 3.21688C15.3591 3.29051 15.1844 3.36875 15.0097 3.44699C14.8539 3.51602 14.6981 3.58045 14.5423 3.64948C14.5187 3.65868 14.4951 3.66789 14.4763 3.67709C14.2968 3.75533 14.1174 3.83356 13.938 3.9118C13.5792 4.06827 13.2204 4.22472 12.8616 4.3812C12.5075 4.53305 12.1487 4.68953 11.7947 4.84601C11.6152 4.92423 11.4359 5.00249 11.2564 5.0807C11.1431 5.12673 11.0345 5.17737 10.9213 5.22798C10.8504 5.25559 10.7843 5.28783 10.7135 5.31544C10.5341 5.39366 10.35 5.47188 10.1706 5.55014C10.0242 5.61457 9.87787 5.679 9.7315 5.74343C9.70319 5.75722 9.67013 5.77105 9.64182 5.78025C9.4624 5.85847 9.28301 5.93673 9.10362 6.01495C8.74481 6.17142 8.386 6.3279 8.02718 6.48438C7.75338 6.60404 7.47953 6.72365 7.20573 6.84331C7.12546 6.88013 7.0405 6.91237 6.95549 6.93078C6.7761 6.95839 6.59197 6.93998 6.42674 6.86635C6.38898 6.84794 6.34647 6.8249 6.30871 6.80191C6.17179 6.70525 6.03016 6.60862 5.89324 6.51199C5.77992 6.43373 5.66665 6.35551 5.55333 6.27725C5.48722 6.23123 5.41641 6.18063 5.3503 6.1346C5.17561 6.01495 5.00093 5.8907 4.831 5.77105C4.82625 5.77105 4.82155 5.76642 4.81684 5.76184C4.68937 5.67438 4.5666 5.58695 4.43913 5.49949C4.39192 5.4673 4.33526 5.4443 4.2786 5.43048C4.08978 5.42127 3.92454 5.59616 3.96703 5.78025C4.11811 6.1254 4.28805 6.46597 4.44387 6.81112C4.52884 6.99059 4.60911 7.1701 4.69407 7.34956C4.72713 7.41858 4.76018 7.49221 4.79324 7.56127C4.84045 7.66252 4.88766 7.76377 4.93486 7.86502C5.01513 8.03528 5.09539 8.21017 5.17561 8.38043C5.22757 8.49089 5.27948 8.60134 5.33144 8.7118C5.35975 8.77623 5.3928 8.84066 5.42115 8.90509C5.51557 9.08456 5.57693 9.28706 5.70441 9.45274C5.75632 9.49876 5.81298 9.54016 5.87434 9.57698C6.05377 9.66445 6.27091 9.65062 6.4456 9.55399C6.507 9.51717 6.56836 9.48035 6.62973 9.44812C6.74305 9.38831 6.85636 9.32388 6.96964 9.25945C7.32846 9.05695 7.68727 8.85445 8.04608 8.65195C8.20186 8.56452 8.35294 8.47706 8.50876 8.38964C8.53237 8.37585 8.56068 8.36202 8.58428 8.34824C8.76367 8.24699 8.9431 8.14574 9.11778 8.04907C9.22165 7.99384 9.32077 7.93403 9.41993 7.8788C9.5002 7.83278 9.57572 7.79138 9.65598 7.74536C9.83537 7.64411 10.01 7.54286 10.1895 7.44619C10.2461 7.414 10.298 7.38638 10.35 7.35415C10.4775 7.28513 10.6002 7.2115 10.7277 7.14248C11.0865 6.93998 11.4453 6.74206 11.8041 6.5396C11.941 6.46135 12.0779 6.38771 12.2148 6.30949C12.2573 6.28646 12.2951 6.26347 12.3376 6.24044C12.517 6.13919 12.6964 6.03798 12.8758 5.93673C12.9702 5.88608 13.0599 5.83085 13.1543 5.78025C13.2393 5.73423 13.3243 5.6882 13.4093 5.63756C13.7728 5.4351 14.1316 5.22798 14.4951 5.02548C14.6651 4.92885 14.835 4.8368 15.005 4.74018C15.0192 4.73097 15.0334 4.72635 15.0475 4.71715C15.2222 4.62052 15.4016 4.51927 15.5763 4.41802C15.7037 4.34896 15.8265 4.27533 15.9539 4.20631C16.0059 4.1787 16.0531 4.15109 16.105 4.12347C16.275 4.03146 16.4402 3.93021 16.6149 3.84737C16.6763 3.97163 16.7565 4.08208 16.8179 4.20631C16.9124 4.3812 17.0068 4.56067 17.087 4.74018C17.1106 4.79078 17.1295 4.84601 17.1531 4.89661C17.2051 5.01627 17.2476 5.14055 17.29 5.2648C17.3467 5.43048 17.3939 5.60074 17.4364 5.77105C17.4789 5.94593 17.5119 6.12078 17.5403 6.29566C17.5639 6.47055 17.5827 6.64085 17.5922 6.8157C17.6016 6.99059 17.6063 7.16547 17.6016 7.34036C17.5969 7.51525 17.5827 7.69013 17.5639 7.86502C17.545 8.03986 17.5119 8.21017 17.4789 8.38505C17.4411 8.5599 17.3986 8.7302 17.3467 8.90047C17.2334 9.26403 17.087 9.61842 16.9076 9.95895C16.7141 10.3271 16.4874 10.6769 16.2278 11.0036C16.1806 11.0635 16.1334 11.1187 16.0862 11.1739C15.987 11.289 15.8879 11.404 15.784 11.5145C15.7084 11.5927 15.6376 11.6663 15.5621 11.74C15.4488 11.8458 15.3355 11.9517 15.2174 12.0529C15.1561 12.1081 15.0947 12.1588 15.0333 12.2094C14.8775 12.3336 14.7218 12.4533 14.5565 12.5684C14.5329 12.5868 14.5093 12.6006 14.4857 12.619C14.311 12.7386 14.1316 12.8537 13.9428 12.9641C13.8719 13.0056 13.7964 13.047 13.7256 13.0884C13.6217 13.1436 13.5178 13.1989 13.414 13.2541C13.2393 13.3415 13.0599 13.4244 12.8758 13.5026C12.7908 13.5394 12.7058 13.5716 12.6208 13.6084C12.5264 13.6453 12.4273 13.6821 12.3281 13.7143C12.1534 13.7787 11.9788 13.8339 11.8041 13.8846C11.62 13.9398 11.4359 13.9858 11.247 14.0318C11.0865 14.0686 10.926 14.1009 10.7702 14.1331C10.7607 14.1331 10.7418 14.1377 10.7324 14.1377C10.553 14.1699 10.3736 14.1975 10.1942 14.2205C10.0148 14.2435 9.83537 14.2619 9.65598 14.2758C9.47659 14.2895 9.29717 14.2987 9.11778 14.3034C8.93835 14.308 8.75896 14.308 8.57958 14.3034C8.40015 14.2987 8.22077 14.2895 8.04134 14.2803C7.86195 14.2666 7.68256 14.2527 7.50314 14.2297C7.34261 14.2113 7.18212 14.1837 7.0216 14.1607C6.96494 14.1515 6.90828 14.1377 6.84691 14.1331C6.70999 14.1055 6.56836 14.0778 6.43144 14.0456C6.24731 14.0042 6.06792 13.9582 5.88854 13.9076C5.71386 13.8616 5.52027 13.8754 5.3503 13.9398" fill="#CB2023"/>
</g>
<defs>
<clipPath id="clip0">
<rect width="18" height="15.1364" fill="white"/>
</clipPath>
</defs>
</svg>
