<svg width="65" height="55" viewBox="0 0 65 55" fill="none" xmlns="http://www.w3.org/2000/svg">
<g clip-path="url(#clip0)">
<path d="M44.4519 18.8889C38.7554 19.1853 33.8041 20.9129 29.7816 24.814C25.7167 28.7548 23.862 33.5847 24.3702 39.5719C22.1429 39.2953 20.1161 38.9933 18.078 38.8211C17.3723 38.7618 16.5367 38.8465 15.9411 39.1824C13.9623 40.3002 12.0625 41.5621 9.81271 42.9678C10.2248 41.0991 10.493 39.4647 10.9673 37.8923C11.3145 36.735 11.1536 36.0942 10.0893 35.3405C3.2524 30.5134 0.370263 23.2897 2.52692 15.8515C4.51986 8.97218 9.42033 4.79717 16.0794 2.62357C25.169 -0.346074 35.3821 2.68285 40.9093 9.89807C42.9022 12.5036 44.1273 15.4309 44.4519 18.8889ZM18.2361 16.5713C18.2897 15.2107 17.1098 13.9856 15.7096 13.9432C14.2756 13.9009 13.0985 14.9962 13.0562 16.4104C13.0138 17.8416 14.1091 18.9905 15.5516 19.0272C16.9828 19.0639 18.1825 17.9658 18.2361 16.5713ZM31.9128 13.9432C30.507 13.9686 29.3214 15.1655 29.344 16.5318C29.3694 17.946 30.5353 19.0554 31.9806 19.0385C33.4287 19.0215 34.5296 17.9009 34.5155 16.4556C34.5042 15.0385 33.344 13.9178 31.9128 13.9432Z" fill="#2DC100"/>
<path d="M57.2479 54.3977C55.4441 53.596 53.7899 52.3906 52.0285 52.2071C50.2726 52.0236 48.4293 53.037 46.5945 53.2234C41.0024 53.7964 35.9918 52.2382 31.862 48.416C24.006 41.15 25.1295 30.0081 34.2162 24.0519C42.2953 18.759 54.1428 20.5233 59.8365 27.8684C64.8075 34.2763 64.2232 42.7816 58.1541 48.1648C56.3982 49.723 55.7659 51.0046 56.8923 53.0596C57.104 53.4407 57.1265 53.9206 57.2479 54.3977ZM36.7173 34.5219C37.8662 34.5219 38.8118 33.6242 38.8542 32.4894C38.8994 31.2897 37.9339 30.2819 36.7314 30.2763C35.5402 30.2707 34.5437 31.2925 34.586 32.4753C34.6256 33.6073 35.5769 34.5191 36.7173 34.5219ZM49.9508 30.2819C48.8358 30.2735 47.8902 31.1853 47.845 32.3116C47.797 33.5141 48.7314 34.505 49.9226 34.5078C51.0743 34.5106 51.9861 33.6412 52.0256 32.4951C52.0736 31.2869 51.1364 30.2904 49.9508 30.2819Z" fill="#2DC100"/>
</g>
<defs>
<clipPath id="clip0">
<rect width="65" height="54.7857" fill="white"/>
</clipPath>
</defs>
</svg>
