<svg width="60" height="49" viewBox="0 0 60 49" fill="none" xmlns="http://www.w3.org/2000/svg">
<g clip-path="url(#clip0)">
<path d="M4.41223 33.5941C4.41223 40.6133 13.5096 46.3052 24.734 46.3052C35.9585 46.3052 45.0559 40.6125 45.0559 33.5941C45.0559 26.5756 35.9577 20.8837 24.734 20.8837C13.5104 20.8837 4.41223 26.5748 4.41223 33.5941Z" fill="white"/>
<path d="M25.2072 45.2698C15.2737 46.254 6.69894 41.745 6.05266 35.193C5.40798 28.6427 12.9407 22.5339 22.8726 21.5473C32.8069 20.5599 41.3824 25.0705 42.0271 31.6193C42.671 38.172 35.1415 44.2824 25.2072 45.2698ZM45.0766 23.5221C44.2316 23.2689 43.6524 23.0949 44.0944 21.9801C45.0527 19.5581 45.1516 17.4695 44.1128 15.9788C42.1652 13.1841 36.8354 13.3339 30.7261 15.9042C30.7261 15.9002 28.808 16.7474 29.2979 15.219C30.2378 12.1838 30.0957 9.64239 28.6332 8.17492C25.3197 4.84324 16.5056 8.30074 8.94654 15.8906C3.28644 21.577 0 27.6032 0 32.8143C0 42.7821 12.7253 48.8419 25.1745 48.8419C41.4934 48.8419 52.3492 39.3173 52.3492 31.7563C52.3492 27.1872 48.5186 24.5945 45.0766 23.5221Z" fill="#E6162D"/>
<path d="M55.9133 5.28161C51.9726 0.892802 46.1593 -0.77985 40.7937 0.365439H40.7921C40.497 0.428747 40.2173 0.549812 39.9688 0.721721C39.7203 0.89363 39.508 1.11302 39.3439 1.36736C39.1798 1.6217 39.0672 1.90601 39.0125 2.20406C38.9579 2.5021 38.9621 2.80805 39.0252 3.10444C39.0882 3.40082 39.2087 3.68183 39.3799 3.93143C39.551 4.18102 39.7694 4.39431 40.0226 4.55912C40.2758 4.72393 40.5588 4.83703 40.8555 4.89196C41.1523 4.94689 41.4568 4.94258 41.7519 4.87927C45.5689 4.06499 49.6995 5.25757 52.5032 8.37365C53.8318 9.8526 54.7493 11.6569 55.1634 13.605C55.5776 15.5531 55.4738 17.5764 54.8625 19.4715L54.8633 19.4723C54.7701 19.7607 54.7344 20.0648 54.7584 20.3671C54.7824 20.6693 54.8655 20.9639 55.003 21.2339C55.1405 21.5038 55.3296 21.7439 55.5596 21.9403C55.7896 22.1367 56.056 22.2856 56.3434 22.3784C56.9226 22.5666 57.5526 22.5161 58.0949 22.2381C58.6371 21.9601 59.0474 21.4773 59.2356 20.8957L59.2364 20.8861C60.9184 15.6429 59.8556 9.66561 55.9133 5.28161Z" fill="#FF9933"/>
<path d="M49.8606 10.7677C47.9425 8.63016 45.1109 7.81828 42.4963 8.3769C42.2361 8.42471 41.9881 8.52447 41.767 8.67027C41.5459 8.81608 41.3562 9.00495 41.2091 9.22573C41.0619 9.44651 40.9604 9.69469 40.9105 9.95559C40.8606 10.2165 40.8632 10.4848 40.9184 10.7446C40.9736 11.0045 41.08 11.2505 41.2316 11.4683C41.3831 11.6861 41.5766 11.8711 41.8005 12.0124C42.0245 12.1537 42.2745 12.2484 42.5355 12.2909C42.7966 12.3334 43.0635 12.3229 43.3205 12.26V12.2616C43.9701 12.1221 44.6448 12.1564 45.277 12.3612C45.9092 12.566 46.4768 12.9341 46.9229 13.4285C47.3681 13.9242 47.6754 14.5291 47.8137 15.1821C47.9519 15.8352 47.9163 16.5133 47.7104 17.1481H47.712C47.5506 17.6494 47.594 18.1946 47.8327 18.6638C48.0713 19.133 48.4856 19.4878 48.9846 19.6503C49.4839 19.812 50.0267 19.7679 50.4936 19.5278C50.9606 19.2876 51.3135 18.871 51.4747 18.3695C52.2965 15.8153 51.7827 12.9044 49.8606 10.7677Z" fill="#FF9933"/>
<path d="M25.7553 33.4041C25.4075 34.002 24.6399 34.289 24.0383 34.0397C23.4463 33.7945 23.2604 33.1276 23.5971 32.541C23.9434 31.9575 24.6822 31.673 25.2718 31.9078C25.8718 32.1282 26.0872 32.8039 25.7553 33.4041ZM22.5902 37.486C21.6295 39.0256 19.5718 39.7004 18.0216 38.9895C16.4944 38.2915 16.0436 36.5018 17.0059 35.0007C17.9545 33.5059 19.9428 32.8391 21.4811 33.4867C23.037 34.1535 23.5349 35.9304 22.5902 37.486ZM26.2005 26.5877C21.4731 25.3518 16.1298 27.7186 14.0769 31.903C11.9856 36.17 14.0083 40.9066 18.7827 42.4559C23.7303 44.058 29.5612 41.6031 31.5886 36.9963C33.5888 32.4937 31.0923 27.858 26.2005 26.5877Z" fill="black"/>
</g>
<defs>
<clipPath id="clip0">
<rect width="60" height="48.8571" fill="white"/>
</clipPath>
</defs>
</svg>
