<svg width="72" height="34" viewBox="0 0 72 34" fill="none" xmlns="http://www.w3.org/2000/svg">
<path d="M19.1844 29.5247L21.8196 29.5254L22.6872 32.5138L27.4133 29.5254H32.985V4.87131H19.1844V29.5247ZM21.9888 7.54779H30.181V26.8489H27.0382L23.8997 28.8338L23.3284 26.8536L21.9892 26.8493V7.54815L21.9888 7.54779ZM16.8545 16.1521H10.9685C11.1647 13.0814 11.2158 10.3059 11.2158 7.82705H16.9711C16.9711 7.82705 17.1925 5.27025 16.0063 5.29926H6.05052C6.44292 3.81233 6.93612 2.27752 7.52652 0.690491C7.52652 0.690491 4.81824 0.690491 3.89592 3.13486C3.51432 4.14308 2.40984 8.02361 0.4428 11.9876C1.1052 11.915 3.29652 11.8534 4.58712 9.47065C4.82472 8.80334 4.86972 8.7163 5.16492 7.82414H8.41212C8.41212 9.01369 8.27748 15.4039 8.22276 16.1473H2.3436C1.0224 16.1473 0.59292 18.8238 0.59292 18.8238H7.9704C7.4754 24.4745 4.8186 29.2363 0 33.0008C2.30508 33.6638 4.60224 32.8957 5.73732 31.8787C5.73732 31.8787 8.32284 29.5105 9.74052 24.0306L15.8112 31.3906C15.8112 31.3906 16.7015 28.3435 15.6715 26.8587C14.8183 25.8476 12.515 23.1124 11.533 22.1208L9.88776 23.4362C10.3784 21.8521 10.6736 20.3137 10.7734 18.8267H17.7084C17.7084 18.8267 17.6987 16.1502 16.8545 16.1502V16.1521ZM63.2052 15.97C65.5488 13.064 68.2646 9.33247 68.2646 9.33247C68.2646 9.33247 66.1669 7.65514 65.1845 8.87189C64.5098 9.79596 61.0409 14.3347 61.0409 14.3347L63.2052 15.9704V15.97ZM46.3201 9.27445C45.3071 8.33986 43.4056 9.51635 43.4056 9.51635C43.4056 9.51635 47.8516 15.7542 48.0316 16.0273L50.2204 14.4715C50.2204 14.4715 47.3332 10.2094 46.3216 9.27445H46.3201ZM71.9964 17.3626C69.7716 17.3626 57.2695 17.4685 57.2533 17.4685V6.02278C57.7944 6.02278 58.6508 5.97781 59.8237 5.88642C64.422 5.61333 67.7128 5.43308 69.6974 5.34096C69.6974 5.34096 71.0716 2.25975 69.6308 1.5511C69.2852 1.41691 67.0244 2.06971 67.0244 2.06971C67.0244 2.06971 48.4376 3.93853 40.8848 4.11515C41.0648 5.11466 41.7416 6.05034 42.6596 6.33105C44.1572 6.72526 45.212 6.52326 48.1892 6.4315C50.9828 6.25017 53.1032 6.15588 54.5468 6.15588V17.4674H39.5312C39.5312 17.4674 39.848 19.9952 42.4004 20.0569H54.5432V28.0936C54.5432 29.6763 53.284 30.5851 51.7892 30.4872C50.2052 30.4995 48.8552 30.3566 47.0995 30.2819C47.3238 30.7316 47.8112 31.9125 49.2721 32.7567C50.3834 33.3015 51.0916 33.5013 52.1989 33.5013C55.5242 33.5013 57.3361 31.5429 57.2486 28.3659V20.0573H71.0132C72.1026 20.0573 71.9924 17.3619 71.9924 17.3619L71.9964 17.3626Z" fill="#0F88EB"/>
</svg>
