<svg width="19" height="15" viewBox="0 0 19 15" fill="none" xmlns="http://www.w3.org/2000/svg">
<path fill-rule="evenodd" clip-rule="evenodd" d="M8.92426 8.96131C7.57942 7.74987 3.00376 3.8646 0.396081 1.65618C0.233727 1.51895 0.208975 1.27774 0.340417 1.11C0.644231 0.722285 1.0973 0.5 1.5828 0.5H17.4161C17.9017 0.5 18.3547 0.722285 18.6585 1.10997C18.79 1.27774 18.7652 1.51895 18.6029 1.65618C15.9952 3.8646 11.4195 7.75024 10.0735 8.96287C9.89337 9.12559 9.70007 9.20794 9.49946 9.20794C9.29844 9.20794 9.1048 9.12481 8.92426 8.96131ZM18.3483 2.91018C18.465 2.81043 18.6301 2.78765 18.7704 2.85296C18.9103 2.91753 19 3.05784 19 3.21207V13.1667C19 14.0399 18.2899 14.75 17.4167 14.75H1.58335C0.710088 14.75 0 14.0399 0 13.1667V3.21207C0 3.05784 0.0896934 2.9179 0.229596 2.85292C0.368756 2.78839 0.534189 2.8104 0.651715 2.91015C3.01239 4.91097 7.15706 8.43443 8.39481 9.54964C9.04808 10.1388 9.95262 10.1388 10.6044 9.55042C11.7656 8.50405 15.4564 5.3617 18.3483 2.91018Z" fill="#B25254"/>
</svg>
