<svg width="18" height="18" viewBox="0 0 18 18" fill="none" xmlns="http://www.w3.org/2000/svg">
<path d="M9.73692 0C8.91104 0 9.20751 1.76824 9.20751 1.76824C9.20751 1.76824 7.4128 6.64412 5.72927 7.94118C5.41479 8.27408 5.16681 8.66402 4.99869 9.09C4.96163 9.16941 4.93516 9.25412 4.90869 9.32294C4.71089 9.70126 4.40741 10.0139 4.03516 10.2229L5.72927 17.5818C7.46828 17.7907 9.21904 17.8862 10.9704 17.8676C11.9886 17.9721 13.0161 17.9382 14.0252 17.7671C17.0322 17.1265 16.2805 15.0247 16.2805 15.0247C17.204 14.4407 17.5108 13.2371 16.9793 12.2824C17.3761 11.9316 17.6033 11.4275 17.6033 10.8979C17.6033 10.3684 17.3761 9.86424 16.9793 9.51353C17.4121 8.84224 17.3172 7.95984 16.7516 7.39588C15.4916 6.24706 12.0875 7.01471 12.0875 7.01471C11.8493 7.05177 11.5952 7.10471 11.3252 7.16824C11.3252 7.16824 10.1446 7.69765 11.3252 4.14C12.5057 0.582353 10.5893 0 9.73692 0Z" fill="#CB2023"/>
<path d="M4.51059 17.0523L3.22941 10.9641C3.14021 10.6028 2.82303 10.3439 2.45118 10.3288H0V17.6823H3.99706C4.15827 17.6934 4.31483 17.6255 4.41692 17.5003C4.51902 17.375 4.55395 17.208 4.51059 17.0523Z" fill="#3D3C3B"/>
</svg>
