<svg width="23" height="23" viewBox="0 0 23 23" fill="none" xmlns="http://www.w3.org/2000/svg">
<path d="M16.5312 1.07812H6.46875C5.67482 1.07812 5.03125 1.72172 5.03125 2.51562V19.0469C5.03125 19.8408 5.67482 20.4844 6.46875 20.4844H16.5312C17.3252 20.4844 17.9687 19.8408 17.9687 19.0469V2.51562C17.9687 1.72172 17.3252 1.07812 16.5312 1.07812Z" fill="#282625"/>
<path d="M16.8906 2.875C16.89 2.68456 16.8141 2.50207 16.6795 2.3674C16.5448 2.23273 16.3623 2.15682 16.1719 2.15626H14.375C14.1833 2.15768 14 2.23505 13.8653 2.37139C13.7306 2.50774 13.6554 2.69195 13.6562 2.88363C13.656 2.97753 13.6371 3.07045 13.6008 3.15704C13.5645 3.24364 13.5114 3.32219 13.4446 3.38819C13.3778 3.45419 13.2986 3.50633 13.2116 3.54161C13.1245 3.57689 13.0314 3.59461 12.9375 3.59376H10.0625C9.96739 3.59305 9.87333 3.57361 9.78569 3.53654C9.69809 3.49947 9.61865 3.44551 9.5519 3.37772C9.48515 3.30994 9.4324 3.22968 9.3967 3.1415C9.361 3.05333 9.34298 2.95899 9.34375 2.86386C9.34356 2.77027 9.32487 2.67763 9.28869 2.5913C9.25252 2.50497 9.19962 2.42665 9.13301 2.36087C9.06646 2.29508 8.98749 2.24313 8.90071 2.20802C8.81398 2.1729 8.72112 2.1553 8.62749 2.15626H6.82812C6.63766 2.15682 6.45519 2.23273 6.32054 2.3674C6.18585 2.50207 6.10995 2.68456 6.10938 2.875V17.6094C6.10995 17.7998 6.18585 17.9823 6.32054 18.117C6.45519 18.2516 6.63766 18.3275 6.82812 18.3281H16.1719C16.3623 18.3275 16.5448 18.2516 16.6795 18.117C16.8141 17.9823 16.89 17.7998 16.8906 17.6094V2.875Z" fill="white"/>
<path d="M8.98437 7.90625H1.79687C1.39992 7.90625 1.07812 8.22806 1.07812 8.625V15.8125C1.07812 16.2094 1.39992 16.5312 1.79687 16.5312H8.98437C9.38132 16.5312 9.70312 16.2094 9.70312 15.8125V8.625C9.70312 8.22806 9.38132 7.90625 8.98437 7.90625Z" fill="#CB2023"/>
<path d="M5.03125 15.0937C6.42059 15.0937 7.54687 13.9675 7.54687 12.5781C7.54687 11.1888 6.42059 10.0625 5.03125 10.0625C3.64191 10.0625 2.51562 11.1888 2.51562 12.5781C2.51562 13.9675 3.64191 15.0937 5.03125 15.0937Z" fill="white"/>
<path d="M21.2031 7.90625H14.0156C13.6187 7.90625 13.2969 8.22806 13.2969 8.625V15.8125C13.2969 16.2094 13.6187 16.5312 14.0156 16.5312H21.2031C21.6001 16.5312 21.9219 16.2094 21.9219 15.8125V8.625C21.9219 8.22806 21.6001 7.90625 21.2031 7.90625Z" fill="#CB2023"/>
<path d="M20.2533 10.562C20.0512 10.3601 19.7772 10.2467 19.4914 10.2467C19.2058 10.2467 18.9317 10.3601 18.7296 10.562L17.9677 11.3239L17.2058 10.562C17.0033 10.36 16.7288 10.2466 16.4427 10.247C16.1566 10.2473 15.8824 10.3613 15.6803 10.5638C15.4782 10.7663 15.3649 11.0409 15.3652 11.327C15.3656 11.6131 15.4795 11.8873 15.6821 12.0894L17.9677 14.375L20.2533 12.0894C20.4558 11.8868 20.5695 11.6121 20.5695 11.3257C20.5695 11.0393 20.4558 10.7646 20.2533 10.562Z" fill="white"/>
<path d="M15.0937 5.03125H7.90625C7.50931 5.03125 7.1875 5.35306 7.1875 5.75V12.9375C7.1875 13.3344 7.50931 13.6562 7.90625 13.6562H15.0937C15.4907 13.6562 15.8125 13.3344 15.8125 12.9375V5.75C15.8125 5.35306 15.4907 5.03125 15.0937 5.03125Z" fill="#CB2023"/>
<path d="M6.46875 14.6409V14.375C6.46875 13.9938 6.31729 13.6281 6.04771 13.3585C5.77813 13.089 5.41247 12.9375 5.03125 12.9375C4.65 12.9375 4.28437 13.089 4.01478 13.3585C3.7452 13.6281 3.59375 13.9938 3.59375 14.375V14.6409C4.01516 14.9357 4.51699 15.0937 5.03125 15.0937C5.54549 15.0937 6.04732 14.9357 6.46875 14.6409Z" fill="#CB2023"/>
<path d="M14.375 10.0625H13.2358L14.0408 10.8675L13.0238 11.8845L12.2187 11.0795V12.2187H10.7812V11.0795L9.97625 11.8845L8.95922 10.8675L9.76422 10.0625H8.625V8.625H9.76422L8.95922 7.82L9.97625 6.80297L10.7812 7.60797V6.46875H12.2187V7.60797L13.0238 6.80297L14.0408 7.82L13.2358 8.625H14.375V10.0625Z" fill="white"/>
<path d="M11.5 10.0625C11.8969 10.0625 12.2187 9.74069 12.2187 9.34375C12.2187 8.94681 11.8969 8.625 11.5 8.625C11.1031 8.625 10.7812 8.94681 10.7812 9.34375C10.7812 9.74069 11.1031 10.0625 11.5 10.0625Z" fill="#CB2023"/>
<path d="M5.03125 12.5781C5.42819 12.5781 5.75 12.2563 5.75 11.8594C5.75 11.4624 5.42819 11.1406 5.03125 11.1406C4.63429 11.1406 4.3125 11.4624 4.3125 11.8594C4.3125 12.2563 4.63429 12.5781 5.03125 12.5781Z" fill="#CB2023"/>
<path d="M10.4219 2.15625H11.1406V2.875H10.4219V2.15625Z" fill="#F1F2F2"/>
<path d="M11.8594 2.15625H12.5781V2.875H11.8594V2.15625Z" fill="#F1F2F2"/>
<path d="M10.4219 19.0469H12.5781V19.7656H10.4219V19.0469Z" fill="#F1F2F2"/>
</svg>
