<svg width="19" height="20" viewBox="0 0 19 20" fill="none" xmlns="http://www.w3.org/2000/svg">
<path d="M17.4754 13.1277C16.3121 13.1277 15.17 12.9362 14.0876 12.5597C13.5573 12.3693 12.9053 12.544 12.5816 12.8939L10.4452 14.5915C7.96766 13.1994 6.44153 11.5934 5.13706 9.00505L6.70233 6.81484C7.109 6.38734 7.25486 5.76286 7.0801 5.17693C6.72089 4.03161 6.53841 2.8299 6.53841 1.6049C6.53846 0.719948 5.85451 0 5.01386 0H1.5246C0.683949 0 0 0.719948 0 1.60484C0 11.7481 7.83936 20 17.4754 20C18.3161 20 19 19.2801 19 18.3952V14.7325C19 13.8477 18.316 13.1277 17.4754 13.1277Z" fill="#B25254"/>
</svg>
