<svg width="20" height="17" viewBox="0 0 20 17" fill="none" xmlns="http://www.w3.org/2000/svg">
<g clip-path="url(#clip0)">
<path d="M18.5204 0H4.81425C3.99188 0 3.33398 0.675942 3.33398 1.47976V9.99298C3.33398 10.8151 4.01015 11.4727 4.81425 11.4727H14.2623L16.4005 13.6284C16.4919 13.7198 16.6015 13.7746 16.7295 13.7746C16.9853 13.7746 17.2046 13.5736 17.2046 13.2996V11.4727H18.5204C19.3428 11.4727 20.0007 10.7968 20.0007 9.99298V1.47976C20.0007 0.657673 19.3245 0 18.5204 0Z" fill="#CB2023"/>
<path d="M2.44199 10.0338V7.09601H0.959039C0.43458 7.09601 0.000545324 7.53946 0.000545324 8.07529V13.7292C-0.0175395 14.302 0.416495 14.7455 0.959039 14.7455H1.80902V15.965C1.80902 16.1313 1.9537 16.2791 2.11647 16.2791C2.20689 16.2791 2.27923 16.2421 2.33348 16.1867L3.72601 14.764H9.87484C10.3993 14.764 10.8333 14.3205 10.8333 13.7847V12.3804H4.73876C3.47282 12.3804 2.44199 11.3272 2.44199 10.0338Z" fill="#3D3C3B"/>
</g>
<defs>
<clipPath id="clip0">
<rect width="20" height="16.2791" fill="white"/>
</clipPath>
</defs>
</svg>
