<svg width="12" height="21" viewBox="0 0 12 21" fill="none" xmlns="http://www.w3.org/2000/svg">
<g clip-path="url(#clip0)">
<mask id="mask0" mask-type="alpha" maskUnits="userSpaceOnUse" x="0" y="0" width="12" height="21">
<path d="M10.642 4.63812H8.28623V1.81887C8.69396 1.72793 8.96579 1.36415 8.96579 0.909435C8.96579 0.409246 8.55805 0 8.05972 0H3.93711C3.43877 0 3.03104 0.409246 3.03104 0.909435C3.03104 1.36415 3.34816 1.72793 3.75589 1.81887V4.68359H1.40012C0.62996 4.68359 0.0410156 5.3202 0.0410156 6.04774V17.4157C0.0410156 18.1887 0.62996 18.7798 1.40012 18.7798H2.12497V19.3255C2.12497 20.0985 2.75922 20.6897 3.48407 20.6897C4.25423 20.6897 4.84318 20.053 4.84318 19.3255V18.7798H7.15365V19.3255C7.15365 20.0985 7.7879 20.6897 8.51275 20.6897C9.28291 20.6897 9.87185 20.053 9.87185 19.3255V18.7798H10.5967C11.3669 18.7798 11.9558 18.1432 11.9558 17.4157V6.04774C12.0011 5.27472 11.4122 4.63812 10.642 4.63812ZM8.24093 8.32133C8.82988 8.32133 9.32825 8.82152 9.32825 9.41266C9.32825 10.0038 8.82991 10.504 8.24093 10.504C7.65202 10.504 7.15365 10.0038 7.15365 9.41266C7.10835 8.77605 7.60668 8.32133 8.24093 8.32133ZM5.06969 1.81887H6.92713V4.63812H5.06969V1.81887ZM3.16695 16.5517C2.39679 16.5517 1.76254 15.9151 1.76254 15.1421C1.76254 14.3691 2.39679 13.7325 3.16695 13.7325C3.93711 13.7325 4.57136 14.3691 4.57136 15.1421C4.57136 15.9151 3.93711 16.5517 3.16695 16.5517ZM3.16695 11.186L2.03437 7.77564L5.02439 6.77526L6.15697 10.1857L3.16695 11.186ZM9.55473 15.324C9.46412 15.7332 9.23761 16.097 8.87518 16.3244C8.51275 16.5517 8.10502 16.6427 7.69729 16.5517C6.83653 16.3698 6.29292 15.5513 6.4741 14.6874L6.88183 12.6866L9.96246 13.3687L9.55473 15.324Z" fill="white"/>
</mask>
<g mask="url(#mask0)">
<path d="M10.642 4.63812H8.28623V1.81887C8.69396 1.72793 8.96579 1.36415 8.96579 0.909435C8.96579 0.409246 8.55805 0 8.05972 0H3.93711C3.43877 0 3.03104 0.409246 3.03104 0.909435C3.03104 1.36415 3.34816 1.72793 3.75589 1.81887V4.68359H1.40012C0.62996 4.68359 0.0410156 5.3202 0.0410156 6.04774V17.4157C0.0410156 18.1887 0.62996 18.7798 1.40012 18.7798H2.12497V19.3255C2.12497 20.0985 2.75922 20.6897 3.48407 20.6897C4.25423 20.6897 4.84318 20.053 4.84318 19.3255V18.7798H7.15365V19.3255C7.15365 20.0985 7.7879 20.6897 8.51275 20.6897C9.28291 20.6897 9.87185 20.053 9.87185 19.3255V18.7798H10.5967C11.3669 18.7798 11.9558 18.1432 11.9558 17.4157V6.04774C12.0011 5.27472 11.4122 4.63812 10.642 4.63812ZM8.24093 8.32133C8.82988 8.32133 9.32825 8.82152 9.32825 9.41266C9.32825 10.0038 8.82991 10.504 8.24093 10.504C7.65202 10.504 7.15365 10.0038 7.15365 9.41266C7.10835 8.77605 7.60668 8.32133 8.24093 8.32133ZM5.06969 1.81887H6.92713V4.63812H5.06969V1.81887ZM3.16695 16.5517C2.39679 16.5517 1.76254 15.9151 1.76254 15.1421C1.76254 14.3691 2.39679 13.7325 3.16695 13.7325C3.93711 13.7325 4.57136 14.3691 4.57136 15.1421C4.57136 15.9151 3.93711 16.5517 3.16695 16.5517ZM3.16695 11.186L2.03437 7.77564L5.02439 6.77526L6.15697 10.1857L3.16695 11.186ZM9.55473 15.324C9.46412 15.7332 9.23761 16.097 8.87518 16.3244C8.51275 16.5517 8.10502 16.6427 7.69729 16.5517C6.83653 16.3698 6.29292 15.5513 6.4741 14.6874L6.88183 12.6866L9.96246 13.3687L9.55473 15.324Z" fill="#CB2023"/>
<path d="M9.6 -1.2H2V4.8H9.6V-1.2Z" fill="#282625"/>
<path d="M10 18.8H2V20.8H10V18.8Z" fill="#282625"/>
</g>
</g>
<defs>
<clipPath id="clip0">
<rect width="12" height="20.8" fill="white"/>
</clipPath>
</defs>
</svg>
